<?xml version="1.0" encoding="UTF-8" standalone="no"?>
<!DOCTYPE svg PUBLIC "-//W3C//DTD SVG 1.1//EN"
 "http://www.w3.org/Graphics/SVG/1.1/DTD/svg11.dtd">
<!-- Generated by graphviz version 2.30.1 (20130524.0532)
 -->
<!-- Title: controllers_diagram Pages: 1 -->
<svg width="1529pt" height="924pt"
 viewBox="0.00 0.00 1528.95 924.00" xmlns="http://www.w3.org/2000/svg" xmlns:xlink="http://www.w3.org/1999/xlink">
<g id="graph0" class="graph" transform="scale(1 1) rotate(0) translate(4 920)">
<title>controllers_diagram</title>
<polygon fill="white" stroke="white" points="-4,5 -4,-920 1525.95,-920 1525.95,5 -4,5"/>
<!-- _diagram_info -->
<g id="node1" class="node"><title>_diagram_info</title>
<text text-anchor="start" x="1253" y="-899" font-family="Times,serif" font-size="13.00">Controllers diagram</text>
<text text-anchor="start" x="1253" y="-883.4" font-family="Times,serif" font-size="13.00">Date: May 25 2013 &#45; 16:58</text>
<text text-anchor="start" x="1253" y="-867.8" font-family="Times,serif" font-size="13.00">Migration version: 20130525205616</text>
<text text-anchor="start" x="1253" y="-852.2" font-family="Times,serif" font-size="13.00">Generated by RailRoady 1.1.0</text>
<text text-anchor="start" x="1253" y="-836.6" font-family="Times,serif" font-size="13.00">http://railroady.prestonlee.com</text>
</g>
<!-- AccessRightsController -->
<g id="node2" class="node"><title>AccessRightsController</title>
<ellipse fill="none" stroke="black" cx="132.314" cy="-62.4645" rx="103.102" ry="18"/>
<text text-anchor="middle" x="132.314" y="-56.8645" font-family="Times,serif" font-size="14.00">AccessRightsController</text>
</g>
<!-- ApplicationController -->
<g id="node3" class="node"><title>ApplicationController</title>
<ellipse fill="none" stroke="black" cx="800.741" cy="-364.908" rx="96.1448" ry="18"/>
<text text-anchor="middle" x="800.741" y="-359.308" font-family="Times,serif" font-size="14.00">ApplicationController</text>
</g>
<!-- ApplicationController&#45;&gt;AccessRightsController -->
<g id="edge1" class="edge"><title>ApplicationController&#45;&gt;AccessRightsController</title>
<path fill="none" stroke="black" d="M743.466,-350.343C688.724,-335.622 604.396,-310.836 534.322,-281.089 387.697,-218.846 224.151,-119.995 160.131,-80.0592"/>
</g>
<!-- CommunesController -->
<g id="node4" class="node"><title>CommunesController</title>
<ellipse fill="none" stroke="black" cx="889.902" cy="-18" rx="94.948" ry="18"/>
<text text-anchor="middle" x="889.902" y="-12.4" font-family="Times,serif" font-size="14.00">CommunesController</text>
</g>
<!-- ApplicationController&#45;&gt;CommunesController -->
<g id="edge2" class="edge"><title>ApplicationController&#45;&gt;CommunesController</title>
<path fill="none" stroke="black" d="M821.41,-347.323C852.704,-318.94 909.994,-259.529 924.413,-193.846 937.02,-136.413 912.201,-67.9371 898.347,-36.028"/>
</g>
<!-- CompaniesController -->
<g id="node5" class="node"><title>CompaniesController</title>
<ellipse fill="none" stroke="black" cx="586.95" cy="-692.641" rx="94.3633" ry="18"/>
<text text-anchor="middle" x="586.95" y="-687.041" font-family="Times,serif" font-size="14.00">CompaniesController</text>
</g>
<!-- ApplicationController&#45;&gt;CompaniesController -->
<g id="edge3" class="edge"><title>ApplicationController&#45;&gt;CompaniesController</title>
<path fill="none" stroke="black" d="M790.815,-383.086C778.187,-405.965 755.462,-446.321 734.236,-479.801 687.318,-553.807 626.419,-638.563 600.061,-674.752"/>
</g>
<!-- ContainersController -->
<g id="node6" class="node"><title>ContainersController</title>
<ellipse fill="none" stroke="black" cx="1147.84" cy="-458.392" rx="92.6377" ry="18"/>
<text text-anchor="middle" x="1147.84" y="-452.792" font-family="Times,serif" font-size="14.00">ContainersController</text>
</g>
<!-- ApplicationController&#45;&gt;ContainersController -->
<g id="edge4" class="edge"><title>ApplicationController&#45;&gt;ContainersController</title>
<path fill="none" stroke="black" d="M855.74,-379.721C920.828,-397.251 1028.53,-426.259 1093.38,-443.726"/>
</g>
<!-- DestinationsController -->
<g id="node7" class="node"><title>DestinationsController</title>
<ellipse fill="none" stroke="black" cx="425.397" cy="-462.862" rx="99.0199" ry="18"/>
<text text-anchor="middle" x="425.397" y="-457.262" font-family="Times,serif" font-size="14.00">DestinationsController</text>
</g>
<!-- ApplicationController&#45;&gt;DestinationsController -->
<g id="edge5" class="edge"><title>ApplicationController&#45;&gt;DestinationsController</title>
<path fill="none" stroke="black" d="M744.548,-379.572C673.89,-398.012 553.264,-429.492 482.282,-448.016"/>
</g>
<!-- DispatchesController -->
<g id="node8" class="node"><title>DispatchesController</title>
<ellipse fill="none" stroke="black" cx="427.319" cy="-26.1579" rx="93.2035" ry="18"/>
<text text-anchor="middle" x="427.319" y="-20.5579" font-family="Times,serif" font-size="14.00">DispatchesController</text>
</g>
<!-- ApplicationController&#45;&gt;DispatchesController -->
<g id="edge6" class="edge"><title>ApplicationController&#45;&gt;DispatchesController</title>
<path fill="none" stroke="black" d="M781.19,-347.172C716.811,-288.771 511.878,-102.866 447.127,-44.1267"/>
</g>
<!-- GroupingsController -->
<g id="node9" class="node"><title>GroupingsController</title>
<ellipse fill="none" stroke="black" cx="1196.89" cy="-244.873" rx="91.5064" ry="18"/>
<text text-anchor="middle" x="1196.89" y="-239.273" font-family="Times,serif" font-size="14.00">GroupingsController</text>
</g>
<!-- ApplicationController&#45;&gt;GroupingsController -->
<g id="edge7" class="edge"><title>ApplicationController&#45;&gt;GroupingsController</title>
<path fill="none" stroke="black" d="M851.315,-349.583C927.553,-326.483 1071.05,-283.002 1146.92,-260.011"/>
</g>
<!-- KindsController -->
<g id="node10" class="node"><title>KindsController</title>
<ellipse fill="none" stroke="black" cx="656.555" cy="-23.5644" rx="73.6044" ry="18"/>
<text text-anchor="middle" x="656.555" y="-17.9644" font-family="Times,serif" font-size="14.00">KindsController</text>
</g>
<!-- ApplicationController&#45;&gt;KindsController -->
<g id="edge8" class="edge"><title>ApplicationController&#45;&gt;KindsController</title>
<path fill="none" stroke="black" d="M775.901,-347.383C739.201,-319.72 672.235,-261.991 648.12,-193.634 629.531,-140.944 642.987,-73.3562 651.304,-41.5872"/>
</g>
<!-- LocalitiesController -->
<g id="node11" class="node"><title>LocalitiesController</title>
<ellipse fill="none" stroke="black" cx="1120.89" cy="-24.2174" rx="88.6125" ry="18"/>
<text text-anchor="middle" x="1120.89" y="-18.6174" font-family="Times,serif" font-size="14.00">LocalitiesController</text>
</g>
<!-- ApplicationController&#45;&gt;LocalitiesController -->
<g id="edge9" class="edge"><title>ApplicationController&#45;&gt;LocalitiesController</title>
<path fill="none" stroke="black" d="M817.185,-347.089C836.456,-326.23 869.378,-290.665 897.835,-260.276 974.529,-178.374 1066.77,-81.1623 1104.05,-41.9333"/>
</g>
<!-- PackGroupDispatchesController -->
<g id="node12" class="node"><title>PackGroupDispatchesController</title>
<ellipse fill="none" stroke="black" cx="786.266" cy="-193.74" rx="136.597" ry="18"/>
<text text-anchor="middle" x="786.266" y="-188.14" font-family="Times,serif" font-size="14.00">PackGroupDispatchesController</text>
</g>
<!-- ApplicationController&#45;&gt;PackGroupDispatchesController -->
<g id="edge10" class="edge"><title>ApplicationController&#45;&gt;PackGroupDispatchesController</title>
<path fill="none" stroke="black" d="M799.192,-346.59C796.406,-313.645 790.582,-244.775 787.804,-211.926"/>
</g>
<!-- PackGroupReceiptsController -->
<g id="node13" class="node"><title>PackGroupReceiptsController</title>
<ellipse fill="none" stroke="black" cx="127.429" cy="-365.135" rx="127.358" ry="18"/>
<text text-anchor="middle" x="127.429" y="-359.535" font-family="Times,serif" font-size="14.00">PackGroupReceiptsController</text>
</g>
<!-- ApplicationController&#45;&gt;PackGroupReceiptsController -->
<g id="edge11" class="edge"><title>ApplicationController&#45;&gt;PackGroupReceiptsController</title>
<path fill="none" stroke="black" d="M704.272,-364.94C586.184,-364.98 385.829,-365.048 255.074,-365.092"/>
</g>
<!-- PackTypesController -->
<g id="node14" class="node"><title>PackTypesController</title>
<ellipse fill="none" stroke="black" cx="1428.52" cy="-370.299" rx="92.3548" ry="18"/>
<text text-anchor="middle" x="1428.52" y="-364.699" font-family="Times,serif" font-size="14.00">PackTypesController</text>
</g>
<!-- ApplicationController&#45;&gt;PackTypesController -->
<g id="edge12" class="edge"><title>ApplicationController&#45;&gt;PackTypesController</title>
<path fill="none" stroke="black" d="M897.113,-365.735C1016.47,-366.76 1218.36,-368.494 1335.94,-369.504"/>
</g>
<!-- PalletsController -->
<g id="node15" class="node"><title>PalletsController</title>
<ellipse fill="none" stroke="black" cx="1416.44" cy="-662.128" rx="76.4605" ry="18"/>
<text text-anchor="middle" x="1416.44" y="-656.528" font-family="Times,serif" font-size="14.00">PalletsController</text>
</g>
<!-- ApplicationController&#45;&gt;PalletsController -->
<g id="edge13" class="edge"><title>ApplicationController&#45;&gt;PalletsController</title>
<path fill="none" stroke="black" d="M835.608,-381.739C944.233,-434.176 1275.66,-594.169 1382.72,-645.846"/>
</g>
<!-- ProducersController -->
<g id="node16" class="node"><title>ProducersController</title>
<ellipse fill="none" stroke="black" cx="949.053" cy="-705.258" rx="89.1968" ry="18"/>
<text text-anchor="middle" x="949.053" y="-699.658" font-family="Times,serif" font-size="14.00">ProducersController</text>
</g>
<!-- ApplicationController&#45;&gt;ProducersController -->
<g id="edge14" class="edge"><title>ApplicationController&#45;&gt;ProducersController</title>
<path fill="none" stroke="black" d="M808.715,-383.206C834.527,-442.44 915.61,-628.511 941.22,-687.282"/>
</g>
<!-- QualitiesController -->
<g id="node17" class="node"><title>QualitiesController</title>
<ellipse fill="none" stroke="black" cx="985.03" cy="-260.293" rx="85.6899" ry="18"/>
<text text-anchor="middle" x="985.03" y="-254.693" font-family="Times,serif" font-size="14.00">QualitiesController</text>
</g>
<!-- ApplicationController&#45;&gt;QualitiesController -->
<g id="edge15" class="edge"><title>ApplicationController&#45;&gt;QualitiesController</title>
<path fill="none" stroke="black" d="M831.172,-347.633C865.523,-328.133 921.049,-296.613 955.165,-277.247"/>
</g>
<!-- ReceiptsController -->
<g id="node18" class="node"><title>ReceiptsController</title>
<ellipse fill="none" stroke="black" cx="1416.02" cy="-60.4152" rx="83.9646" ry="18"/>
<text text-anchor="middle" x="1416.02" y="-54.8152" font-family="Times,serif" font-size="14.00">ReceiptsController</text>
</g>
<!-- ApplicationController&#45;&gt;ReceiptsController -->
<g id="edge16" class="edge"><title>ApplicationController&#45;&gt;ReceiptsController</title>
<path fill="none" stroke="black" d="M849.152,-349.324C899.339,-332.642 979.676,-304.455 1046.63,-274.165 1081.99,-258.17 1306.86,-125.203 1387.39,-77.427"/>
</g>
<!-- RegionsController -->
<g id="node19" class="node"><title>RegionsController</title>
<ellipse fill="none" stroke="black" cx="381.632" cy="-692.639" rx="82.2677" ry="18"/>
<text text-anchor="middle" x="381.632" y="-687.039" font-family="Times,serif" font-size="14.00">RegionsController</text>
</g>
<!-- ApplicationController&#45;&gt;RegionsController -->
<g id="edge17" class="edge"><title>ApplicationController&#45;&gt;RegionsController</title>
<path fill="none" stroke="black" d="M766.49,-381.791C727.563,-401.21 662.341,-434.448 607.707,-465.718 509.731,-521.796 424.983,-631.626 394.091,-674.698"/>
</g>
<!-- RightAccessesController -->
<g id="node20" class="node"><title>RightAccessesController</title>
<ellipse fill="none" stroke="black" cx="123.983" cy="-655.816" rx="107.674" ry="18"/>
<text text-anchor="middle" x="123.983" y="-650.216" font-family="Times,serif" font-size="14.00">RightAccessesController</text>
</g>
<!-- ApplicationController&#45;&gt;RightAccessesController -->
<g id="edge18" class="edge"><title>ApplicationController&#45;&gt;RightAccessesController</title>
<path fill="none" stroke="black" d="M761.925,-381.593C642.698,-432.843 282.646,-587.614 163.064,-639.017"/>
</g>
<!-- RolesController -->
<g id="node21" class="node"><title>RolesController</title>
<ellipse fill="none" stroke="black" cx="659.911" cy="-479.67" rx="72.9544" ry="18"/>
<text text-anchor="middle" x="659.911" y="-474.07" font-family="Times,serif" font-size="14.00">RolesController</text>
</g>
<!-- ApplicationController&#45;&gt;RolesController -->
<g id="edge19" class="edge"><title>ApplicationController&#45;&gt;RolesController</title>
<path fill="none" stroke="black" d="M779.045,-382.588C752.503,-404.217 707.848,-440.606 681.4,-462.158"/>
</g>
<!-- SeasonsController -->
<g id="node22" class="node"><title>SeasonsController</title>
<ellipse fill="none" stroke="black" cx="593.685" cy="-267.314" rx="81.6928" ry="18"/>
<text text-anchor="middle" x="593.685" y="-261.714" font-family="Times,serif" font-size="14.00">SeasonsController</text>
</g>
<!-- ApplicationController&#45;&gt;SeasonsController -->
<g id="edge20" class="edge"><title>ApplicationController&#45;&gt;SeasonsController</title>
<path fill="none" stroke="black" d="M765.147,-348.131C726.875,-330.092 666.426,-301.6 628.47,-283.71"/>
</g>
<!-- SettingsController -->
<g id="node23" class="node"><title>SettingsController</title>
<ellipse fill="none" stroke="black" cx="375.774" cy="-251.524" rx="81.7022" ry="18"/>
<text text-anchor="middle" x="375.774" y="-245.924" font-family="Times,serif" font-size="14.00">SettingsController</text>
</g>
<!-- ApplicationController&#45;&gt;SettingsController -->
<g id="edge21" class="edge"><title>ApplicationController&#45;&gt;SettingsController</title>
<path fill="none" stroke="black" d="M745.184,-350.085C662.615,-328.055 508.614,-286.966 428.01,-265.46"/>
</g>
<!-- StartController -->
<g id="node24" class="node"><title>StartController</title>
<ellipse fill="none" stroke="black" cx="926.673" cy="-491.761" rx="68.9375" ry="18"/>
<text text-anchor="middle" x="926.673" y="-486.161" font-family="Times,serif" font-size="14.00">StartController</text>
</g>
<!-- ApplicationController&#45;&gt;StartController -->
<g id="edge22" class="edge"><title>ApplicationController&#45;&gt;StartController</title>
<path fill="none" stroke="black" d="M818.517,-382.814C842.518,-406.99 885.033,-449.817 908.987,-473.946"/>
</g>
<!-- UsersController -->
<g id="node25" class="node"><title>UsersController</title>
<ellipse fill="none" stroke="black" cx="1151.73" cy="-691.075" rx="72.9449" ry="18"/>
<text text-anchor="middle" x="1151.73" y="-685.475" font-family="Times,serif" font-size="14.00">UsersController</text>
</g>
<!-- ApplicationController&#45;&gt;UsersController -->
<g id="edge23" class="edge"><title>ApplicationController&#45;&gt;UsersController</title>
<path fill="none" stroke="black" d="M834.605,-381.872C875.956,-403.635 946.627,-444.303 997.241,-491.862 1059.76,-550.604 1117.11,-636.172 1140.55,-673.056"/>
</g>
<!-- VarietiesController -->
<g id="node26" class="node"><title>VarietiesController</title>
<ellipse fill="none" stroke="black" cx="769.917" cy="-683.985" rx="84.5302" ry="18"/>
<text text-anchor="middle" x="769.917" y="-678.385" font-family="Times,serif" font-size="14.00">VarietiesController</text>
</g>
<!-- ApplicationController&#45;&gt;VarietiesController -->
<g id="edge24" class="edge"><title>ApplicationController&#45;&gt;VarietiesController</title>
<path fill="none" stroke="black" d="M798.995,-382.977C793.583,-439.006 777.12,-609.421 771.682,-665.718"/>
</g>
</g>
</svg>
