<?xml version="1.0" encoding="UTF-8" standalone="no"?>
<!DOCTYPE svg PUBLIC "-//W3C//DTD SVG 1.1//EN"
 "http://www.w3.org/Graphics/SVG/1.1/DTD/svg11.dtd">
<!-- Generated by graphviz version 2.30.1 (20130524.0532)
 -->
<!-- Title: controllers_diagram Pages: 1 -->
<svg width="1430pt" height="985pt"
 viewBox="0.00 0.00 1430.38 985.00" xmlns="http://www.w3.org/2000/svg" xmlns:xlink="http://www.w3.org/1999/xlink">
<g id="graph0" class="graph" transform="scale(1 1) rotate(0) translate(4 981)">
<title>controllers_diagram</title>
<polygon fill="white" stroke="white" points="-4,5 -4,-981 1427.38,-981 1427.38,5 -4,5"/>
<!-- _diagram_info -->
<g id="node1" class="node"><title>_diagram_info</title>
<text text-anchor="start" x="1223" y="-960" font-family="Times,serif" font-size="13.00">Controllers diagram</text>
<text text-anchor="start" x="1223" y="-944.4" font-family="Times,serif" font-size="13.00">Date: May 25 2013 &#45; 16:29</text>
<text text-anchor="start" x="1223" y="-928.8" font-family="Times,serif" font-size="13.00">Migration version: 20130525200207</text>
<text text-anchor="start" x="1223" y="-913.2" font-family="Times,serif" font-size="13.00">Generated by RailRoady 1.1.0</text>
<text text-anchor="start" x="1223" y="-897.6" font-family="Times,serif" font-size="13.00">http://railroady.prestonlee.com</text>
</g>
<!-- AccessRightsController -->
<g id="node2" class="node"><title>AccessRightsController</title>
<ellipse fill="none" stroke="black" cx="110.271" cy="-74.042" rx="103.102" ry="18"/>
<text text-anchor="middle" x="110.271" y="-68.442" font-family="Times,serif" font-size="14.00">AccessRightsController</text>
</g>
<!-- ApplicationController -->
<g id="node3" class="node"><title>ApplicationController</title>
<ellipse fill="none" stroke="black" cx="740.298" cy="-366.232" rx="96.1448" ry="18"/>
<text text-anchor="middle" x="740.298" y="-360.632" font-family="Times,serif" font-size="14.00">ApplicationController</text>
</g>
<!-- ApplicationController&#45;&gt;AccessRightsController -->
<g id="edge1" class="edge"><title>ApplicationController&#45;&gt;AccessRightsController</title>
<path fill="none" stroke="black" d="M704.163,-349.473C593.168,-297.997 257.979,-142.545 146.653,-90.9152"/>
</g>
<!-- CommunesController -->
<g id="node4" class="node"><title>CommunesController</title>
<ellipse fill="none" stroke="black" cx="686.826" cy="-18" rx="94.948" ry="18"/>
<text text-anchor="middle" x="686.826" y="-12.4" font-family="Times,serif" font-size="14.00">CommunesController</text>
</g>
<!-- ApplicationController&#45;&gt;CommunesController -->
<g id="edge2" class="edge"><title>ApplicationController&#45;&gt;CommunesController</title>
<path fill="none" stroke="black" d="M727.858,-348.01C708.422,-318.087 672.161,-255.945 663.353,-196.844 654.606,-138.149 671.67,-68.3531 681.126,-36.0526"/>
</g>
<!-- CompaniesController -->
<g id="node5" class="node"><title>CompaniesController</title>
<ellipse fill="none" stroke="black" cx="583.467" cy="-741.23" rx="94.3633" ry="18"/>
<text text-anchor="middle" x="583.467" y="-735.63" font-family="Times,serif" font-size="14.00">CompaniesController</text>
</g>
<!-- ApplicationController&#45;&gt;CompaniesController -->
<g id="edge3" class="edge"><title>ApplicationController&#45;&gt;CompaniesController</title>
<path fill="none" stroke="black" d="M738.606,-384.467C735.073,-417.675 725.3,-489.807 702.882,-546.378 675.036,-616.644 622.507,-690.232 597.45,-723.289"/>
</g>
<!-- ContainersController -->
<g id="node6" class="node"><title>ContainersController</title>
<ellipse fill="none" stroke="black" cx="1048.74" cy="-487.487" rx="92.6377" ry="18"/>
<text text-anchor="middle" x="1048.74" y="-481.887" font-family="Times,serif" font-size="14.00">ContainersController</text>
</g>
<!-- ApplicationController&#45;&gt;ContainersController -->
<g id="edge4" class="edge"><title>ApplicationController&#45;&gt;ContainersController</title>
<path fill="none" stroke="black" d="M781.896,-382.585C840.928,-405.792 948.368,-448.029 1007.31,-471.2"/>
</g>
<!-- DestinationsController -->
<g id="node7" class="node"><title>DestinationsController</title>
<ellipse fill="none" stroke="black" cx="355.877" cy="-505.727" rx="99.0199" ry="18"/>
<text text-anchor="middle" x="355.877" y="-500.127" font-family="Times,serif" font-size="14.00">DestinationsController</text>
</g>
<!-- ApplicationController&#45;&gt;DestinationsController -->
<g id="edge5" class="edge"><title>ApplicationController&#45;&gt;DestinationsController</title>
<path fill="none" stroke="black" d="M695.825,-382.37C621.809,-409.228 474.193,-462.793 400.246,-489.626"/>
</g>
<!-- DispatchesController -->
<g id="node8" class="node"><title>DispatchesController</title>
<ellipse fill="none" stroke="black" cx="412.26" cy="-32.7623" rx="93.2035" ry="18"/>
<text text-anchor="middle" x="412.26" y="-27.1623" font-family="Times,serif" font-size="14.00">DispatchesController</text>
</g>
<!-- ApplicationController&#45;&gt;DispatchesController -->
<g id="edge6" class="edge"><title>ApplicationController&#45;&gt;DispatchesController</title>
<path fill="none" stroke="black" d="M733.517,-347.912C721.248,-316.511 692.97,-251.511 653.948,-207.157 591.402,-136.065 494.775,-77.4962 444.752,-49.8747"/>
</g>
<!-- GroupingsController -->
<g id="node9" class="node"><title>GroupingsController</title>
<ellipse fill="none" stroke="black" cx="1265.24" cy="-268.511" rx="91.5064" ry="18"/>
<text text-anchor="middle" x="1265.24" y="-262.911" font-family="Times,serif" font-size="14.00">GroupingsController</text>
</g>
<!-- ApplicationController&#45;&gt;GroupingsController -->
<g id="edge7" class="edge"><title>ApplicationController&#45;&gt;GroupingsController</title>
<path fill="none" stroke="black" d="M808.656,-353.507C909.865,-334.667 1098.38,-299.574 1198.59,-280.918"/>
</g>
<!-- KindsController -->
<g id="node10" class="node"><title>KindsController</title>
<ellipse fill="none" stroke="black" cx="578.546" cy="-207.063" rx="73.6044" ry="18"/>
<text text-anchor="middle" x="578.546" y="-201.463" font-family="Times,serif" font-size="14.00">KindsController</text>
</g>
<!-- ApplicationController&#45;&gt;KindsController -->
<g id="edge8" class="edge"><title>ApplicationController&#45;&gt;KindsController</title>
<path fill="none" stroke="black" d="M722.058,-348.283C690.827,-317.551 627.488,-255.224 596.474,-224.704"/>
</g>
<!-- PackGroupDispatchesController -->
<g id="node11" class="node"><title>PackGroupDispatchesController</title>
<ellipse fill="none" stroke="black" cx="965.695" cy="-37.6242" rx="136.597" ry="18"/>
<text text-anchor="middle" x="965.695" y="-32.0242" font-family="Times,serif" font-size="14.00">PackGroupDispatchesController</text>
</g>
<!-- ApplicationController&#45;&gt;PackGroupDispatchesController -->
<g id="edge9" class="edge"><title>ApplicationController&#45;&gt;PackGroupDispatchesController</title>
<path fill="none" stroke="black" d="M766.77,-348.804C806.394,-321.329 880.801,-264.132 921.4,-197.212 949.439,-150.995 960.184,-86.5926 963.914,-55.6396"/>
</g>
<!-- PackGroupReceiptsController -->
<g id="node12" class="node"><title>PackGroupReceiptsController</title>
<ellipse fill="none" stroke="black" cx="792.377" cy="-197.028" rx="127.358" ry="18"/>
<text text-anchor="middle" x="792.377" y="-191.428" font-family="Times,serif" font-size="14.00">PackGroupReceiptsController</text>
</g>
<!-- ApplicationController&#45;&gt;PackGroupReceiptsController -->
<g id="edge10" class="edge"><title>ApplicationController&#45;&gt;PackGroupReceiptsController</title>
<path fill="none" stroke="black" d="M745.872,-348.124C755.869,-315.643 776.74,-247.834 786.765,-215.261"/>
</g>
<!-- PackTypesController -->
<g id="node13" class="node"><title>PackTypesController</title>
<ellipse fill="none" stroke="black" cx="92.4274" cy="-384.508" rx="92.3548" ry="18"/>
<text text-anchor="middle" x="92.4274" y="-378.908" font-family="Times,serif" font-size="14.00">PackTypesController</text>
</g>
<!-- ApplicationController&#45;&gt;PackTypesController -->
<g id="edge11" class="edge"><title>ApplicationController&#45;&gt;PackTypesController</title>
<path fill="none" stroke="black" d="M643.849,-365.55C610.201,-365.519 572.191,-365.715 537.523,-366.436 414.197,-369.001 271.766,-375.385 181.911,-379.834"/>
</g>
<!-- PalletsController -->
<g id="node14" class="node"><title>PalletsController</title>
<ellipse fill="none" stroke="black" cx="1305.09" cy="-485.699" rx="76.4605" ry="18"/>
<text text-anchor="middle" x="1305.09" y="-480.099" font-family="Times,serif" font-size="14.00">PalletsController</text>
</g>
<!-- ApplicationController&#45;&gt;PalletsController -->
<g id="edge12" class="edge"><title>ApplicationController&#45;&gt;PalletsController</title>
<path fill="none" stroke="black" d="M804.263,-379.762C915.31,-403.251 1142.02,-451.206 1248.05,-473.633"/>
</g>
<!-- ProducersController -->
<g id="node15" class="node"><title>ProducersController</title>
<ellipse fill="none" stroke="black" cx="1273.42" cy="-725.037" rx="89.1968" ry="18"/>
<text text-anchor="middle" x="1273.42" y="-719.437" font-family="Times,serif" font-size="14.00">ProducersController</text>
</g>
<!-- ApplicationController&#45;&gt;ProducersController -->
<g id="edge13" class="edge"><title>ApplicationController&#45;&gt;ProducersController</title>
<path fill="none" stroke="black" d="M766.373,-383.781C856.997,-444.773 1157.65,-647.118 1247.71,-707.732"/>
</g>
<!-- QualitiesController -->
<g id="node16" class="node"><title>QualitiesController</title>
<ellipse fill="none" stroke="black" cx="781.216" cy="-733.483" rx="85.6899" ry="18"/>
<text text-anchor="middle" x="781.216" y="-727.883" font-family="Times,serif" font-size="14.00">QualitiesController</text>
</g>
<!-- ApplicationController&#45;&gt;QualitiesController -->
<g id="edge14" class="edge"><title>ApplicationController&#45;&gt;QualitiesController</title>
<path fill="none" stroke="black" d="M742.328,-384.444C749.294,-446.969 772.19,-652.469 779.175,-715.161"/>
</g>
<!-- ReceiptsController -->
<g id="node17" class="node"><title>ReceiptsController</title>
<ellipse fill="none" stroke="black" cx="988.382" cy="-275.907" rx="83.9646" ry="18"/>
<text text-anchor="middle" x="988.382" y="-270.307" font-family="Times,serif" font-size="14.00">ReceiptsController</text>
</g>
<!-- ApplicationController&#45;&gt;ReceiptsController -->
<g id="edge15" class="edge"><title>ApplicationController&#45;&gt;ReceiptsController</title>
<path fill="none" stroke="black" d="M784.365,-350.188C829.896,-333.611 900.487,-307.909 945.556,-291.5"/>
</g>
<!-- RegionsController -->
<g id="node18" class="node"><title>RegionsController</title>
<ellipse fill="none" stroke="black" cx="1267.65" cy="-44.3699" rx="82.2677" ry="18"/>
<text text-anchor="middle" x="1267.65" y="-38.7699" font-family="Times,serif" font-size="14.00">RegionsController</text>
</g>
<!-- ApplicationController&#45;&gt;RegionsController -->
<g id="edge16" class="edge"><title>ApplicationController&#45;&gt;RegionsController</title>
<path fill="none" stroke="black" d="M768.651,-348.928C860.43,-292.911 1148.73,-116.948 1239.79,-61.3696"/>
</g>
<!-- RightAccessesController -->
<g id="node19" class="node"><title>RightAccessesController</title>
<ellipse fill="none" stroke="black" cx="368.527" cy="-732.298" rx="107.674" ry="18"/>
<text text-anchor="middle" x="368.527" y="-726.698" font-family="Times,serif" font-size="14.00">RightAccessesController</text>
</g>
<!-- ApplicationController&#45;&gt;RightAccessesController -->
<g id="edge17" class="edge"><title>ApplicationController&#45;&gt;RightAccessesController</title>
<path fill="none" stroke="black" d="M718.687,-383.836C680.585,-415.18 599.484,-483.281 535.994,-546.102 476.655,-604.814 412.124,-680.194 383.567,-714.214"/>
</g>
<!-- RolesController -->
<g id="node20" class="node"><title>RolesController</title>
<ellipse fill="none" stroke="black" cx="100.607" cy="-692.754" rx="72.9544" ry="18"/>
<text text-anchor="middle" x="100.607" y="-687.154" font-family="Times,serif" font-size="14.00">RolesController</text>
</g>
<!-- ApplicationController&#45;&gt;RolesController -->
<g id="edge18" class="edge"><title>ApplicationController&#45;&gt;RolesController</title>
<path fill="none" stroke="black" d="M706.807,-383.328C595.88,-439.949 241.362,-620.908 132.625,-676.411"/>
</g>
<!-- SeasonsController -->
<g id="node21" class="node"><title>SeasonsController</title>
<ellipse fill="none" stroke="black" cx="619.438" cy="-546.24" rx="81.6928" ry="18"/>
<text text-anchor="middle" x="619.438" y="-540.64" font-family="Times,serif" font-size="14.00">SeasonsController</text>
</g>
<!-- ApplicationController&#45;&gt;SeasonsController -->
<g id="edge19" class="edge"><title>ApplicationController&#45;&gt;SeasonsController</title>
<path fill="none" stroke="black" d="M728.268,-384.15C705.101,-418.654 654.548,-493.948 631.42,-528.394"/>
</g>
<!-- SettingsController -->
<g id="node22" class="node"><title>SettingsController</title>
<ellipse fill="none" stroke="black" cx="536.889" cy="-386.036" rx="81.7022" ry="18"/>
<text text-anchor="middle" x="536.889" y="-380.436" font-family="Times,serif" font-size="14.00">SettingsController</text>
</g>
<!-- ApplicationController&#45;&gt;SettingsController -->
<g id="edge20" class="edge"><title>ApplicationController&#45;&gt;SettingsController</title>
<path fill="none" stroke="black" d="M654.624,-374.573C640.401,-375.958 625.748,-377.385 611.817,-378.741"/>
</g>
<!-- StartController -->
<g id="node23" class="node"><title>StartController</title>
<ellipse fill="none" stroke="black" cx="341.369" cy="-264.623" rx="68.9375" ry="18"/>
<text text-anchor="middle" x="341.369" y="-259.023" font-family="Times,serif" font-size="14.00">StartController</text>
</g>
<!-- ApplicationController&#45;&gt;StartController -->
<g id="edge21" class="edge"><title>ApplicationController&#45;&gt;StartController</title>
<path fill="none" stroke="black" d="M683.142,-351.674C604.72,-331.7 465.061,-296.128 390.874,-277.232"/>
</g>
<!-- UsersController -->
<g id="node24" class="node"><title>UsersController</title>
<ellipse fill="none" stroke="black" cx="838.842" cy="-515.527" rx="72.9449" ry="18"/>
<text text-anchor="middle" x="838.842" y="-509.927" font-family="Times,serif" font-size="14.00">UsersController</text>
</g>
<!-- ApplicationController&#45;&gt;UsersController -->
<g id="edge22" class="edge"><title>ApplicationController&#45;&gt;UsersController</title>
<path fill="none" stroke="black" d="M752.185,-384.241C771.126,-412.936 807.946,-468.719 826.914,-497.455"/>
</g>
<!-- VarietiesController -->
<g id="node25" class="node"><title>VarietiesController</title>
<ellipse fill="none" stroke="black" cx="998.625" cy="-726.683" rx="84.5302" ry="18"/>
<text text-anchor="middle" x="998.625" y="-721.083" font-family="Times,serif" font-size="14.00">VarietiesController</text>
</g>
<!-- ApplicationController&#45;&gt;VarietiesController -->
<g id="edge23" class="edge"><title>ApplicationController&#45;&gt;VarietiesController</title>
<path fill="none" stroke="black" d="M767.529,-383.615C804.92,-408.706 872.172,-458.398 913.163,-515.646 958.613,-579.121 984.801,-670.263 994.396,-708.603"/>
</g>
</g>
</svg>
