<?xml version="1.0" encoding="UTF-8" standalone="no"?>
<!DOCTYPE svg PUBLIC "-//W3C//DTD SVG 1.1//EN"
 "http://www.w3.org/Graphics/SVG/1.1/DTD/svg11.dtd">
<!-- Generated by graphviz version 2.30.1 (20130524.0532)
 -->
<!-- Title: models_diagram Pages: 1 -->
<svg width="1218pt" height="1350pt"
 viewBox="0.00 0.00 1218.00 1350.00" xmlns="http://www.w3.org/2000/svg" xmlns:xlink="http://www.w3.org/1999/xlink">
<g id="graph0" class="graph" transform="scale(1 1) rotate(0) translate(4 1346)">
<title>models_diagram</title>
<polygon fill="white" stroke="white" points="-4,5 -4,-1346 1215,-1346 1215,5 -4,5"/>
<!-- _diagram_info -->
<g id="node1" class="node"><title>_diagram_info</title>
<text text-anchor="start" x="150.312" y="-1300" font-family="Times,serif" font-size="13.00">Models diagram</text>
<text text-anchor="start" x="150.312" y="-1284.4" font-family="Times,serif" font-size="13.00">Date: May 25 2013 &#45; 16:29</text>
<text text-anchor="start" x="150.312" y="-1268.8" font-family="Times,serif" font-size="13.00">Migration version: 20130525200207</text>
<text text-anchor="start" x="150.312" y="-1253.2" font-family="Times,serif" font-size="13.00">Generated by RailRoady 1.1.0</text>
<text text-anchor="start" x="150.312" y="-1237.6" font-family="Times,serif" font-size="13.00">http://railroady.prestonlee.com</text>
</g>
<!-- Ability -->
<g id="node2" class="node"><title>Ability</title>
<polygon fill="none" stroke="black" points="368.166,-1249.2 368.166,-1298.8 423.834,-1298.8 423.834,-1249.2 368.166,-1249.2"/>
<text text-anchor="middle" x="396" y="-1280.8" font-family="Times,serif" font-size="14.00">Ability</text>
<polyline fill="none" stroke="black" points="368.166,-1274 423.834,-1274 "/>
<text text-anchor="middle" x="396" y="-1256" font-family="Times,serif" font-size="14.00"> </text>
</g>
<!-- AccessRight -->
<g id="node3" class="node"><title>AccessRight</title>
<path fill="none" stroke="black" d="M11.4946,-441.2C11.4946,-441.2 120.505,-441.2 120.505,-441.2 126.505,-441.2 132.505,-447.2 132.505,-453.2 132.505,-453.2 132.505,-562.8 132.505,-562.8 132.505,-568.8 126.505,-574.8 120.505,-574.8 120.505,-574.8 11.4946,-574.8 11.4946,-574.8 5.49463,-574.8 -0.505371,-568.8 -0.505371,-562.8 -0.505371,-562.8 -0.505371,-453.2 -0.505371,-453.2 -0.505371,-447.2 5.49463,-441.2 11.4946,-441.2"/>
<text text-anchor="middle" x="66" y="-556.8" font-family="Times,serif" font-size="14.00">AccessRight</text>
<polyline fill="none" stroke="black" points="-0.505371,-550 132.505,-550 "/>
<text text-anchor="start" x="7.49463" y="-532" font-family="Times,serif" font-size="14.00">id :integer</text>
<text text-anchor="start" x="7.49463" y="-515.2" font-family="Times,serif" font-size="14.00">model_name :string</text>
<text text-anchor="start" x="7.49463" y="-498.4" font-family="Times,serif" font-size="14.00">created_at :datetime</text>
<text text-anchor="start" x="7.49463" y="-481.6" font-family="Times,serif" font-size="14.00">updated_at :datetime</text>
<text text-anchor="start" x="7.49463" y="-464.8" font-family="Times,serif" font-size="14.00">role_id :integer</text>
<text text-anchor="start" x="7.49463" y="-448" font-family="Times,serif" font-size="14.00">action :string</text>
</g>
<!-- Commune -->
<g id="node4" class="node"><title>Commune</title>
<path fill="none" stroke="black" d="M500.495,-1052.6C500.495,-1052.6 609.505,-1052.6 609.505,-1052.6 615.505,-1052.6 621.505,-1058.6 621.505,-1064.6 621.505,-1064.6 621.505,-1157.4 621.505,-1157.4 621.505,-1163.4 615.505,-1169.4 609.505,-1169.4 609.505,-1169.4 500.495,-1169.4 500.495,-1169.4 494.495,-1169.4 488.495,-1163.4 488.495,-1157.4 488.495,-1157.4 488.495,-1064.6 488.495,-1064.6 488.495,-1058.6 494.495,-1052.6 500.495,-1052.6"/>
<text text-anchor="middle" x="555" y="-1151.4" font-family="Times,serif" font-size="14.00">Commune</text>
<polyline fill="none" stroke="black" points="488.495,-1144.6 621.505,-1144.6 "/>
<text text-anchor="start" x="496.495" y="-1126.6" font-family="Times,serif" font-size="14.00">id :integer</text>
<text text-anchor="start" x="496.495" y="-1109.8" font-family="Times,serif" font-size="14.00">name :string</text>
<text text-anchor="start" x="496.495" y="-1093" font-family="Times,serif" font-size="14.00">region_id :integer</text>
<text text-anchor="start" x="496.495" y="-1076.2" font-family="Times,serif" font-size="14.00">created_at :datetime</text>
<text text-anchor="start" x="496.495" y="-1059.4" font-family="Times,serif" font-size="14.00">updated_at :datetime</text>
</g>
<!-- Producer -->
<g id="node15" class="node"><title>Producer</title>
<path fill="none" stroke="black" d="M756.309,-747C756.309,-747 881.691,-747 881.691,-747 887.691,-747 893.691,-753 893.691,-759 893.691,-759 893.691,-1003 893.691,-1003 893.691,-1009 887.691,-1015 881.691,-1015 881.691,-1015 756.309,-1015 756.309,-1015 750.309,-1015 744.309,-1009 744.309,-1003 744.309,-1003 744.309,-759 744.309,-759 744.309,-753 750.309,-747 756.309,-747"/>
<text text-anchor="middle" x="819" y="-997" font-family="Times,serif" font-size="14.00">Producer</text>
<polyline fill="none" stroke="black" points="744.309,-990.2 893.691,-990.2 "/>
<text text-anchor="start" x="752.309" y="-972.2" font-family="Times,serif" font-size="14.00">id :integer</text>
<text text-anchor="start" x="752.309" y="-955.4" font-family="Times,serif" font-size="14.00">rut :string</text>
<text text-anchor="start" x="752.309" y="-938.6" font-family="Times,serif" font-size="14.00">company_name :string</text>
<text text-anchor="start" x="752.309" y="-921.8" font-family="Times,serif" font-size="14.00">line_of_business :string</text>
<text text-anchor="start" x="752.309" y="-905" font-family="Times,serif" font-size="14.00">commune_id :integer</text>
<text text-anchor="start" x="752.309" y="-888.2" font-family="Times,serif" font-size="14.00">address :string</text>
<text text-anchor="start" x="752.309" y="-871.4" font-family="Times,serif" font-size="14.00">email :string</text>
<text text-anchor="start" x="752.309" y="-854.6" font-family="Times,serif" font-size="14.00">phone :string</text>
<text text-anchor="start" x="752.309" y="-837.8" font-family="Times,serif" font-size="14.00">contact :text</text>
<text text-anchor="start" x="752.309" y="-821" font-family="Times,serif" font-size="14.00">sag_code :string</text>
<text text-anchor="start" x="752.309" y="-804.2" font-family="Times,serif" font-size="14.00">active :boolean</text>
<text text-anchor="start" x="752.309" y="-787.4" font-family="Times,serif" font-size="14.00">created_at :datetime</text>
<text text-anchor="start" x="752.309" y="-770.6" font-family="Times,serif" font-size="14.00">updated_at :datetime</text>
<text text-anchor="start" x="752.309" y="-753.8" font-family="Times,serif" font-size="14.00">is_deleted :boolean</text>
</g>
<!-- Commune&#45;&gt;Producer -->
<g id="edge1" class="edge"><title>Commune&#45;&gt;Producer</title>
<path fill="none" stroke="#80f33c" d="M628.422,-1052.98C628.949,-1052.65 629.475,-1052.32 630,-1052 661.466,-1032.58 675.716,-1038.57 705,-1016 716.105,-1007.44 726.893,-997.641 737.121,-987.322"/>
<ellipse fill="none" stroke="#80f33c" cx="624.916" cy="-1055.24" rx="4.00002" ry="4.00002"/>
<polygon fill="#80f33c" stroke="#80f33c" points="737.153,-987.289 747.342,-983.235 740.631,-983.697 744.109,-980.105 744.109,-980.105 744.109,-980.105 740.631,-983.697 740.877,-976.975 737.153,-987.289 737.153,-987.289"/>
</g>
<!-- Destination -->
<g id="node7" class="node"><title>Destination</title>
<path fill="none" stroke="black" d="M565.043,-763.8C565.043,-763.8 684.957,-763.8 684.957,-763.8 690.957,-763.8 696.957,-769.8 696.957,-775.8 696.957,-775.8 696.957,-986.2 696.957,-986.2 696.957,-992.2 690.957,-998.2 684.957,-998.2 684.957,-998.2 565.043,-998.2 565.043,-998.2 559.043,-998.2 553.043,-992.2 553.043,-986.2 553.043,-986.2 553.043,-775.8 553.043,-775.8 553.043,-769.8 559.043,-763.8 565.043,-763.8"/>
<text text-anchor="middle" x="625" y="-980.2" font-family="Times,serif" font-size="14.00">Destination</text>
<polyline fill="none" stroke="black" points="553.043,-973.4 696.957,-973.4 "/>
<text text-anchor="start" x="561.043" y="-955.4" font-family="Times,serif" font-size="14.00">id :integer</text>
<text text-anchor="start" x="561.043" y="-938.6" font-family="Times,serif" font-size="14.00">rut :string</text>
<text text-anchor="start" x="561.043" y="-921.8" font-family="Times,serif" font-size="14.00">company_name :string</text>
<text text-anchor="start" x="561.043" y="-905" font-family="Times,serif" font-size="14.00">commune_id :integer</text>
<text text-anchor="start" x="561.043" y="-888.2" font-family="Times,serif" font-size="14.00">address :string</text>
<text text-anchor="start" x="561.043" y="-871.4" font-family="Times,serif" font-size="14.00">email :string</text>
<text text-anchor="start" x="561.043" y="-854.6" font-family="Times,serif" font-size="14.00">phone :string</text>
<text text-anchor="start" x="561.043" y="-837.8" font-family="Times,serif" font-size="14.00">contact :text</text>
<text text-anchor="start" x="561.043" y="-821" font-family="Times,serif" font-size="14.00">active :boolean</text>
<text text-anchor="start" x="561.043" y="-804.2" font-family="Times,serif" font-size="14.00">created_at :datetime</text>
<text text-anchor="start" x="561.043" y="-787.4" font-family="Times,serif" font-size="14.00">updated_at :datetime</text>
<text text-anchor="start" x="561.043" y="-770.6" font-family="Times,serif" font-size="14.00">is_deleted :boolean</text>
</g>
<!-- Commune&#45;&gt;Destination -->
<g id="edge2" class="edge"><title>Commune&#45;&gt;Destination</title>
<path fill="none" stroke="#5f722e" d="M575.102,-1044.53C578.661,-1032.93 582.473,-1020.52 586.345,-1007.91"/>
<ellipse fill="none" stroke="#5f722e" cx="573.838" cy="-1048.64" rx="4.00001" ry="4.00001"/>
<polygon fill="#5f722e" stroke="#5f722e" points="586.379,-1007.79 593.616,-999.554 587.847,-1003.01 589.314,-998.233 589.314,-998.233 589.314,-998.233 587.847,-1003.01 585.012,-996.913 586.379,-1007.79 586.379,-1007.79"/>
</g>
<!-- Company -->
<g id="node5" class="node"><title>Company</title>
<path fill="none" stroke="black" d="M397.309,-763.8C397.309,-763.8 522.691,-763.8 522.691,-763.8 528.691,-763.8 534.691,-769.8 534.691,-775.8 534.691,-775.8 534.691,-986.2 534.691,-986.2 534.691,-992.2 528.691,-998.2 522.691,-998.2 522.691,-998.2 397.309,-998.2 397.309,-998.2 391.309,-998.2 385.309,-992.2 385.309,-986.2 385.309,-986.2 385.309,-775.8 385.309,-775.8 385.309,-769.8 391.309,-763.8 397.309,-763.8"/>
<text text-anchor="middle" x="460" y="-980.2" font-family="Times,serif" font-size="14.00">Company</text>
<polyline fill="none" stroke="black" points="385.309,-973.4 534.691,-973.4 "/>
<text text-anchor="start" x="393.309" y="-955.4" font-family="Times,serif" font-size="14.00">id :integer</text>
<text text-anchor="start" x="393.309" y="-938.6" font-family="Times,serif" font-size="14.00">name :string</text>
<text text-anchor="start" x="393.309" y="-921.8" font-family="Times,serif" font-size="14.00">rut :integer</text>
<text text-anchor="start" x="393.309" y="-905" font-family="Times,serif" font-size="14.00">address :string</text>
<text text-anchor="start" x="393.309" y="-888.2" font-family="Times,serif" font-size="14.00">commune_id :string</text>
<text text-anchor="start" x="393.309" y="-871.4" font-family="Times,serif" font-size="14.00">line_of_business :string</text>
<text text-anchor="start" x="393.309" y="-854.6" font-family="Times,serif" font-size="14.00">phone :integer</text>
<text text-anchor="start" x="393.309" y="-837.8" font-family="Times,serif" font-size="14.00">email :string</text>
<text text-anchor="start" x="393.309" y="-821" font-family="Times,serif" font-size="14.00">created_at :datetime</text>
<text text-anchor="start" x="393.309" y="-804.2" font-family="Times,serif" font-size="14.00">updated_at :datetime</text>
<text text-anchor="start" x="393.309" y="-787.4" font-family="Times,serif" font-size="14.00">active :boolean</text>
<text text-anchor="start" x="393.309" y="-770.6" font-family="Times,serif" font-size="14.00">region_id :integer</text>
</g>
<!-- Commune&#45;&gt;Company -->
<g id="edge3" class="edge"><title>Commune&#45;&gt;Company</title>
<path fill="none" stroke="#aac237" d="M527.887,-1044.93C522.973,-1033.13 517.699,-1020.48 512.342,-1007.62"/>
<ellipse fill="none" stroke="#aac237" cx="529.489" cy="-1048.77" rx="4.00002" ry="4.00002"/>
<polygon fill="#aac237" stroke="#aac237" points="512.277,-1007.46 512.584,-996.503 510.354,-1002.85 508.431,-998.233 508.431,-998.233 508.431,-998.233 510.354,-1002.85 504.277,-999.964 512.277,-1007.46 512.277,-1007.46"/>
</g>
<!-- User -->
<g id="node22" class="node"><title>User</title>
<path fill="none" stroke="black" d="M162.722,-306.8C162.722,-306.8 343.278,-306.8 343.278,-306.8 349.278,-306.8 355.278,-312.8 355.278,-318.8 355.278,-318.8 355.278,-697.2 355.278,-697.2 355.278,-703.2 349.278,-709.2 343.278,-709.2 343.278,-709.2 162.722,-709.2 162.722,-709.2 156.722,-709.2 150.722,-703.2 150.722,-697.2 150.722,-697.2 150.722,-318.8 150.722,-318.8 150.722,-312.8 156.722,-306.8 162.722,-306.8"/>
<text text-anchor="middle" x="253" y="-691.2" font-family="Times,serif" font-size="14.00">User</text>
<polyline fill="none" stroke="black" points="150.722,-684.4 355.278,-684.4 "/>
<text text-anchor="start" x="158.722" y="-666.4" font-family="Times,serif" font-size="14.00">id :integer</text>
<text text-anchor="start" x="158.722" y="-649.6" font-family="Times,serif" font-size="14.00">email :string</text>
<text text-anchor="start" x="158.722" y="-632.8" font-family="Times,serif" font-size="14.00">encrypted_password :string</text>
<text text-anchor="start" x="158.722" y="-616" font-family="Times,serif" font-size="14.00">reset_password_token :string</text>
<text text-anchor="start" x="158.722" y="-599.2" font-family="Times,serif" font-size="14.00">reset_password_sent_at :datetime</text>
<text text-anchor="start" x="158.722" y="-582.4" font-family="Times,serif" font-size="14.00">remember_created_at :datetime</text>
<text text-anchor="start" x="158.722" y="-565.6" font-family="Times,serif" font-size="14.00">sign_in_count :integer</text>
<text text-anchor="start" x="158.722" y="-548.8" font-family="Times,serif" font-size="14.00">current_sign_in_at :datetime</text>
<text text-anchor="start" x="158.722" y="-532" font-family="Times,serif" font-size="14.00">last_sign_in_at :datetime</text>
<text text-anchor="start" x="158.722" y="-515.2" font-family="Times,serif" font-size="14.00">current_sign_in_ip :string</text>
<text text-anchor="start" x="158.722" y="-498.4" font-family="Times,serif" font-size="14.00">last_sign_in_ip :string</text>
<text text-anchor="start" x="158.722" y="-481.6" font-family="Times,serif" font-size="14.00">created_at :datetime</text>
<text text-anchor="start" x="158.722" y="-464.8" font-family="Times,serif" font-size="14.00">updated_at :datetime</text>
<text text-anchor="start" x="158.722" y="-448" font-family="Times,serif" font-size="14.00">phone :integer</text>
<text text-anchor="start" x="158.722" y="-431.2" font-family="Times,serif" font-size="14.00">active :boolean</text>
<text text-anchor="start" x="158.722" y="-414.4" font-family="Times,serif" font-size="14.00">name :string</text>
<text text-anchor="start" x="158.722" y="-397.6" font-family="Times,serif" font-size="14.00">lastname :string</text>
<text text-anchor="start" x="158.722" y="-380.8" font-family="Times,serif" font-size="14.00">secret_question :string</text>
<text text-anchor="start" x="158.722" y="-364" font-family="Times,serif" font-size="14.00">secret_answer :string</text>
<text text-anchor="start" x="158.722" y="-347.2" font-family="Times,serif" font-size="14.00">super_admin :boolean</text>
<text text-anchor="start" x="158.722" y="-330.4" font-family="Times,serif" font-size="14.00">company_id :integer</text>
<text text-anchor="start" x="158.722" y="-313.6" font-family="Times,serif" font-size="14.00">gender :string</text>
</g>
<!-- Company&#45;&gt;User -->
<g id="edge4" class="edge"><title>Company&#45;&gt;User</title>
<path fill="none" stroke="#f3b5dc" d="M389.986,-756.338C381.215,-740.751 372.384,-725.013 364,-710 362.746,-707.754 361.484,-705.494 360.217,-703.221"/>
<ellipse fill="none" stroke="#f3b5dc" cx="392.048" cy="-760" rx="4.00002" ry="4.00002"/>
<polygon fill="#f3b5dc" stroke="#f3b5dc" points="360.167,-703.133 359.23,-692.207 357.733,-698.765 355.299,-694.398 355.299,-694.398 355.299,-694.398 357.733,-698.765 351.368,-696.589 360.167,-703.133 360.167,-703.133"/>
</g>
<!-- Receipt -->
<g id="node17" class="node"><title>Receipt</title>
<path fill="none" stroke="black" d="M576.563,-416C576.563,-416 717.437,-416 717.437,-416 723.437,-416 729.437,-422 729.437,-428 729.437,-428 729.437,-588 729.437,-588 729.437,-594 723.437,-600 717.437,-600 717.437,-600 576.563,-600 576.563,-600 570.563,-600 564.563,-594 564.563,-588 564.563,-588 564.563,-428 564.563,-428 564.563,-422 570.563,-416 576.563,-416"/>
<text text-anchor="middle" x="647" y="-582" font-family="Times,serif" font-size="14.00">Receipt</text>
<polyline fill="none" stroke="black" points="564.563,-575.2 729.437,-575.2 "/>
<text text-anchor="start" x="572.563" y="-557.2" font-family="Times,serif" font-size="14.00">id :integer</text>
<text text-anchor="start" x="572.563" y="-540.4" font-family="Times,serif" font-size="14.00">code :integer</text>
<text text-anchor="start" x="572.563" y="-523.6" font-family="Times,serif" font-size="14.00">receipt_datetime :datetime</text>
<text text-anchor="start" x="572.563" y="-506.8" font-family="Times,serif" font-size="14.00">producer_id :integer</text>
<text text-anchor="start" x="572.563" y="-490" font-family="Times,serif" font-size="14.00">kind_id :integer</text>
<text text-anchor="start" x="572.563" y="-473.2" font-family="Times,serif" font-size="14.00">user_id :integer</text>
<text text-anchor="start" x="572.563" y="-456.4" font-family="Times,serif" font-size="14.00">company_id :integer</text>
<text text-anchor="start" x="572.563" y="-439.6" font-family="Times,serif" font-size="14.00">created_at :datetime</text>
<text text-anchor="start" x="572.563" y="-422.8" font-family="Times,serif" font-size="14.00">updated_at :datetime</text>
</g>
<!-- Company&#45;&gt;Receipt -->
<g id="edge5" class="edge"><title>Company&#45;&gt;Receipt</title>
<path fill="none" stroke="#e64dfa" d="M530.539,-756.484C538.97,-740.934 547.307,-725.166 555,-710 571.394,-677.681 588.211,-641.856 602.908,-609.51"/>
<ellipse fill="none" stroke="#e64dfa" cx="528.573" cy="-760.096" rx="4.00002" ry="4.00002"/>
<polygon fill="#e64dfa" stroke="#e64dfa" points="603.072,-609.149 611.296,-601.895 605.134,-604.594 607.196,-600.039 607.196,-600.039 607.196,-600.039 605.134,-604.594 603.097,-598.183 603.072,-609.149 603.072,-609.149"/>
</g>
<!-- Dispatch -->
<g id="node8" class="node"><title>Dispatch</title>
<path fill="none" stroke="black" d="M385.277,-424.4C385.277,-424.4 534.723,-424.4 534.723,-424.4 540.723,-424.4 546.723,-430.4 546.723,-436.4 546.723,-436.4 546.723,-579.6 546.723,-579.6 546.723,-585.6 540.723,-591.6 534.723,-591.6 534.723,-591.6 385.277,-591.6 385.277,-591.6 379.277,-591.6 373.277,-585.6 373.277,-579.6 373.277,-579.6 373.277,-436.4 373.277,-436.4 373.277,-430.4 379.277,-424.4 385.277,-424.4"/>
<text text-anchor="middle" x="460" y="-573.6" font-family="Times,serif" font-size="14.00">Dispatch</text>
<polyline fill="none" stroke="black" points="373.277,-566.8 546.723,-566.8 "/>
<text text-anchor="start" x="381.277" y="-548.8" font-family="Times,serif" font-size="14.00">id :integer</text>
<text text-anchor="start" x="381.277" y="-532" font-family="Times,serif" font-size="14.00">destination_id :integer</text>
<text text-anchor="start" x="381.277" y="-515.2" font-family="Times,serif" font-size="14.00">kind_id :integer</text>
<text text-anchor="start" x="381.277" y="-498.4" font-family="Times,serif" font-size="14.00">dispatch_datetime :datetime</text>
<text text-anchor="start" x="381.277" y="-481.6" font-family="Times,serif" font-size="14.00">company_id :integer</text>
<text text-anchor="start" x="381.277" y="-464.8" font-family="Times,serif" font-size="14.00">user_id :integer</text>
<text text-anchor="start" x="381.277" y="-448" font-family="Times,serif" font-size="14.00">created_at :datetime</text>
<text text-anchor="start" x="381.277" y="-431.2" font-family="Times,serif" font-size="14.00">updated_at :datetime</text>
</g>
<!-- Company&#45;&gt;Dispatch -->
<g id="edge6" class="edge"><title>Company&#45;&gt;Dispatch</title>
<path fill="none" stroke="#659cbe" d="M460,-755.393C460,-705.171 460,-648.252 460,-601.782"/>
<ellipse fill="none" stroke="#659cbe" cx="460" cy="-759.631" rx="4" ry="4"/>
<polygon fill="#659cbe" stroke="#659cbe" points="460,-601.728 464.5,-591.728 460,-596.728 460,-591.728 460,-591.728 460,-591.728 460,-596.728 455.5,-591.729 460,-601.728 460,-601.728"/>
</g>
<!-- Container -->
<g id="node6" class="node"><title>Container</title>
<path fill="none" stroke="black" d="M651.495,-1052.6C651.495,-1052.6 760.505,-1052.6 760.505,-1052.6 766.505,-1052.6 772.505,-1058.6 772.505,-1064.6 772.505,-1064.6 772.505,-1157.4 772.505,-1157.4 772.505,-1163.4 766.505,-1169.4 760.505,-1169.4 760.505,-1169.4 651.495,-1169.4 651.495,-1169.4 645.495,-1169.4 639.495,-1163.4 639.495,-1157.4 639.495,-1157.4 639.495,-1064.6 639.495,-1064.6 639.495,-1058.6 645.495,-1052.6 651.495,-1052.6"/>
<text text-anchor="middle" x="706" y="-1151.4" font-family="Times,serif" font-size="14.00">Container</text>
<polyline fill="none" stroke="black" points="639.495,-1144.6 772.505,-1144.6 "/>
<text text-anchor="start" x="647.495" y="-1126.6" font-family="Times,serif" font-size="14.00">id :integer</text>
<text text-anchor="start" x="647.495" y="-1109.8" font-family="Times,serif" font-size="14.00">name :string</text>
<text text-anchor="start" x="647.495" y="-1093" font-family="Times,serif" font-size="14.00">tare :float</text>
<text text-anchor="start" x="647.495" y="-1076.2" font-family="Times,serif" font-size="14.00">created_at :datetime</text>
<text text-anchor="start" x="647.495" y="-1059.4" font-family="Times,serif" font-size="14.00">updated_at :datetime</text>
</g>
<!-- Container&#45;&gt;Producer -->
<g id="edge7" class="edge"><title>Container&#45;&gt;Producer</title>
<path fill="none" stroke="#fa02c3" d="M739.062,-1043.29C742.122,-1037.12 745.294,-1030.72 748.531,-1024.19"/>
<polygon fill="#fa02c3" stroke="#fa02c3" points="738.955,-1043.51 730.483,-1050.47 736.735,-1047.99 734.515,-1052.47 734.515,-1052.47 734.515,-1052.47 736.735,-1047.99 738.547,-1054.46 738.955,-1043.51 738.955,-1043.51"/>
<polygon fill="#fa02c3" stroke="#fa02c3" points="748.541,-1024.17 757.013,-1017.2 750.761,-1019.69 752.981,-1015.21 752.981,-1015.21 752.981,-1015.21 750.761,-1019.69 748.949,-1013.21 748.541,-1024.17 748.541,-1024.17"/>
</g>
<!-- Pallet -->
<g id="node14" class="node"><title>Pallet</title>
<path fill="none" stroke="black" d="M492.053,-1C492.053,-1 611.947,-1 611.947,-1 617.947,-1 623.947,-7 623.947,-13 623.947,-13 623.947,-257 623.947,-257 623.947,-263 617.947,-269 611.947,-269 611.947,-269 492.053,-269 492.053,-269 486.053,-269 480.053,-263 480.053,-257 480.053,-257 480.053,-13 480.053,-13 480.053,-7 486.053,-1 492.053,-1"/>
<text text-anchor="middle" x="552" y="-251" font-family="Times,serif" font-size="14.00">Pallet</text>
<polyline fill="none" stroke="black" points="480.053,-244.2 623.947,-244.2 "/>
<text text-anchor="start" x="488.053" y="-226.2" font-family="Times,serif" font-size="14.00">id :integer</text>
<text text-anchor="start" x="488.053" y="-209.4" font-family="Times,serif" font-size="14.00">code :integer</text>
<text text-anchor="start" x="488.053" y="-192.6" font-family="Times,serif" font-size="14.00">quantity :integer</text>
<text text-anchor="start" x="488.053" y="-175.8" font-family="Times,serif" font-size="14.00">price_per_unit :integer</text>
<text text-anchor="start" x="488.053" y="-159" font-family="Times,serif" font-size="14.00">gross_weight :integer</text>
<text text-anchor="start" x="488.053" y="-142.2" font-family="Times,serif" font-size="14.00">tare :integer</text>
<text text-anchor="start" x="488.053" y="-125.4" font-family="Times,serif" font-size="14.00">variety_id :integer</text>
<text text-anchor="start" x="488.053" y="-108.6" font-family="Times,serif" font-size="14.00">quality_id :integer</text>
<text text-anchor="start" x="488.053" y="-91.8" font-family="Times,serif" font-size="14.00">receipt_id :integer</text>
<text text-anchor="start" x="488.053" y="-75" font-family="Times,serif" font-size="14.00">pack_type_id :integer</text>
<text text-anchor="start" x="488.053" y="-58.2" font-family="Times,serif" font-size="14.00">company_id :integer</text>
<text text-anchor="start" x="488.053" y="-41.4" font-family="Times,serif" font-size="14.00">dispatch_id :integer</text>
<text text-anchor="start" x="488.053" y="-24.6" font-family="Times,serif" font-size="14.00">created_at :datetime</text>
<text text-anchor="start" x="488.053" y="-7.8" font-family="Times,serif" font-size="14.00">updated_at :datetime</text>
</g>
<!-- Dispatch&#45;&gt;Pallet -->
<g id="edge8" class="edge"><title>Dispatch&#45;&gt;Pallet</title>
<path fill="none" stroke="#fb4426" d="M482.481,-416.342C492.726,-375.03 505.099,-325.134 516.55,-278.956"/>
<ellipse fill="none" stroke="#fb4426" cx="481.495" cy="-420.32" rx="4.00001" ry="4.00001"/>
<polygon fill="#fb4426" stroke="#fb4426" points="516.571,-278.869 523.346,-270.246 517.775,-274.016 518.978,-269.163 518.978,-269.163 518.978,-269.163 517.775,-274.016 514.611,-268.08 516.571,-278.869 516.571,-278.869"/>
</g>
<!-- PackGroupDispatch -->
<g id="node11" class="node"><title>PackGroupDispatch</title>
<path fill="none" stroke="black" d="M336.16,-34.6C336.16,-34.6 449.84,-34.6 449.84,-34.6 455.84,-34.6 461.84,-40.6 461.84,-46.6 461.84,-46.6 461.84,-223.4 461.84,-223.4 461.84,-229.4 455.84,-235.4 449.84,-235.4 449.84,-235.4 336.16,-235.4 336.16,-235.4 330.16,-235.4 324.16,-229.4 324.16,-223.4 324.16,-223.4 324.16,-46.6 324.16,-46.6 324.16,-40.6 330.16,-34.6 336.16,-34.6"/>
<text text-anchor="middle" x="393" y="-217.4" font-family="Times,serif" font-size="14.00">PackGroupDispatch</text>
<polyline fill="none" stroke="black" points="324.16,-210.6 461.84,-210.6 "/>
<text text-anchor="start" x="332.16" y="-192.6" font-family="Times,serif" font-size="14.00">id :integer</text>
<text text-anchor="start" x="332.16" y="-175.8" font-family="Times,serif" font-size="14.00">gross_weight :integer</text>
<text text-anchor="start" x="332.16" y="-159" font-family="Times,serif" font-size="14.00">quantity :integer</text>
<text text-anchor="start" x="332.16" y="-142.2" font-family="Times,serif" font-size="14.00">quality_id :integer</text>
<text text-anchor="start" x="332.16" y="-125.4" font-family="Times,serif" font-size="14.00">variety_id :integer</text>
<text text-anchor="start" x="332.16" y="-108.6" font-family="Times,serif" font-size="14.00">dispatch_id :integer</text>
<text text-anchor="start" x="332.16" y="-91.8" font-family="Times,serif" font-size="14.00">pack_type_id :integer</text>
<text text-anchor="start" x="332.16" y="-75" font-family="Times,serif" font-size="14.00">company_id :integer</text>
<text text-anchor="start" x="332.16" y="-58.2" font-family="Times,serif" font-size="14.00">created_at :datetime</text>
<text text-anchor="start" x="332.16" y="-41.4" font-family="Times,serif" font-size="14.00">updated_at :datetime</text>
</g>
<!-- Dispatch&#45;&gt;PackGroupDispatch -->
<g id="edge9" class="edge"><title>Dispatch&#45;&gt;PackGroupDispatch</title>
<path fill="none" stroke="#ed5fab" d="M443.611,-416.248C434.316,-364.78 422.619,-300.01 412.812,-245.705"/>
<ellipse fill="none" stroke="#ed5fab" cx="444.336" cy="-420.266" rx="4.00001" ry="4.00001"/>
<polygon fill="#ed5fab" stroke="#ed5fab" points="412.781,-245.534 415.432,-234.893 411.892,-240.613 411.004,-235.693 411.004,-235.693 411.004,-235.693 411.892,-240.613 406.575,-236.493 412.781,-245.534 412.781,-245.534"/>
</g>
<!-- Grouping -->
<g id="node9" class="node"><title>Grouping</title>
<path fill="none" stroke="black" d="M802.495,-1052.6C802.495,-1052.6 911.505,-1052.6 911.505,-1052.6 917.505,-1052.6 923.505,-1058.6 923.505,-1064.6 923.505,-1064.6 923.505,-1157.4 923.505,-1157.4 923.505,-1163.4 917.505,-1169.4 911.505,-1169.4 911.505,-1169.4 802.495,-1169.4 802.495,-1169.4 796.495,-1169.4 790.495,-1163.4 790.495,-1157.4 790.495,-1157.4 790.495,-1064.6 790.495,-1064.6 790.495,-1058.6 796.495,-1052.6 802.495,-1052.6"/>
<text text-anchor="middle" x="857" y="-1151.4" font-family="Times,serif" font-size="14.00">Grouping</text>
<polyline fill="none" stroke="black" points="790.495,-1144.6 923.505,-1144.6 "/>
<text text-anchor="start" x="798.495" y="-1126.6" font-family="Times,serif" font-size="14.00">id :integer</text>
<text text-anchor="start" x="798.495" y="-1109.8" font-family="Times,serif" font-size="14.00">name :string</text>
<text text-anchor="start" x="798.495" y="-1093" font-family="Times,serif" font-size="14.00">description :text</text>
<text text-anchor="start" x="798.495" y="-1076.2" font-family="Times,serif" font-size="14.00">created_at :datetime</text>
<text text-anchor="start" x="798.495" y="-1059.4" font-family="Times,serif" font-size="14.00">updated_at :datetime</text>
</g>
<!-- Grouping&#45;&gt;Producer -->
<g id="edge10" class="edge"><title>Grouping&#45;&gt;Producer</title>
<path fill="none" stroke="#0b7943" d="M845.74,-1042.44C844.808,-1036.85 843.846,-1031.08 842.866,-1025.2"/>
<polygon fill="#0b7943" stroke="#0b7943" points="845.767,-1042.6 842.972,-1053.21 846.589,-1047.53 847.411,-1052.47 847.411,-1052.47 847.411,-1052.47 846.589,-1047.53 851.85,-1051.73 845.767,-1042.6 845.767,-1042.6"/>
<polygon fill="#0b7943" stroke="#0b7943" points="842.845,-1025.07 845.64,-1014.47 842.023,-1020.14 841.201,-1015.21 841.201,-1015.21 841.201,-1015.21 842.023,-1020.14 836.762,-1015.95 842.845,-1025.07 842.845,-1025.07"/>
</g>
<!-- Kind -->
<g id="node10" class="node"><title>Kind</title>
<path fill="none" stroke="black" d="M953.495,-1061C953.495,-1061 1062.51,-1061 1062.51,-1061 1068.51,-1061 1074.51,-1067 1074.51,-1073 1074.51,-1073 1074.51,-1149 1074.51,-1149 1074.51,-1155 1068.51,-1161 1062.51,-1161 1062.51,-1161 953.495,-1161 953.495,-1161 947.495,-1161 941.495,-1155 941.495,-1149 941.495,-1149 941.495,-1073 941.495,-1073 941.495,-1067 947.495,-1061 953.495,-1061"/>
<text text-anchor="middle" x="1008" y="-1143" font-family="Times,serif" font-size="14.00">Kind</text>
<polyline fill="none" stroke="black" points="941.495,-1136.2 1074.51,-1136.2 "/>
<text text-anchor="start" x="949.495" y="-1118.2" font-family="Times,serif" font-size="14.00">id :integer</text>
<text text-anchor="start" x="949.495" y="-1101.4" font-family="Times,serif" font-size="14.00">name :string</text>
<text text-anchor="start" x="949.495" y="-1084.6" font-family="Times,serif" font-size="14.00">created_at :datetime</text>
<text text-anchor="start" x="949.495" y="-1067.8" font-family="Times,serif" font-size="14.00">updated_at :datetime</text>
</g>
<!-- Kind&#45;&gt;Producer -->
<g id="edge11" class="edge"><title>Kind&#45;&gt;Producer</title>
<path fill="none" stroke="#6ac1c1" d="M950.902,-1053.53C939.364,-1041.43 927.546,-1028.51 917,-1016 911.46,-1009.43 905.88,-1002.57 900.345,-995.574"/>
<polygon fill="#6ac1c1" stroke="#6ac1c1" points="951.105,-1053.74 954.793,-1064.06 954.571,-1057.34 958.037,-1060.95 958.037,-1060.95 958.037,-1060.95 954.571,-1057.34 961.28,-1057.83 951.105,-1053.74 951.105,-1053.74"/>
<polygon fill="#6ac1c1" stroke="#6ac1c1" points="900.042,-995.186 897.416,-984.539 896.958,-991.25 893.874,-987.315 893.874,-987.315 893.874,-987.315 896.958,-991.25 890.332,-990.09 900.042,-995.186 900.042,-995.186"/>
</g>
<!-- Variety -->
<g id="node23" class="node"><title>Variety</title>
<path fill="none" stroke="black" d="M938.495,-822.6C938.495,-822.6 1047.51,-822.6 1047.51,-822.6 1053.51,-822.6 1059.51,-828.6 1059.51,-834.6 1059.51,-834.6 1059.51,-927.4 1059.51,-927.4 1059.51,-933.4 1053.51,-939.4 1047.51,-939.4 1047.51,-939.4 938.495,-939.4 938.495,-939.4 932.495,-939.4 926.495,-933.4 926.495,-927.4 926.495,-927.4 926.495,-834.6 926.495,-834.6 926.495,-828.6 932.495,-822.6 938.495,-822.6"/>
<text text-anchor="middle" x="993" y="-921.4" font-family="Times,serif" font-size="14.00">Variety</text>
<polyline fill="none" stroke="black" points="926.495,-914.6 1059.51,-914.6 "/>
<text text-anchor="start" x="934.495" y="-896.6" font-family="Times,serif" font-size="14.00">id :integer</text>
<text text-anchor="start" x="934.495" y="-879.8" font-family="Times,serif" font-size="14.00">name :string</text>
<text text-anchor="start" x="934.495" y="-863" font-family="Times,serif" font-size="14.00">kind_id :integer</text>
<text text-anchor="start" x="934.495" y="-846.2" font-family="Times,serif" font-size="14.00">created_at :datetime</text>
<text text-anchor="start" x="934.495" y="-829.4" font-family="Times,serif" font-size="14.00">updated_at :datetime</text>
</g>
<!-- Kind&#45;&gt;Variety -->
<g id="edge12" class="edge"><title>Kind&#45;&gt;Variety</title>
<path fill="none" stroke="#2fa395" d="M1004.23,-1052.68C1002.18,-1021.48 999.623,-982.674 997.471,-949.954"/>
<ellipse fill="none" stroke="#2fa395" cx="1004.5" cy="-1056.82" rx="4" ry="4"/>
<polygon fill="#2fa395" stroke="#2fa395" points="997.444,-949.54 1001.28,-939.266 997.115,-944.551 996.787,-939.562 996.787,-939.562 996.787,-939.562 997.115,-944.551 992.297,-939.857 997.444,-949.54 997.444,-949.54"/>
</g>
<!-- Season -->
<g id="node20" class="node"><title>Season</title>
<path fill="none" stroke="black" d="M1089.49,-797.4C1089.49,-797.4 1198.51,-797.4 1198.51,-797.4 1204.51,-797.4 1210.51,-803.4 1210.51,-809.4 1210.51,-809.4 1210.51,-952.6 1210.51,-952.6 1210.51,-958.6 1204.51,-964.6 1198.51,-964.6 1198.51,-964.6 1089.49,-964.6 1089.49,-964.6 1083.49,-964.6 1077.49,-958.6 1077.49,-952.6 1077.49,-952.6 1077.49,-809.4 1077.49,-809.4 1077.49,-803.4 1083.49,-797.4 1089.49,-797.4"/>
<text text-anchor="middle" x="1144" y="-946.6" font-family="Times,serif" font-size="14.00">Season</text>
<polyline fill="none" stroke="black" points="1077.49,-939.8 1210.51,-939.8 "/>
<text text-anchor="start" x="1085.49" y="-921.8" font-family="Times,serif" font-size="14.00">id :integer</text>
<text text-anchor="start" x="1085.49" y="-905" font-family="Times,serif" font-size="14.00">init_date :date</text>
<text text-anchor="start" x="1085.49" y="-888.2" font-family="Times,serif" font-size="14.00">end_date :date</text>
<text text-anchor="start" x="1085.49" y="-871.4" font-family="Times,serif" font-size="14.00">kind_id :integer</text>
<text text-anchor="start" x="1085.49" y="-854.6" font-family="Times,serif" font-size="14.00">is_active :integer</text>
<text text-anchor="start" x="1085.49" y="-837.8" font-family="Times,serif" font-size="14.00">is_delete :integer</text>
<text text-anchor="start" x="1085.49" y="-821" font-family="Times,serif" font-size="14.00">created_at :datetime</text>
<text text-anchor="start" x="1085.49" y="-804.2" font-family="Times,serif" font-size="14.00">updated_at :datetime</text>
</g>
<!-- Kind&#45;&gt;Season -->
<g id="edge13" class="edge"><title>Kind&#45;&gt;Season</title>
<path fill="none" stroke="#081041" d="M1044.57,-1053.76C1052.42,-1041.39 1060.58,-1028.31 1068,-1016 1076.17,-1002.43 1084.63,-987.975 1092.8,-973.761"/>
<ellipse fill="none" stroke="#081041" cx="1042.4" cy="-1057.17" rx="4.00002" ry="4.00002"/>
<polygon fill="#081041" stroke="#081041" points="1092.87,-973.63 1101.75,-967.191 1095.36,-969.291 1097.85,-964.953 1097.85,-964.953 1097.85,-964.953 1095.36,-969.291 1093.94,-962.716 1092.87,-973.63 1092.87,-973.63"/>
</g>
<!-- PackGroupReceipt -->
<g id="node12" class="node"><title>PackGroupReceipt</title>
<path fill="none" stroke="black" d="M654.053,-26.2C654.053,-26.2 773.947,-26.2 773.947,-26.2 779.947,-26.2 785.947,-32.2 785.947,-38.2 785.947,-38.2 785.947,-231.8 785.947,-231.8 785.947,-237.8 779.947,-243.8 773.947,-243.8 773.947,-243.8 654.053,-243.8 654.053,-243.8 648.053,-243.8 642.053,-237.8 642.053,-231.8 642.053,-231.8 642.053,-38.2 642.053,-38.2 642.053,-32.2 648.053,-26.2 654.053,-26.2"/>
<text text-anchor="middle" x="714" y="-225.8" font-family="Times,serif" font-size="14.00">PackGroupReceipt</text>
<polyline fill="none" stroke="black" points="642.053,-219 785.947,-219 "/>
<text text-anchor="start" x="650.053" y="-201" font-family="Times,serif" font-size="14.00">id :integer</text>
<text text-anchor="start" x="650.053" y="-184.2" font-family="Times,serif" font-size="14.00">price_per_unit :integer</text>
<text text-anchor="start" x="650.053" y="-167.4" font-family="Times,serif" font-size="14.00">quantity :integer</text>
<text text-anchor="start" x="650.053" y="-150.6" font-family="Times,serif" font-size="14.00">gross_weight :integer</text>
<text text-anchor="start" x="650.053" y="-133.8" font-family="Times,serif" font-size="14.00">pack_type_id :integer</text>
<text text-anchor="start" x="650.053" y="-117" font-family="Times,serif" font-size="14.00">variety_id :integer</text>
<text text-anchor="start" x="650.053" y="-100.2" font-family="Times,serif" font-size="14.00">quality_id :integer</text>
<text text-anchor="start" x="650.053" y="-83.4" font-family="Times,serif" font-size="14.00">receipt_id :integer</text>
<text text-anchor="start" x="650.053" y="-66.6" font-family="Times,serif" font-size="14.00">company_id :integer</text>
<text text-anchor="start" x="650.053" y="-49.8" font-family="Times,serif" font-size="14.00">created_at :datetime</text>
<text text-anchor="start" x="650.053" y="-33" font-family="Times,serif" font-size="14.00">updated_at :datetime</text>
</g>
<!-- PackType -->
<g id="node13" class="node"><title>PackType</title>
<path fill="none" stroke="black" d="M604.495,-1207.2C604.495,-1207.2 713.505,-1207.2 713.505,-1207.2 719.505,-1207.2 725.505,-1213.2 725.505,-1219.2 725.505,-1219.2 725.505,-1328.8 725.505,-1328.8 725.505,-1334.8 719.505,-1340.8 713.505,-1340.8 713.505,-1340.8 604.495,-1340.8 604.495,-1340.8 598.495,-1340.8 592.495,-1334.8 592.495,-1328.8 592.495,-1328.8 592.495,-1219.2 592.495,-1219.2 592.495,-1213.2 598.495,-1207.2 604.495,-1207.2"/>
<text text-anchor="middle" x="659" y="-1322.8" font-family="Times,serif" font-size="14.00">PackType</text>
<polyline fill="none" stroke="black" points="592.495,-1316 725.505,-1316 "/>
<text text-anchor="start" x="600.495" y="-1298" font-family="Times,serif" font-size="14.00">id :integer</text>
<text text-anchor="start" x="600.495" y="-1281.2" font-family="Times,serif" font-size="14.00">name :string</text>
<text text-anchor="start" x="600.495" y="-1264.4" font-family="Times,serif" font-size="14.00">tare :integer</text>
<text text-anchor="start" x="600.495" y="-1247.6" font-family="Times,serif" font-size="14.00">company_id :integer</text>
<text text-anchor="start" x="600.495" y="-1230.8" font-family="Times,serif" font-size="14.00">created_at :datetime</text>
<text text-anchor="start" x="600.495" y="-1214" font-family="Times,serif" font-size="14.00">updated_at :datetime</text>
</g>
<!-- Quality -->
<g id="node16" class="node"><title>Quality</title>
<path fill="none" stroke="black" d="M755.495,-1224C755.495,-1224 864.505,-1224 864.505,-1224 870.505,-1224 876.505,-1230 876.505,-1236 876.505,-1236 876.505,-1312 876.505,-1312 876.505,-1318 870.505,-1324 864.505,-1324 864.505,-1324 755.495,-1324 755.495,-1324 749.495,-1324 743.495,-1318 743.495,-1312 743.495,-1312 743.495,-1236 743.495,-1236 743.495,-1230 749.495,-1224 755.495,-1224"/>
<text text-anchor="middle" x="810" y="-1306" font-family="Times,serif" font-size="14.00">Quality</text>
<polyline fill="none" stroke="black" points="743.495,-1299.2 876.505,-1299.2 "/>
<text text-anchor="start" x="751.495" y="-1281.2" font-family="Times,serif" font-size="14.00">id :integer</text>
<text text-anchor="start" x="751.495" y="-1264.4" font-family="Times,serif" font-size="14.00">name :string</text>
<text text-anchor="start" x="751.495" y="-1247.6" font-family="Times,serif" font-size="14.00">created_at :datetime</text>
<text text-anchor="start" x="751.495" y="-1230.8" font-family="Times,serif" font-size="14.00">updated_at :datetime</text>
</g>
<!-- Receipt&#45;&gt;Pallet -->
<g id="edge14" class="edge"><title>Receipt&#45;&gt;Pallet</title>
<path fill="none" stroke="#4559aa" d="M621.629,-407.921C611.506,-368.385 599.655,-322.104 588.629,-279.048"/>
<ellipse fill="none" stroke="#4559aa" cx="622.646" cy="-411.893" rx="4.00001" ry="4.00001"/>
<polygon fill="#4559aa" stroke="#4559aa" points="588.624,-279.026 590.503,-268.222 587.384,-274.182 586.143,-269.338 586.143,-269.338 586.143,-269.338 587.384,-274.182 581.784,-270.454 588.624,-279.026 588.624,-279.026"/>
</g>
<!-- Receipt&#45;&gt;PackGroupReceipt -->
<g id="edge15" class="edge"><title>Receipt&#45;&gt;PackGroupReceipt</title>
<path fill="none" stroke="#11366b" d="M664.922,-407.758C673.458,-360.495 683.729,-303.622 692.664,-254.146"/>
<ellipse fill="none" stroke="#11366b" cx="664.187" cy="-411.832" rx="4.00001" ry="4.00001"/>
<polygon fill="#11366b" stroke="#11366b" points="692.713,-253.872 698.919,-244.831 693.602,-248.951 694.49,-244.031 694.49,-244.031 694.49,-244.031 693.602,-248.951 690.062,-243.231 692.713,-253.872 692.713,-253.872"/>
</g>
<!-- Region -->
<g id="node18" class="node"><title>Region</title>
<path fill="none" stroke="black" d="M453.495,-1224C453.495,-1224 562.505,-1224 562.505,-1224 568.505,-1224 574.505,-1230 574.505,-1236 574.505,-1236 574.505,-1312 574.505,-1312 574.505,-1318 568.505,-1324 562.505,-1324 562.505,-1324 453.495,-1324 453.495,-1324 447.495,-1324 441.495,-1318 441.495,-1312 441.495,-1312 441.495,-1236 441.495,-1236 441.495,-1230 447.495,-1224 453.495,-1224"/>
<text text-anchor="middle" x="508" y="-1306" font-family="Times,serif" font-size="14.00">Region</text>
<polyline fill="none" stroke="black" points="441.495,-1299.2 574.505,-1299.2 "/>
<text text-anchor="start" x="449.495" y="-1281.2" font-family="Times,serif" font-size="14.00">id :integer</text>
<text text-anchor="start" x="449.495" y="-1264.4" font-family="Times,serif" font-size="14.00">name :string</text>
<text text-anchor="start" x="449.495" y="-1247.6" font-family="Times,serif" font-size="14.00">created_at :datetime</text>
<text text-anchor="start" x="449.495" y="-1230.8" font-family="Times,serif" font-size="14.00">updated_at :datetime</text>
</g>
<!-- Region&#45;&gt;Company -->
<g id="edge16" class="edge"><title>Region&#45;&gt;Company</title>
<path fill="none" stroke="#86843c" d="M489.635,-1215.88C485.507,-1201.08 481.588,-1185.06 479,-1170 469.971,-1117.45 465.165,-1058.83 462.632,-1008.26"/>
<ellipse fill="none" stroke="#86843c" cx="490.845" cy="-1220.12" rx="4.00001" ry="4.00001"/>
<polygon fill="#86843c" stroke="#86843c" points="462.631,-1008.25 466.65,-998.047 462.393,-1003.26 462.155,-998.261 462.155,-998.261 462.155,-998.261 462.393,-1003.26 457.66,-998.476 462.631,-1008.25 462.631,-1008.25"/>
</g>
<!-- Region&#45;&gt;Commune -->
<g id="edge17" class="edge"><title>Region&#45;&gt;Commune</title>
<path fill="none" stroke="#f6f832" d="M524.62,-1216.07C528.09,-1204.18 531.779,-1191.55 535.346,-1179.33"/>
<ellipse fill="none" stroke="#f6f832" cx="523.478" cy="-1219.98" rx="4.00001" ry="4.00001"/>
<polygon fill="#f6f832" stroke="#f6f832" points="535.372,-1179.24 542.494,-1170.9 536.773,-1174.44 538.174,-1169.64 538.174,-1169.64 538.174,-1169.64 536.773,-1174.44 533.854,-1168.38 535.372,-1179.24 535.372,-1179.24"/>
</g>
<!-- Role -->
<g id="node19" class="node"><title>Role</title>
<path fill="none" stroke="black" d="M104.495,-822.6C104.495,-822.6 213.505,-822.6 213.505,-822.6 219.505,-822.6 225.505,-828.6 225.505,-834.6 225.505,-834.6 225.505,-927.4 225.505,-927.4 225.505,-933.4 219.505,-939.4 213.505,-939.4 213.505,-939.4 104.495,-939.4 104.495,-939.4 98.4946,-939.4 92.4946,-933.4 92.4946,-927.4 92.4946,-927.4 92.4946,-834.6 92.4946,-834.6 92.4946,-828.6 98.4946,-822.6 104.495,-822.6"/>
<text text-anchor="middle" x="159" y="-921.4" font-family="Times,serif" font-size="14.00">Role</text>
<polyline fill="none" stroke="black" points="92.4946,-914.6 225.505,-914.6 "/>
<text text-anchor="start" x="100.495" y="-896.6" font-family="Times,serif" font-size="14.00">id :integer</text>
<text text-anchor="start" x="100.495" y="-879.8" font-family="Times,serif" font-size="14.00">name :string</text>
<text text-anchor="start" x="100.495" y="-863" font-family="Times,serif" font-size="14.00">description :string</text>
<text text-anchor="start" x="100.495" y="-846.2" font-family="Times,serif" font-size="14.00">created_at :datetime</text>
<text text-anchor="start" x="100.495" y="-829.4" font-family="Times,serif" font-size="14.00">updated_at :datetime</text>
</g>
<!-- Role&#45;&gt;User -->
<g id="edge18" class="edge"><title>Role&#45;&gt;User</title>
<path fill="none" stroke="#6969ef" d="M176.06,-812.669C182.888,-785.718 191.161,-753.066 199.717,-719.297"/>
<polygon fill="#6969ef" stroke="#6969ef" points="176.041,-812.745 169.222,-821.333 174.812,-817.591 173.584,-822.438 173.584,-822.438 173.584,-822.438 174.812,-817.591 177.947,-823.544 176.041,-812.745 176.041,-812.745"/>
<polygon fill="#6969ef" stroke="#6969ef" points="199.802,-718.962 206.62,-710.374 201.03,-714.116 202.258,-709.269 202.258,-709.269 202.258,-709.269 201.03,-714.116 197.896,-708.163 199.802,-718.962 199.802,-718.962"/>
</g>
<!-- Role&#45;&gt;AccessRight -->
<g id="edge19" class="edge"><title>Role&#45;&gt;AccessRight</title>
<path fill="none" stroke="#72ba01" d="M142.555,-814.398C126.433,-750.082 101.877,-652.121 84.945,-584.576"/>
<ellipse fill="none" stroke="#72ba01" cx="143.598" cy="-818.558" rx="4.00001" ry="4.00001"/>
<polygon fill="#72ba01" stroke="#72ba01" points="84.9357,-584.539 86.8691,-573.745 83.7199,-579.689 82.5041,-574.839 82.5041,-574.839 82.5041,-574.839 83.7199,-579.689 78.1392,-575.933 84.9357,-584.539 84.9357,-584.539"/>
</g>
<!-- Setting -->
<g id="node21" class="node"><title>Setting</title>
<path fill="none" stroke="black" d="M906.495,-1207.2C906.495,-1207.2 1015.51,-1207.2 1015.51,-1207.2 1021.51,-1207.2 1027.51,-1213.2 1027.51,-1219.2 1027.51,-1219.2 1027.51,-1328.8 1027.51,-1328.8 1027.51,-1334.8 1021.51,-1340.8 1015.51,-1340.8 1015.51,-1340.8 906.495,-1340.8 906.495,-1340.8 900.495,-1340.8 894.495,-1334.8 894.495,-1328.8 894.495,-1328.8 894.495,-1219.2 894.495,-1219.2 894.495,-1213.2 900.495,-1207.2 906.495,-1207.2"/>
<text text-anchor="middle" x="961" y="-1322.8" font-family="Times,serif" font-size="14.00">Setting</text>
<polyline fill="none" stroke="black" points="894.495,-1316 1027.51,-1316 "/>
<text text-anchor="start" x="902.495" y="-1298" font-family="Times,serif" font-size="14.00">id :integer</text>
<text text-anchor="start" x="902.495" y="-1281.2" font-family="Times,serif" font-size="14.00">key :string</text>
<text text-anchor="start" x="902.495" y="-1264.4" font-family="Times,serif" font-size="14.00">value :string</text>
<text text-anchor="start" x="902.495" y="-1247.6" font-family="Times,serif" font-size="14.00">company_id :integer</text>
<text text-anchor="start" x="902.495" y="-1230.8" font-family="Times,serif" font-size="14.00">created_at :datetime</text>
<text text-anchor="start" x="902.495" y="-1214" font-family="Times,serif" font-size="14.00">updated_at :datetime</text>
</g>
</g>
</svg>
