<?xml version="1.0" encoding="UTF-8" standalone="no"?>
<!DOCTYPE svg PUBLIC "-//W3C//DTD SVG 1.1//EN"
 "http://www.w3.org/Graphics/SVG/1.1/DTD/svg11.dtd">
<!-- Generated by graphviz version 2.30.1 (20130524.0532)
 -->
<!-- Title: models_diagram Pages: 1 -->
<svg width="898pt" height="454pt"
 viewBox="0.00 0.00 898.00 454.00" xmlns="http://www.w3.org/2000/svg" xmlns:xlink="http://www.w3.org/1999/xlink">
<g id="graph0" class="graph" transform="scale(1 1) rotate(0) translate(4 450)">
<title>models_diagram</title>
<polygon fill="white" stroke="white" points="-4,5 -4,-450 895,-450 895,5 -4,5"/>
<!-- _diagram_info -->
<g id="node1" class="node"><title>_diagram_info</title>
<text text-anchor="start" x="156.312" y="-429" font-family="Times,serif" font-size="13.00">Models diagram</text>
<text text-anchor="start" x="156.312" y="-413.4" font-family="Times,serif" font-size="13.00">Date: May 25 2013 &#45; 16:58</text>
<text text-anchor="start" x="156.312" y="-397.8" font-family="Times,serif" font-size="13.00">Migration version: 20130525205616</text>
<text text-anchor="start" x="156.312" y="-382.2" font-family="Times,serif" font-size="13.00">Generated by RailRoady 1.1.0</text>
<text text-anchor="start" x="156.312" y="-366.6" font-family="Times,serif" font-size="13.00">http://railroady.prestonlee.com</text>
</g>
<!-- Ability -->
<g id="node2" class="node"><title>Ability</title>
<polygon fill="none" stroke="black" points="429.255,-421 374.745,-421 374.745,-385 429.255,-385 429.255,-421"/>
<text text-anchor="middle" x="402" y="-397.4" font-family="Times,serif" font-size="14.00">Ability</text>
</g>
<!-- AccessRight -->
<g id="node3" class="node"><title>AccessRight</title>
<ellipse fill="none" stroke="black" cx="164" cy="-162" rx="59.2755" ry="18"/>
<text text-anchor="middle" x="164" y="-156.4" font-family="Times,serif" font-size="14.00">AccessRight</text>
</g>
<!-- Commune -->
<g id="node4" class="node"><title>Commune</title>
<ellipse fill="none" stroke="black" cx="528" cy="-306" rx="50.9099" ry="18"/>
<text text-anchor="middle" x="528" y="-300.4" font-family="Times,serif" font-size="14.00">Commune</text>
</g>
<!-- Producer -->
<g id="node16" class="node"><title>Producer</title>
<ellipse fill="none" stroke="black" cx="660" cy="-90" rx="45.3464" ry="18"/>
<text text-anchor="middle" x="660" y="-84.4" font-family="Times,serif" font-size="14.00">Producer</text>
</g>
<!-- Commune&#45;&gt;Producer -->
<g id="edge1" class="edge"><title>Commune&#45;&gt;Producer</title>
<path fill="none" stroke="#e56be9" d="M542.562,-281.392C567.579,-240.833 618.51,-158.264 644.294,-116.463"/>
<ellipse fill="none" stroke="#e56be9" cx="540.458" cy="-284.803" rx="4.00002" ry="4.00002"/>
<polygon fill="#e56be9" stroke="#e56be9" points="644.44,-116.225 653.52,-110.077 647.065,-111.97 649.69,-107.714 649.69,-107.714 649.69,-107.714 647.065,-111.97 645.86,-105.352 644.44,-116.225 644.44,-116.225"/>
</g>
<!-- Destination -->
<g id="node7" class="node"><title>Destination</title>
<ellipse fill="none" stroke="black" cx="528" cy="-162" rx="55.3374" ry="18"/>
<text text-anchor="middle" x="528" y="-156.4" font-family="Times,serif" font-size="14.00">Destination</text>
</g>
<!-- Commune&#45;&gt;Destination -->
<g id="edge2" class="edge"><title>Commune&#45;&gt;Destination</title>
<path fill="none" stroke="#ec6f67" d="M528,-279.558C528,-254.444 528,-216.164 528,-190.393"/>
<ellipse fill="none" stroke="#ec6f67" cx="528" cy="-283.871" rx="4" ry="4"/>
<polygon fill="#ec6f67" stroke="#ec6f67" points="528,-190.189 532.5,-180.189 528,-185.189 528,-180.189 528,-180.189 528,-180.189 528,-185.189 523.5,-180.189 528,-190.189 528,-190.189"/>
</g>
<!-- Company -->
<g id="node5" class="node"><title>Company</title>
<ellipse fill="none" stroke="black" cx="444" cy="-234" rx="48.3834" ry="18"/>
<text text-anchor="middle" x="444" y="-228.4" font-family="Times,serif" font-size="14.00">Company</text>
</g>
<!-- Commune&#45;&gt;Company -->
<g id="edge3" class="edge"><title>Commune&#45;&gt;Company</title>
<path fill="none" stroke="#9cad0d" d="M502.536,-283.78C492.495,-275.413 480.955,-265.796 470.789,-257.324"/>
<ellipse fill="none" stroke="#9cad0d" cx="505.866" cy="-286.555" rx="4.00002" ry="4.00002"/>
<polygon fill="#9cad0d" stroke="#9cad0d" points="470.668,-257.223 465.866,-247.364 466.827,-254.022 462.985,-250.821 462.985,-250.821 462.985,-250.821 466.827,-254.022 460.105,-254.278 470.668,-257.223 470.668,-257.223"/>
</g>
<!-- Locality -->
<g id="node11" class="node"><title>Locality</title>
<ellipse fill="none" stroke="black" cx="723" cy="-234" rx="43.3212" ry="18"/>
<text text-anchor="middle" x="723" y="-228.4" font-family="Times,serif" font-size="14.00">Locality</text>
</g>
<!-- Commune&#45;&gt;Locality -->
<g id="edge4" class="edge"><title>Commune&#45;&gt;Locality</title>
<path fill="none" stroke="#f496ac" d="M569.95,-289.941C603.013,-278.072 648.868,-261.612 681.749,-249.808"/>
<ellipse fill="none" stroke="#f496ac" cx="566.178" cy="-291.295" rx="4.00001" ry="4.00001"/>
<polygon fill="#f496ac" stroke="#f496ac" points="682.097,-249.683 693.03,-250.54 686.803,-247.994 691.509,-246.304 691.509,-246.304 691.509,-246.304 686.803,-247.994 689.989,-242.069 682.097,-249.683 682.097,-249.683"/>
</g>
<!-- User -->
<g id="node23" class="node"><title>User</title>
<ellipse fill="none" stroke="black" cx="271" cy="-162" rx="28.9087" ry="18"/>
<text text-anchor="middle" x="271" y="-156.4" font-family="Times,serif" font-size="14.00">User</text>
</g>
<!-- Company&#45;&gt;User -->
<g id="edge5" class="edge"><title>Company&#45;&gt;User</title>
<path fill="none" stroke="#1a307a" d="M404.84,-217.155C374.544,-204.897 333.054,-188.108 304.335,-176.488"/>
<ellipse fill="none" stroke="#1a307a" cx="408.561" cy="-218.661" rx="4.00002" ry="4.00002"/>
<polygon fill="#1a307a" stroke="#1a307a" points="304.019,-176.36 296.437,-168.438 299.384,-174.485 294.749,-172.609 294.749,-172.609 294.749,-172.609 299.384,-174.485 293.061,-176.781 304.019,-176.36 304.019,-176.36"/>
</g>
<!-- Receipt -->
<g id="node18" class="node"><title>Receipt</title>
<ellipse fill="none" stroke="black" cx="553" cy="-90" rx="40.2959" ry="18"/>
<text text-anchor="middle" x="553" y="-84.4" font-family="Times,serif" font-size="14.00">Receipt</text>
</g>
<!-- Company&#45;&gt;Receipt -->
<g id="edge6" class="edge"><title>Company&#45;&gt;Receipt</title>
<path fill="none" stroke="#47143e" d="M444.069,-207.725C445.3,-188.605 449.622,-162.563 463,-144 475.368,-126.838 495.155,-114.311 513.03,-105.758"/>
<ellipse fill="none" stroke="#47143e" cx="443.878" cy="-211.974" rx="4" ry="4"/>
<polygon fill="#47143e" stroke="#47143e" points="513.037,-105.755 524.003,-105.747 517.595,-103.7 522.153,-101.645 522.153,-101.645 522.153,-101.645 517.595,-103.7 520.304,-97.5427 513.037,-105.755 513.037,-105.755"/>
</g>
<!-- Dispatch -->
<g id="node8" class="node"><title>Dispatch</title>
<ellipse fill="none" stroke="black" cx="46" cy="-90" rx="45.0468" ry="18"/>
<text text-anchor="middle" x="46" y="-84.4" font-family="Times,serif" font-size="14.00">Dispatch</text>
</g>
<!-- Company&#45;&gt;Dispatch -->
<g id="edge7" class="edge"><title>Company&#45;&gt;Dispatch</title>
<path fill="none" stroke="#482ebe" d="M407.571,-215.923C388.781,-206.425 365.902,-193.759 347,-180 328.191,-166.308 329.8,-154.421 309,-144 224.729,-101.777 191.605,-130.202 100,-108 96.3971,-107.127 92.6836,-106.142 88.9703,-105.097"/>
<ellipse fill="none" stroke="#482ebe" cx="411.238" cy="-217.75" rx="4.00002" ry="4.00002"/>
<polygon fill="#482ebe" stroke="#482ebe" points="88.811,-105.05 80.4881,-97.9102 84.0144,-103.639 79.2178,-102.227 79.2178,-102.227 79.2178,-102.227 84.0144,-103.639 77.9474,-106.544 88.811,-105.05 88.811,-105.05"/>
</g>
<!-- Container -->
<g id="node6" class="node"><title>Container</title>
<ellipse fill="none" stroke="black" cx="841" cy="-162" rx="49.1761" ry="18"/>
<text text-anchor="middle" x="841" y="-156.4" font-family="Times,serif" font-size="14.00">Container</text>
</g>
<!-- Container&#45;&gt;Producer -->
<g id="edge8" class="edge"><title>Container&#45;&gt;Producer</title>
<path fill="none" stroke="#ea5f08" d="M798.866,-144.705C769.332,-133.283 730.067,-118.098 700.826,-106.789"/>
<polygon fill="#ea5f08" stroke="#ea5f08" points="798.895,-144.716 806.599,-152.521 803.559,-146.52 808.222,-148.324 808.222,-148.324 808.222,-148.324 803.559,-146.52 809.845,-144.126 798.895,-144.716 798.895,-144.716"/>
<polygon fill="#ea5f08" stroke="#ea5f08" points="700.65,-106.721 692.946,-98.9167 695.986,-104.917 691.323,-103.114 691.323,-103.114 691.323,-103.114 695.986,-104.917 689.7,-107.311 700.65,-106.721 700.65,-106.721"/>
</g>
<!-- Destination&#45;&gt;Dispatch -->
<g id="edge9" class="edge"><title>Destination&#45;&gt;Dispatch</title>
<path fill="none" stroke="#700db1" d="M472.721,-151.32C457.299,-148.771 440.518,-146.139 425,-144 281.033,-124.16 242.206,-137.962 100,-108 96.3213,-107.225 92.5364,-106.302 88.7591,-105.293"/>
<ellipse fill="none" stroke="#700db1" cx="476.703" cy="-151.984" rx="4.00001" ry="4.00001"/>
<polygon fill="#700db1" stroke="#700db1" points="88.4712,-105.21 80.0937,-98.1345 83.6639,-103.836 78.8565,-102.461 78.8565,-102.461 78.8565,-102.461 83.6639,-103.836 77.6194,-106.788 88.4712,-105.21 88.4712,-105.21"/>
</g>
<!-- Destination&#45;&gt;Producer -->
<g id="edge10" class="edge"><title>Destination&#45;&gt;Producer</title>
<path fill="none" stroke="#1bcb17" d="M562.947,-142.467C582.025,-132.35 605.587,-119.855 624.718,-109.71"/>
<ellipse fill="none" stroke="#1bcb17" cx="559.205" cy="-144.452" rx="4.00002" ry="4.00002"/>
<polygon fill="#1bcb17" stroke="#1bcb17" points="624.879,-109.625 635.822,-108.915 629.297,-107.282 633.714,-104.94 633.714,-104.94 633.714,-104.94 629.297,-107.282 631.606,-100.964 624.879,-109.625 624.879,-109.625"/>
</g>
<!-- Destination&#45;&gt;Receipt -->
<g id="edge11" class="edge"><title>Destination&#45;&gt;Receipt</title>
<path fill="none" stroke="#2fb6e5" d="M536.833,-136.267C538.95,-130.34 541.221,-123.981 543.372,-117.959"/>
<ellipse fill="none" stroke="#2fb6e5" cx="535.397" cy="-140.288" rx="4.00001" ry="4.00001"/>
<polygon fill="#2fb6e5" stroke="#2fb6e5" points="543.467,-117.693 551.068,-109.789 545.149,-112.984 546.83,-108.275 546.83,-108.275 546.83,-108.275 545.149,-112.984 542.592,-106.762 543.467,-117.693 543.467,-117.693"/>
</g>
<!-- Pallet -->
<g id="node15" class="node"><title>Pallet</title>
<ellipse fill="none" stroke="black" cx="298" cy="-18" rx="33.043" ry="18"/>
<text text-anchor="middle" x="298" y="-12.4" font-family="Times,serif" font-size="14.00">Pallet</text>
</g>
<!-- Dispatch&#45;&gt;Pallet -->
<g id="edge12" class="edge"><title>Dispatch&#45;&gt;Pallet</title>
<path fill="none" stroke="#7394a8" d="M87.7545,-75.5066C91.8796,-74.2785 96.0134,-73.0888 100,-72 168.224,-53.3678 187.485,-57.0587 255,-36 257.73,-35.1484 260.533,-34.2047 263.336,-33.2109"/>
<ellipse fill="none" stroke="#7394a8" cx="83.701" cy="-76.7372" rx="4.00001" ry="4.00001"/>
<polygon fill="#7394a8" stroke="#7394a8" points="263.387,-33.192 274.329,-33.9172 268.072,-31.4462 272.757,-29.7004 272.757,-29.7004 272.757,-29.7004 268.072,-31.4462 271.186,-25.4836 263.387,-33.192 263.387,-33.192"/>
</g>
<!-- PackGroupDispatch -->
<g id="node12" class="node"><title>PackGroupDispatch</title>
<ellipse fill="none" stroke="black" cx="158" cy="-18" rx="88.2174" ry="18"/>
<text text-anchor="middle" x="158" y="-12.4" font-family="Times,serif" font-size="14.00">PackGroupDispatch</text>
</g>
<!-- Dispatch&#45;&gt;PackGroupDispatch -->
<g id="edge13" class="edge"><title>Dispatch&#45;&gt;PackGroupDispatch</title>
<path fill="none" stroke="#f9ea05" d="M76.3382,-70.0386C90.7981,-61.0012 108.17,-50.1435 123.168,-40.7702"/>
<ellipse fill="none" stroke="#f9ea05" cx="72.5985" cy="-72.3759" rx="4.00002" ry="4.00002"/>
<polygon fill="#f9ea05" stroke="#f9ea05" points="123.203,-40.7479 134.069,-39.2638 127.443,-38.0978 131.683,-35.4478 131.683,-35.4478 131.683,-35.4478 127.443,-38.0978 129.298,-31.6318 123.203,-40.7479 123.203,-40.7479"/>
</g>
<!-- Grouping -->
<g id="node9" class="node"><title>Grouping</title>
<ellipse fill="none" stroke="black" cx="688" cy="-162" rx="48.0775" ry="18"/>
<text text-anchor="middle" x="688" y="-156.4" font-family="Times,serif" font-size="14.00">Grouping</text>
</g>
<!-- Grouping&#45;&gt;Producer -->
<g id="edge14" class="edge"><title>Grouping&#45;&gt;Producer</title>
<path fill="none" stroke="#8b160b" d="M677.43,-134.574C675.229,-129.073 672.909,-123.271 670.703,-117.758"/>
<polygon fill="#8b160b" stroke="#8b160b" points="677.508,-134.77 677.044,-145.726 679.365,-139.413 681.222,-144.055 681.222,-144.055 681.222,-144.055 679.365,-139.413 685.4,-142.384 677.508,-134.77 677.508,-134.77"/>
<polygon fill="#8b160b" stroke="#8b160b" points="670.624,-117.56 671.088,-106.604 668.767,-112.918 666.91,-108.275 666.91,-108.275 666.91,-108.275 668.767,-112.918 662.732,-109.947 670.624,-117.56 670.624,-117.56"/>
</g>
<!-- Kind -->
<g id="node10" class="node"><title>Kind</title>
<ellipse fill="none" stroke="black" cx="386" cy="-162" rx="30.0272" ry="18"/>
<text text-anchor="middle" x="386" y="-156.4" font-family="Times,serif" font-size="14.00">Kind</text>
</g>
<!-- Kind&#45;&gt;Producer -->
<g id="edge15" class="edge"><title>Kind&#45;&gt;Producer</title>
<path fill="none" stroke="#232037" d="M423.51,-152.331C466.695,-142.226 539.694,-124.766 602,-108 606.276,-106.849 610.719,-105.616 615.157,-104.359"/>
<polygon fill="#232037" stroke="#232037" points="423.458,-152.343 412.697,-150.233 418.589,-153.479 413.719,-154.615 413.719,-154.615 413.719,-154.615 418.589,-153.479 414.742,-158.997 423.458,-152.343 423.458,-152.343"/>
<polygon fill="#232037" stroke="#232037" points="615.187,-104.35 626.04,-105.915 619.992,-102.97 624.798,-101.59 624.798,-101.59 624.798,-101.59 619.992,-102.97 623.556,-97.2648 615.187,-104.35 615.187,-104.35"/>
</g>
<!-- Variety -->
<g id="node24" class="node"><title>Variety</title>
<ellipse fill="none" stroke="black" cx="456" cy="-90" rx="38.3853" ry="18"/>
<text text-anchor="middle" x="456" y="-84.4" font-family="Times,serif" font-size="14.00">Variety</text>
</g>
<!-- Kind&#45;&gt;Variety -->
<g id="edge16" class="edge"><title>Kind&#45;&gt;Variety</title>
<path fill="none" stroke="#921a79" d="M406.556,-140.444C414.868,-132.132 424.498,-122.502 433.039,-113.961"/>
<ellipse fill="none" stroke="#921a79" cx="403.674" cy="-143.326" rx="4.00002" ry="4.00002"/>
<polygon fill="#921a79" stroke="#921a79" points="433.132,-113.868 443.385,-109.979 436.668,-110.332 440.203,-106.797 440.203,-106.797 440.203,-106.797 436.668,-110.332 437.021,-103.615 433.132,-113.868 433.132,-113.868"/>
</g>
<!-- Season -->
<g id="node21" class="node"><title>Season</title>
<ellipse fill="none" stroke="black" cx="361" cy="-90" rx="38.0929" ry="18"/>
<text text-anchor="middle" x="361" y="-84.4" font-family="Times,serif" font-size="14.00">Season</text>
</g>
<!-- Kind&#45;&gt;Season -->
<g id="edge17" class="edge"><title>Kind&#45;&gt;Season</title>
<path fill="none" stroke="#4ec4a2" d="M377.225,-136.431C375.005,-130.214 372.612,-123.514 370.364,-117.22"/>
<ellipse fill="none" stroke="#4ec4a2" cx="378.603" cy="-140.288" rx="4.00001" ry="4.00001"/>
<polygon fill="#4ec4a2" stroke="#4ec4a2" points="370.36,-117.206 371.234,-106.275 368.678,-112.498 366.996,-107.789 366.996,-107.789 366.996,-107.789 368.678,-112.498 362.758,-109.303 370.36,-117.206 370.36,-117.206"/>
</g>
<!-- Kind&#45;&gt;Dispatch -->
<g id="edge18" class="edge"><title>Kind&#45;&gt;Dispatch</title>
<path fill="none" stroke="#048590" d="M354.356,-147.822C350.244,-146.392 346.053,-145.07 342,-144 236.865,-116.236 205.966,-132.402 100,-108 96.3873,-107.168 92.667,-106.212 88.9491,-105.187"/>
<ellipse fill="none" stroke="#048590" cx="358.355" cy="-149.29" rx="4.00001" ry="4.00001"/>
<polygon fill="#048590" stroke="#048590" points="88.7912,-105.141 80.4455,-98.028 83.9901,-103.745 79.189,-102.349 79.189,-102.349 79.189,-102.349 83.9901,-103.745 77.9325,-106.67 88.7912,-105.141 88.7912,-105.141"/>
</g>
<!-- Kind&#45;&gt;Receipt -->
<g id="edge19" class="edge"><title>Kind&#45;&gt;Receipt</title>
<path fill="none" stroke="#3fc6eb" d="M417.41,-147.834C445.124,-136.217 485.587,-119.257 515.095,-106.889"/>
<ellipse fill="none" stroke="#3fc6eb" cx="413.616" cy="-149.424" rx="4.00002" ry="4.00002"/>
<polygon fill="#3fc6eb" stroke="#3fc6eb" points="515.425,-106.75 526.387,-107.035 520.036,-104.817 524.647,-102.884 524.647,-102.884 524.647,-102.884 520.036,-104.817 522.907,-98.7343 515.425,-106.75 515.425,-106.75"/>
</g>
<!-- Locality&#45;&gt;Producer -->
<g id="edge20" class="edge"><title>Locality&#45;&gt;Producer</title>
<path fill="none" stroke="#750805" d="M738.088,-208.791C747.624,-190.142 756.218,-164.215 745,-144 735.83,-127.475 719.128,-115.429 702.942,-107.038"/>
<ellipse fill="none" stroke="#750805" cx="735.912" cy="-212.787" rx="4.00002" ry="4.00002"/>
<polygon fill="#750805" stroke="#750805" points="702.544,-106.846 695.482,-98.4572 698.038,-104.68 693.532,-102.513 693.532,-102.513 693.532,-102.513 698.038,-104.68 691.581,-106.568 702.544,-106.846 702.544,-106.846"/>
</g>
<!-- PackGroupReceipt -->
<g id="node13" class="node"><title>PackGroupReceipt</title>
<ellipse fill="none" stroke="black" cx="444" cy="-18" rx="83.4665" ry="18"/>
<text text-anchor="middle" x="444" y="-12.4" font-family="Times,serif" font-size="14.00">PackGroupReceipt</text>
</g>
<!-- PackType -->
<g id="node14" class="node"><title>PackType</title>
<ellipse fill="none" stroke="black" cx="158" cy="-90" rx="48.464" ry="18"/>
<text text-anchor="middle" x="158" y="-84.4" font-family="Times,serif" font-size="14.00">PackType</text>
</g>
<!-- PackType&#45;&gt;PackGroupReceipt -->
<g id="edge21" class="edge"><title>PackType&#45;&gt;PackGroupReceipt</title>
<path fill="none" stroke="#ba274e" d="M202.197,-75.7642C206.848,-74.4558 211.514,-73.1779 216,-72 270.014,-57.8185 331.736,-43.5905 377.327,-33.4521"/>
<ellipse fill="none" stroke="#ba274e" cx="198.267" cy="-76.8852" rx="4.00001" ry="4.00001"/>
<polygon fill="#ba274e" stroke="#ba274e" points="377.329,-33.4516 388.066,-35.6816 382.211,-32.3699 387.093,-31.2881 387.093,-31.2881 387.093,-31.2881 382.211,-32.3699 386.119,-26.8947 377.329,-33.4516 377.329,-33.4516"/>
</g>
<!-- PackType&#45;&gt;PackGroupDispatch -->
<g id="edge22" class="edge"><title>PackType&#45;&gt;PackGroupDispatch</title>
<path fill="none" stroke="#f19d66" d="M158,-63.6398C158,-58.0629 158,-52.1319 158,-46.4761"/>
<ellipse fill="none" stroke="#f19d66" cx="158" cy="-67.6966" rx="4" ry="4"/>
<polygon fill="#f19d66" stroke="#f19d66" points="158,-46.1043 162.5,-36.1043 158,-41.1043 158,-36.1043 158,-36.1043 158,-36.1043 158,-41.1043 153.5,-36.1044 158,-46.1043 158,-46.1043"/>
</g>
<!-- PackType&#45;&gt;Pallet -->
<g id="edge23" class="edge"><title>PackType&#45;&gt;Pallet</title>
<path fill="none" stroke="#a99551" d="M192.944,-71.528C215.147,-60.4265 243.692,-46.1538 265.423,-35.2886"/>
<ellipse fill="none" stroke="#a99551" cx="189.237" cy="-73.3814" rx="4.00002" ry="4.00002"/>
<polygon fill="#a99551" stroke="#a99551" points="265.635,-35.1825 276.592,-34.7352 270.107,-32.9464 274.579,-30.7103 274.579,-30.7103 274.579,-30.7103 270.107,-32.9464 272.567,-26.6853 265.635,-35.1825 265.635,-35.1825"/>
</g>
<!-- Quality -->
<g id="node17" class="node"><title>Quality</title>
<ellipse fill="none" stroke="black" cx="265" cy="-90" rx="40.0039" ry="18"/>
<text text-anchor="middle" x="265" y="-84.4" font-family="Times,serif" font-size="14.00">Quality</text>
</g>
<!-- Quality&#45;&gt;PackGroupReceipt -->
<g id="edge24" class="edge"><title>Quality&#45;&gt;PackGroupReceipt</title>
<path fill="none" stroke="#457364" d="M301.95,-74.5504C329.115,-63.927 366.283,-49.3923 395.785,-37.8549"/>
<ellipse fill="none" stroke="#457364" cx="297.883" cy="-76.1407" rx="4.00001" ry="4.00001"/>
<polygon fill="#457364" stroke="#457364" points="396.158,-37.7092 407.11,-38.2581 400.815,-35.8882 405.471,-34.0671 405.471,-34.0671 405.471,-34.0671 400.815,-35.8882 403.832,-29.8762 396.158,-37.7092 396.158,-37.7092"/>
</g>
<!-- Quality&#45;&gt;PackGroupDispatch -->
<g id="edge25" class="edge"><title>Quality&#45;&gt;PackGroupDispatch</title>
<path fill="none" stroke="#dc0f45" d="M236.49,-70.3487C222.697,-61.3252 206.046,-50.4318 191.635,-41.0045"/>
<ellipse fill="none" stroke="#dc0f45" cx="240" cy="-72.6446" rx="4.00002" ry="4.00002"/>
<polygon fill="#dc0f45" stroke="#dc0f45" points="191.366,-40.8285 185.462,-31.5881 187.182,-38.0912 182.998,-35.3539 182.998,-35.3539 182.998,-35.3539 187.182,-38.0912 180.535,-39.1196 191.366,-40.8285 191.366,-40.8285"/>
</g>
<!-- Quality&#45;&gt;Pallet -->
<g id="edge26" class="edge"><title>Quality&#45;&gt;Pallet</title>
<path fill="none" stroke="#10ab2c" d="M276.449,-64.7144C279.472,-58.3016 282.746,-51.3577 285.807,-44.8648"/>
<ellipse fill="none" stroke="#10ab2c" cx="274.694" cy="-68.4368" rx="4.00002" ry="4.00002"/>
<polygon fill="#10ab2c" stroke="#10ab2c" points="285.821,-44.8343 294.156,-37.7079 287.953,-40.3116 290.085,-35.789 290.085,-35.789 290.085,-35.789 287.953,-40.3116 286.015,-33.8701 285.821,-44.8343 285.821,-44.8343"/>
</g>
<!-- Receipt&#45;&gt;Pallet -->
<g id="edge27" class="edge"><title>Receipt&#45;&gt;Pallet</title>
<path fill="none" stroke="#413281" d="M514.866,-75.6179C510.875,-74.3426 506.866,-73.1123 503,-72 436.282,-52.8043 417.882,-54.6162 351,-36 345.894,-34.5789 340.544,-32.9865 335.288,-31.3613"/>
<ellipse fill="none" stroke="#413281" cx="518.671" cy="-76.8628" rx="4.00001" ry="4.00001"/>
<polygon fill="#413281" stroke="#413281" points="334.921,-31.2454 326.741,-23.9414 330.153,-29.7388 325.386,-28.2323 325.386,-28.2323 325.386,-28.2323 330.153,-29.7388 324.03,-32.5231 334.921,-31.2454 334.921,-31.2454"/>
</g>
<!-- Receipt&#45;&gt;PackGroupReceipt -->
<g id="edge28" class="edge"><title>Receipt&#45;&gt;PackGroupReceipt</title>
<path fill="none" stroke="#d4fac7" d="M523.957,-70.3487C509.906,-61.3252 492.944,-50.4318 478.264,-41.0045"/>
<ellipse fill="none" stroke="#d4fac7" cx="527.576" cy="-72.673" rx="4.00002" ry="4.00002"/>
<polygon fill="#d4fac7" stroke="#d4fac7" points="477.88,-40.7576 471.897,-31.5675 473.673,-38.0558 469.465,-35.3539 469.465,-35.3539 469.465,-35.3539 473.673,-38.0558 467.034,-39.1403 477.88,-40.7576 477.88,-40.7576"/>
</g>
<!-- Region -->
<g id="node19" class="node"><title>Region</title>
<ellipse fill="none" stroke="black" cx="487" cy="-403" rx="38.3993" ry="18"/>
<text text-anchor="middle" x="487" y="-397.4" font-family="Times,serif" font-size="14.00">Region</text>
</g>
<!-- Region&#45;&gt;Company -->
<g id="edge29" class="edge"><title>Region&#45;&gt;Company</title>
<path fill="none" stroke="#65d8bb" d="M480.543,-376.923C472.579,-345.995 459.096,-293.629 450.924,-261.889"/>
<ellipse fill="none" stroke="#65d8bb" cx="481.643" cy="-381.194" rx="4.00001" ry="4.00001"/>
<polygon fill="#65d8bb" stroke="#65d8bb" points="450.865,-261.661 452.729,-250.855 449.618,-256.819 448.371,-251.977 448.371,-251.977 448.371,-251.977 449.618,-256.819 444.013,-253.099 450.865,-261.661 450.865,-261.661"/>
</g>
<!-- Region&#45;&gt;Commune -->
<g id="edge30" class="edge"><title>Region&#45;&gt;Commune</title>
<path fill="none" stroke="#01a609" d="M497.695,-377.218C503.531,-363.697 510.753,-346.964 516.682,-333.224"/>
<ellipse fill="none" stroke="#01a609" cx="495.915" cy="-381.343" rx="4.00001" ry="4.00001"/>
<polygon fill="#01a609" stroke="#01a609" points="516.771,-333.018 524.865,-325.62 518.752,-328.428 520.733,-323.837 520.733,-323.837 520.733,-323.837 518.752,-328.428 516.602,-322.054 516.771,-333.018 516.771,-333.018"/>
</g>
<!-- Role -->
<g id="node20" class="node"><title>Role</title>
<ellipse fill="none" stroke="black" cx="218" cy="-234" rx="28.9157" ry="18"/>
<text text-anchor="middle" x="218" y="-228.4" font-family="Times,serif" font-size="14.00">Role</text>
</g>
<!-- Role&#45;&gt;User -->
<g id="edge31" class="edge"><title>Role&#45;&gt;User</title>
<path fill="none" stroke="#4f55c5" d="M235.915,-209.339C241.454,-202.023 247.555,-193.966 253.094,-186.65"/>
<polygon fill="#4f55c5" stroke="#4f55c5" points="235.799,-209.492 226.175,-214.748 232.781,-213.478 229.762,-217.465 229.762,-217.465 229.762,-217.465 232.781,-213.478 233.35,-220.181 235.799,-209.492 235.799,-209.492"/>
<polygon fill="#4f55c5" stroke="#4f55c5" points="253.234,-186.464 262.858,-181.208 256.252,-182.478 259.27,-178.492 259.27,-178.492 259.27,-178.492 256.252,-182.478 255.683,-175.775 253.234,-186.464 253.234,-186.464"/>
</g>
<!-- Role&#45;&gt;AccessRight -->
<g id="edge32" class="edge"><title>Role&#45;&gt;AccessRight</title>
<path fill="none" stroke="#26684e" d="M200.917,-210.855C195.376,-203.673 189.189,-195.652 183.487,-188.261"/>
<ellipse fill="none" stroke="#26684e" cx="203.572" cy="-214.298" rx="4.00002" ry="4.00002"/>
<polygon fill="#26684e" stroke="#26684e" points="183.193,-187.88 180.648,-177.213 180.139,-183.921 177.085,-179.962 177.085,-179.962 177.085,-179.962 180.139,-183.921 173.522,-182.71 183.193,-187.88 183.193,-187.88"/>
</g>
<!-- Setting -->
<g id="node22" class="node"><title>Setting</title>
<ellipse fill="none" stroke="black" cx="582" cy="-403" rx="38.0999" ry="18"/>
<text text-anchor="middle" x="582" y="-397.4" font-family="Times,serif" font-size="14.00">Setting</text>
</g>
<!-- User&#45;&gt;Dispatch -->
<g id="edge33" class="edge"><title>User&#45;&gt;Dispatch</title>
<path fill="none" stroke="#15e9d9" d="M240.591,-147.244C237.708,-146.092 234.813,-144.991 232,-144 174.645,-123.798 158.346,-125.133 100,-108 96.6448,-107.015 93.1793,-105.975 89.6988,-104.915"/>
<ellipse fill="none" stroke="#15e9d9" cx="244.429" cy="-148.837" rx="4.00002" ry="4.00002"/>
<polygon fill="#15e9d9" stroke="#15e9d9" points="89.4857,-104.849 81.2561,-97.6019 84.7077,-103.376 79.9298,-101.902 79.9298,-101.902 79.9298,-101.902 84.7077,-103.376 78.6036,-106.202 89.4857,-104.849 89.4857,-104.849"/>
</g>
<!-- User&#45;&gt;Receipt -->
<g id="edge34" class="edge"><title>User&#45;&gt;Receipt</title>
<path fill="none" stroke="#c99535" d="M306.041,-153.095C368.507,-138.989 493.49,-110.695 503,-108 506.176,-107.1 509.447,-106.117 512.724,-105.092"/>
<ellipse fill="none" stroke="#c99535" cx="301.923" cy="-154.024" rx="4.00001" ry="4.00001"/>
<polygon fill="#c99535" stroke="#c99535" points="512.97,-105.013 523.87,-106.214 517.727,-103.473 522.484,-101.933 522.484,-101.933 522.484,-101.933 517.727,-103.473 521.098,-97.6513 512.97,-105.013 512.97,-105.013"/>
</g>
<!-- Variety&#45;&gt;PackGroupReceipt -->
<g id="edge35" class="edge"><title>Variety&#45;&gt;PackGroupReceipt</title>
<path fill="none" stroke="#d49bc7" d="M451.653,-63.6398C450.672,-57.92 449.628,-51.8276 448.636,-46.0416"/>
<ellipse fill="none" stroke="#d49bc7" cx="452.358" cy="-67.7541" rx="4.00001" ry="4.00001"/>
<polygon fill="#d49bc7" stroke="#d49bc7" points="448.622,-45.9606 451.367,-35.344 447.777,-41.0324 446.932,-36.1043 446.932,-36.1043 446.932,-36.1043 447.777,-41.0324 442.497,-36.8647 448.622,-45.9606 448.622,-45.9606"/>
</g>
<!-- Variety&#45;&gt;PackGroupDispatch -->
<g id="edge36" class="edge"><title>Variety&#45;&gt;PackGroupDispatch</title>
<path fill="none" stroke="#90fd0f" d="M419.297,-75.4483C415.503,-74.2138 411.688,-73.0392 408,-72 349.87,-55.6209 282.875,-41.6753 232.878,-32.2063"/>
<ellipse fill="none" stroke="#90fd0f" cx="423.215" cy="-76.7663" rx="4.00001" ry="4.00001"/>
<polygon fill="#90fd0f" stroke="#90fd0f" points="232.623,-32.1586 223.625,-25.8909 227.709,-31.2361 222.795,-30.3136 222.795,-30.3136 222.795,-30.3136 227.709,-31.2361 221.965,-34.7364 232.623,-32.1586 232.623,-32.1586"/>
</g>
<!-- Variety&#45;&gt;Pallet -->
<g id="edge37" class="edge"><title>Variety&#45;&gt;Pallet</title>
<path fill="none" stroke="#52e12c" d="M421.164,-73.5661C394.615,-61.804 358.261,-45.6981 331.937,-34.0355"/>
<ellipse fill="none" stroke="#52e12c" cx="425.182" cy="-75.3463" rx="4.00002" ry="4.00002"/>
<polygon fill="#52e12c" stroke="#52e12c" points="331.872,-34.0068 324.552,-25.8418 327.301,-31.9815 322.73,-29.9561 322.73,-29.9561 322.73,-29.9561 327.301,-31.9815 320.907,-34.0704 331.872,-34.0068 331.872,-34.0068"/>
</g>
</g>
</svg>
