<?xml version="1.0" encoding="UTF-8" standalone="no"?>
<!DOCTYPE svg PUBLIC "-//W3C//DTD SVG 1.1//EN"
 "http://www.w3.org/Graphics/SVG/1.1/DTD/svg11.dtd">
<!-- Generated by graphviz version 2.30.1 (20130524.0532)
 -->
<!-- Title: models_diagram Pages: 1 -->
<svg width="831pt" height="382pt"
 viewBox="0.00 0.00 831.00 382.00" xmlns="http://www.w3.org/2000/svg" xmlns:xlink="http://www.w3.org/1999/xlink">
<g id="graph0" class="graph" transform="scale(1 1) rotate(0) translate(4 378)">
<title>models_diagram</title>
<polygon fill="white" stroke="white" points="-4,5 -4,-378 828,-378 828,5 -4,5"/>
<!-- _diagram_info -->
<g id="node1" class="node"><title>_diagram_info</title>
<text text-anchor="start" x="7.31226" y="-357" font-family="Times,serif" font-size="13.00">Models diagram</text>
<text text-anchor="start" x="7.31226" y="-341.4" font-family="Times,serif" font-size="13.00">Date: May 25 2013 &#45; 16:29</text>
<text text-anchor="start" x="7.31226" y="-325.8" font-family="Times,serif" font-size="13.00">Migration version: 20130525200207</text>
<text text-anchor="start" x="7.31226" y="-310.2" font-family="Times,serif" font-size="13.00">Generated by RailRoady 1.1.0</text>
<text text-anchor="start" x="7.31226" y="-294.6" font-family="Times,serif" font-size="13.00">http://railroady.prestonlee.com</text>
</g>
<!-- Ability -->
<g id="node2" class="node"><title>Ability</title>
<polygon fill="none" stroke="black" points="280.255,-349 225.745,-349 225.745,-313 280.255,-313 280.255,-349"/>
<text text-anchor="middle" x="253" y="-325.4" font-family="Times,serif" font-size="14.00">Ability</text>
</g>
<!-- AccessRight -->
<g id="node3" class="node"><title>AccessRight</title>
<ellipse fill="none" stroke="black" cx="98" cy="-90" rx="59.2755" ry="18"/>
<text text-anchor="middle" x="98" y="-84.4" font-family="Times,serif" font-size="14.00">AccessRight</text>
</g>
<!-- Commune -->
<g id="node4" class="node"><title>Commune</title>
<ellipse fill="none" stroke="black" cx="377" cy="-234" rx="50.9099" ry="18"/>
<text text-anchor="middle" x="377" y="-228.4" font-family="Times,serif" font-size="14.00">Commune</text>
</g>
<!-- Producer -->
<g id="node15" class="node"><title>Producer</title>
<ellipse fill="none" stroke="black" cx="571" cy="-162" rx="45.3464" ry="18"/>
<text text-anchor="middle" x="571" y="-156.4" font-family="Times,serif" font-size="14.00">Producer</text>
</g>
<!-- Commune&#45;&gt;Producer -->
<g id="edge1" class="edge"><title>Commune&#45;&gt;Producer</title>
<path fill="none" stroke="#185f1e" d="M419.55,-217.647C452.032,-205.927 496.563,-189.859 528.926,-178.181"/>
<ellipse fill="none" stroke="#185f1e" cx="415.446" cy="-219.128" rx="4.00001" ry="4.00001"/>
<polygon fill="#185f1e" stroke="#185f1e" points="529.146,-178.102 540.08,-178.941 533.849,-176.405 538.553,-174.708 538.553,-174.708 538.553,-174.708 533.849,-176.405 537.025,-170.475 529.146,-178.102 529.146,-178.102"/>
</g>
<!-- Destination -->
<g id="node7" class="node"><title>Destination</title>
<ellipse fill="none" stroke="black" cx="420" cy="-162" rx="55.3374" ry="18"/>
<text text-anchor="middle" x="420" y="-156.4" font-family="Times,serif" font-size="14.00">Destination</text>
</g>
<!-- Commune&#45;&gt;Destination -->
<g id="edge2" class="edge"><title>Commune&#45;&gt;Destination</title>
<path fill="none" stroke="#0e4fce" d="M391.744,-208.998C395.805,-202.387 400.224,-195.194 404.335,-188.502"/>
<ellipse fill="none" stroke="#0e4fce" cx="389.503" cy="-212.647" rx="4.00002" ry="4.00002"/>
<polygon fill="#0e4fce" stroke="#0e4fce" points="404.453,-188.31 413.521,-182.144 407.07,-184.049 409.687,-179.789 409.687,-179.789 409.687,-179.789 407.07,-184.049 405.852,-177.434 404.453,-188.31 404.453,-188.31"/>
</g>
<!-- Company -->
<g id="node5" class="node"><title>Company</title>
<ellipse fill="none" stroke="black" cx="298" cy="-162" rx="48.3834" ry="18"/>
<text text-anchor="middle" x="298" y="-156.4" font-family="Times,serif" font-size="14.00">Company</text>
</g>
<!-- Commune&#45;&gt;Company -->
<g id="edge3" class="edge"><title>Commune&#45;&gt;Company</title>
<path fill="none" stroke="#ca6266" d="M353.051,-211.78C343.702,-203.496 332.97,-193.986 323.479,-185.576"/>
<ellipse fill="none" stroke="#ca6266" cx="356.08" cy="-214.463" rx="4.00002" ry="4.00002"/>
<polygon fill="#ca6266" stroke="#ca6266" points="323.34,-185.453 318.84,-175.453 319.598,-182.137 315.855,-178.821 315.855,-178.821 315.855,-178.821 319.598,-182.137 312.871,-182.189 323.34,-185.453 323.34,-185.453"/>
</g>
<!-- User -->
<g id="node22" class="node"><title>User</title>
<ellipse fill="none" stroke="black" cx="205" cy="-90" rx="28.9087" ry="18"/>
<text text-anchor="middle" x="205" y="-84.4" font-family="Times,serif" font-size="14.00">User</text>
</g>
<!-- Company&#45;&gt;User -->
<g id="edge4" class="edge"><title>Company&#45;&gt;User</title>
<path fill="none" stroke="#c2bd70" d="M270.952,-140.641C258.343,-131.151 243.408,-119.909 230.941,-110.525"/>
<ellipse fill="none" stroke="#c2bd70" cx="274.164" cy="-143.059" rx="4.00002" ry="4.00002"/>
<polygon fill="#c2bd70" stroke="#c2bd70" points="230.753,-110.384 225.469,-100.775 226.758,-107.377 222.763,-104.37 222.763,-104.37 222.763,-104.37 226.758,-107.377 220.057,-107.965 230.753,-110.384 230.753,-110.384"/>
</g>
<!-- Receipt -->
<g id="node17" class="node"><title>Receipt</title>
<ellipse fill="none" stroke="black" cx="402" cy="-90" rx="40.2959" ry="18"/>
<text text-anchor="middle" x="402" y="-84.4" font-family="Times,serif" font-size="14.00">Receipt</text>
</g>
<!-- Company&#45;&gt;Receipt -->
<g id="edge5" class="edge"><title>Company&#45;&gt;Receipt</title>
<path fill="none" stroke="#b8d71e" d="M327.279,-141.293C341.27,-131.876 357.991,-120.621 372.065,-111.148"/>
<ellipse fill="none" stroke="#b8d71e" cx="323.629" cy="-143.75" rx="4.00002" ry="4.00002"/>
<polygon fill="#b8d71e" stroke="#b8d71e" points="372.142,-111.096 382.951,-109.246 376.29,-108.305 380.438,-105.513 380.438,-105.513 380.438,-105.513 376.29,-108.305 377.926,-101.78 372.142,-111.096 372.142,-111.096"/>
</g>
<!-- Dispatch -->
<g id="node8" class="node"><title>Dispatch</title>
<ellipse fill="none" stroke="black" cx="298" cy="-90" rx="45.0468" ry="18"/>
<text text-anchor="middle" x="298" y="-84.4" font-family="Times,serif" font-size="14.00">Dispatch</text>
</g>
<!-- Company&#45;&gt;Dispatch -->
<g id="edge6" class="edge"><title>Company&#45;&gt;Dispatch</title>
<path fill="none" stroke="#0da431" d="M298,-135.64C298,-130.063 298,-124.132 298,-118.476"/>
<ellipse fill="none" stroke="#0da431" cx="298" cy="-139.697" rx="4" ry="4"/>
<polygon fill="#0da431" stroke="#0da431" points="298,-118.104 302.5,-108.104 298,-113.104 298,-108.104 298,-108.104 298,-108.104 298,-113.104 293.5,-108.104 298,-118.104 298,-118.104"/>
</g>
<!-- Container -->
<g id="node6" class="node"><title>Container</title>
<ellipse fill="none" stroke="black" cx="495" cy="-234" rx="49.1761" ry="18"/>
<text text-anchor="middle" x="495" y="-228.4" font-family="Times,serif" font-size="14.00">Container</text>
</g>
<!-- Container&#45;&gt;Producer -->
<g id="edge7" class="edge"><title>Container&#45;&gt;Producer</title>
<path fill="none" stroke="#760ca6" d="M519.637,-210.308C528.185,-202.435 537.766,-193.61 546.318,-185.733"/>
<polygon fill="#760ca6" stroke="#760ca6" points="519.601,-210.341 509.197,-213.806 515.923,-213.729 512.246,-217.116 512.246,-217.116 512.246,-217.116 515.923,-213.729 515.294,-220.426 519.601,-210.341 519.601,-210.341"/>
<polygon fill="#760ca6" stroke="#760ca6" points="546.467,-185.596 556.871,-182.131 550.145,-182.209 553.823,-178.821 553.823,-178.821 553.823,-178.821 550.145,-182.209 550.774,-175.511 546.467,-185.596 546.467,-185.596"/>
</g>
<!-- Pallet -->
<g id="node14" class="node"><title>Pallet</title>
<ellipse fill="none" stroke="black" cx="350" cy="-18" rx="33.043" ry="18"/>
<text text-anchor="middle" x="350" y="-12.4" font-family="Times,serif" font-size="14.00">Pallet</text>
</g>
<!-- Dispatch&#45;&gt;Pallet -->
<g id="edge8" class="edge"><title>Dispatch&#45;&gt;Pallet</title>
<path fill="none" stroke="#df6e0f" d="M315.299,-65.7127C320.683,-58.4653 326.629,-50.4606 332.056,-43.1553"/>
<ellipse fill="none" stroke="#df6e0f" cx="312.709" cy="-69.2" rx="4.00002" ry="4.00002"/>
<polygon fill="#df6e0f" stroke="#df6e0f" points="332.16,-43.0156 341.735,-37.6716 335.141,-39.0018 338.123,-34.9881 338.123,-34.9881 338.123,-34.9881 335.141,-39.0018 334.511,-32.3046 332.16,-43.0156 332.16,-43.0156"/>
</g>
<!-- PackGroupDispatch -->
<g id="node11" class="node"><title>PackGroupDispatch</title>
<ellipse fill="none" stroke="black" cx="210" cy="-18" rx="88.2174" ry="18"/>
<text text-anchor="middle" x="210" y="-12.4" font-family="Times,serif" font-size="14.00">PackGroupDispatch</text>
</g>
<!-- Dispatch&#45;&gt;PackGroupDispatch -->
<g id="edge9" class="edge"><title>Dispatch&#45;&gt;PackGroupDispatch</title>
<path fill="none" stroke="#2f2986" d="M271.909,-68.2454C261.511,-59.9745 249.504,-50.4238 238.848,-41.9474"/>
<ellipse fill="none" stroke="#2f2986" cx="275.34" cy="-70.9746" rx="4.00002" ry="4.00002"/>
<polygon fill="#2f2986" stroke="#2f2986" points="238.838,-41.9392 233.813,-32.1922 234.925,-38.8266 231.012,-35.7139 231.012,-35.7139 231.012,-35.7139 234.925,-38.8266 228.21,-39.2356 238.838,-41.9392 238.838,-41.9392"/>
</g>
<!-- Grouping -->
<g id="node9" class="node"><title>Grouping</title>
<ellipse fill="none" stroke="black" cx="610" cy="-234" rx="48.0775" ry="18"/>
<text text-anchor="middle" x="610" y="-228.4" font-family="Times,serif" font-size="14.00">Grouping</text>
</g>
<!-- Grouping&#45;&gt;Producer -->
<g id="edge10" class="edge"><title>Grouping&#45;&gt;Producer</title>
<path fill="none" stroke="#6680df" d="M595.675,-207.289C592.32,-201.267 588.745,-194.851 585.388,-188.824"/>
<polygon fill="#6680df" stroke="#6680df" points="595.692,-207.319 596.628,-218.245 598.126,-211.687 600.559,-216.055 600.559,-216.055 600.559,-216.055 598.126,-211.687 604.49,-213.865 595.692,-207.319 595.692,-207.319"/>
<polygon fill="#6680df" stroke="#6680df" points="585.221,-188.525 584.285,-177.599 582.787,-184.157 580.354,-179.789 580.354,-179.789 580.354,-179.789 582.787,-184.157 576.423,-181.979 585.221,-188.525 585.221,-188.525"/>
</g>
<!-- Kind -->
<g id="node10" class="node"><title>Kind</title>
<ellipse fill="none" stroke="black" cx="706" cy="-234" rx="30.0272" ry="18"/>
<text text-anchor="middle" x="706" y="-228.4" font-family="Times,serif" font-size="14.00">Kind</text>
</g>
<!-- Kind&#45;&gt;Producer -->
<g id="edge11" class="edge"><title>Kind&#45;&gt;Producer</title>
<path fill="none" stroke="#8c65ef" d="M674.867,-216.857C654.507,-206.3 627.853,-192.479 606.644,-181.482"/>
<polygon fill="#8c65ef" stroke="#8c65ef" points="675.132,-216.994 681.938,-225.592 679.571,-219.296 684.009,-221.597 684.009,-221.597 684.009,-221.597 679.571,-219.296 686.081,-217.603 675.132,-216.994 675.132,-216.994"/>
<polygon fill="#8c65ef" stroke="#8c65ef" points="606.501,-181.408 599.695,-172.81 602.063,-179.107 597.624,-176.805 597.624,-176.805 597.624,-176.805 602.063,-179.107 595.552,-180.8 606.501,-181.408 606.501,-181.408"/>
</g>
<!-- Variety -->
<g id="node23" class="node"><title>Variety</title>
<ellipse fill="none" stroke="black" cx="690" cy="-162" rx="38.3853" ry="18"/>
<text text-anchor="middle" x="690" y="-156.4" font-family="Times,serif" font-size="14.00">Variety</text>
</g>
<!-- Kind&#45;&gt;Variety -->
<g id="edge12" class="edge"><title>Kind&#45;&gt;Variety</title>
<path fill="none" stroke="#31286d" d="M700.283,-207.987C698.971,-202.249 697.571,-196.121 696.238,-190.293"/>
<ellipse fill="none" stroke="#31286d" cx="701.236" cy="-212.156" rx="4.00001" ry="4.00001"/>
<polygon fill="#31286d" stroke="#31286d" points="696.177,-190.024 698.336,-179.273 695.063,-185.15 693.949,-180.275 693.949,-180.275 693.949,-180.275 695.063,-185.15 689.562,-181.278 696.177,-190.024 696.177,-190.024"/>
</g>
<!-- Season -->
<g id="node20" class="node"><title>Season</title>
<ellipse fill="none" stroke="black" cx="785" cy="-162" rx="38.0929" ry="18"/>
<text text-anchor="middle" x="785" y="-156.4" font-family="Times,serif" font-size="14.00">Season</text>
</g>
<!-- Kind&#45;&gt;Season -->
<g id="edge13" class="edge"><title>Kind&#45;&gt;Season</title>
<path fill="none" stroke="#be1bee" d="M728.608,-212.968C738.455,-204.243 750.028,-193.988 760.119,-185.047"/>
<ellipse fill="none" stroke="#be1bee" cx="725.363" cy="-215.843" rx="4.00002" ry="4.00002"/>
<polygon fill="#be1bee" stroke="#be1bee" points="760.348,-184.844 770.817,-181.58 764.09,-181.528 767.832,-178.212 767.832,-178.212 767.832,-178.212 764.09,-181.528 764.848,-174.844 760.348,-184.844 760.348,-184.844"/>
</g>
<!-- PackGroupReceipt -->
<g id="node12" class="node"><title>PackGroupReceipt</title>
<ellipse fill="none" stroke="black" cx="485" cy="-18" rx="83.4665" ry="18"/>
<text text-anchor="middle" x="485" y="-12.4" font-family="Times,serif" font-size="14.00">PackGroupReceipt</text>
</g>
<!-- PackType -->
<g id="node13" class="node"><title>PackType</title>
<ellipse fill="none" stroke="black" cx="444" cy="-331" rx="48.464" ry="18"/>
<text text-anchor="middle" x="444" y="-325.4" font-family="Times,serif" font-size="14.00">PackType</text>
</g>
<!-- Quality -->
<g id="node16" class="node"><title>Quality</title>
<ellipse fill="none" stroke="black" cx="551" cy="-331" rx="40.0039" ry="18"/>
<text text-anchor="middle" x="551" y="-325.4" font-family="Times,serif" font-size="14.00">Quality</text>
</g>
<!-- Receipt&#45;&gt;Pallet -->
<g id="edge14" class="edge"><title>Receipt&#45;&gt;Pallet</title>
<path fill="none" stroke="#4e79b7" d="M384.96,-66.0612C379.564,-58.7973 373.581,-50.7437 368.113,-43.3822"/>
<ellipse fill="none" stroke="#4e79b7" cx="387.554" cy="-69.5537" rx="4.00002" ry="4.00002"/>
<polygon fill="#4e79b7" stroke="#4e79b7" points="367.958,-43.1748 365.607,-32.4638 364.977,-39.161 361.995,-35.1473 361.995,-35.1473 361.995,-35.1473 364.977,-39.161 358.383,-37.8308 367.958,-43.1748 367.958,-43.1748"/>
</g>
<!-- Receipt&#45;&gt;PackGroupReceipt -->
<g id="edge15" class="edge"><title>Receipt&#45;&gt;PackGroupReceipt</title>
<path fill="none" stroke="#d3540e" d="M426.244,-68.5534C436.041,-60.2906 447.4,-50.7111 457.504,-42.1896"/>
<ellipse fill="none" stroke="#d3540e" cx="423.068" cy="-71.2322" rx="4.00002" ry="4.00002"/>
<polygon fill="#d3540e" stroke="#d3540e" points="457.64,-42.0749 468.185,-39.0678 461.462,-38.8514 465.284,-35.6278 465.284,-35.6278 465.284,-35.6278 461.462,-38.8514 462.383,-32.1879 457.64,-42.0749 457.64,-42.0749"/>
</g>
<!-- Region -->
<g id="node18" class="node"><title>Region</title>
<ellipse fill="none" stroke="black" cx="338" cy="-331" rx="38.3993" ry="18"/>
<text text-anchor="middle" x="338" y="-325.4" font-family="Times,serif" font-size="14.00">Region</text>
</g>
<!-- Region&#45;&gt;Company -->
<g id="edge16" class="edge"><title>Region&#45;&gt;Company</title>
<path fill="none" stroke="#e39fb6" d="M330.929,-305.068C326.687,-289.799 321.3,-269.829 317,-252 312.03,-231.395 307.052,-207.944 303.438,-190.289"/>
<ellipse fill="none" stroke="#e39fb6" cx="332.076" cy="-309.172" rx="4.00001" ry="4.00001"/>
<polygon fill="#e39fb6" stroke="#e39fb6" points="303.364,-189.923 305.787,-179.228 302.37,-185.023 301.377,-180.122 301.377,-180.122 301.377,-180.122 302.37,-185.023 296.966,-181.017 303.364,-189.923 303.364,-189.923"/>
</g>
<!-- Region&#45;&gt;Commune -->
<g id="edge17" class="edge"><title>Region&#45;&gt;Commune</title>
<path fill="none" stroke="#a99b78" d="M348.174,-305.218C353.724,-291.697 360.594,-274.964 366.234,-261.224"/>
<ellipse fill="none" stroke="#a99b78" cx="346.492" cy="-309.316" rx="4.00001" ry="4.00001"/>
<polygon fill="#a99b78" stroke="#a99b78" points="366.29,-261.088 374.251,-253.546 368.189,-256.462 370.088,-251.837 370.088,-251.837 370.088,-251.837 368.189,-256.462 365.925,-250.128 366.29,-261.088 366.29,-261.088"/>
</g>
<!-- Role -->
<g id="node19" class="node"><title>Role</title>
<ellipse fill="none" stroke="black" cx="150" cy="-162" rx="28.9157" ry="18"/>
<text text-anchor="middle" x="150" y="-156.4" font-family="Times,serif" font-size="14.00">Role</text>
</g>
<!-- Role&#45;&gt;User -->
<g id="edge18" class="edge"><title>Role&#45;&gt;User</title>
<path fill="none" stroke="#ebfa1b" d="M168.591,-137.339C174.339,-130.023 180.67,-121.966 186.418,-114.65"/>
<polygon fill="#ebfa1b" stroke="#ebfa1b" points="168.385,-137.602 158.668,-142.685 165.295,-141.533 162.206,-145.465 162.206,-145.465 162.206,-145.465 165.295,-141.533 165.745,-148.245 168.385,-137.602 168.385,-137.602"/>
<polygon fill="#ebfa1b" stroke="#ebfa1b" points="186.65,-114.355 196.366,-109.272 189.739,-110.423 192.828,-106.492 192.828,-106.492 192.828,-106.492 189.739,-110.423 189.289,-103.712 186.65,-114.355 186.65,-114.355"/>
</g>
<!-- Role&#45;&gt;AccessRight -->
<g id="edge19" class="edge"><title>Role&#45;&gt;AccessRight</title>
<path fill="none" stroke="#113801" d="M133.549,-138.855C128.214,-131.673 122.256,-123.652 116.765,-116.261"/>
<ellipse fill="none" stroke="#113801" cx="136.074" cy="-142.254" rx="4.00002" ry="4.00002"/>
<polygon fill="#113801" stroke="#113801" points="116.563,-115.989 114.213,-105.278 113.582,-111.976 110.6,-107.962 110.6,-107.962 110.6,-107.962 113.582,-111.976 106.988,-110.645 116.563,-115.989 116.563,-115.989"/>
</g>
<!-- Setting -->
<g id="node21" class="node"><title>Setting</title>
<ellipse fill="none" stroke="black" cx="647" cy="-331" rx="38.0999" ry="18"/>
<text text-anchor="middle" x="647" y="-325.4" font-family="Times,serif" font-size="14.00">Setting</text>
</g>
</g>
</svg>
