<?xml version="1.0" encoding="UTF-8" standalone="no"?>
<!DOCTYPE svg PUBLIC "-//W3C//DTD SVG 1.1//EN"
 "http://www.w3.org/Graphics/SVG/1.1/DTD/svg11.dtd">
<!-- Generated by graphviz version 2.30.1 (20130524.0532)
 -->
<!-- Title: models_diagram Pages: 1 -->
<svg width="1328pt" height="1638pt"
 viewBox="0.00 0.00 1328.00 1638.00" xmlns="http://www.w3.org/2000/svg" xmlns:xlink="http://www.w3.org/1999/xlink">
<g id="graph0" class="graph" transform="scale(1 1) rotate(0) translate(4 1634)">
<title>models_diagram</title>
<polygon fill="white" stroke="white" points="-4,5 -4,-1634 1325,-1634 1325,5 -4,5"/>
<!-- _diagram_info -->
<g id="node1" class="node"><title>_diagram_info</title>
<text text-anchor="start" x="469.312" y="-1588" font-family="Times,serif" font-size="13.00">Models diagram</text>
<text text-anchor="start" x="469.312" y="-1572.4" font-family="Times,serif" font-size="13.00">Date: May 25 2013 &#45; 16:58</text>
<text text-anchor="start" x="469.312" y="-1556.8" font-family="Times,serif" font-size="13.00">Migration version: 20130525205616</text>
<text text-anchor="start" x="469.312" y="-1541.2" font-family="Times,serif" font-size="13.00">Generated by RailRoady 1.1.0</text>
<text text-anchor="start" x="469.312" y="-1525.6" font-family="Times,serif" font-size="13.00">http://railroady.prestonlee.com</text>
</g>
<!-- Ability -->
<g id="node2" class="node"><title>Ability</title>
<polygon fill="none" stroke="black" points="687.166,-1537.2 687.166,-1586.8 742.834,-1586.8 742.834,-1537.2 687.166,-1537.2"/>
<text text-anchor="middle" x="715" y="-1568.8" font-family="Times,serif" font-size="14.00">Ability</text>
<polyline fill="none" stroke="black" points="687.166,-1562 742.834,-1562 "/>
<text text-anchor="middle" x="715" y="-1544" font-family="Times,serif" font-size="14.00"> </text>
</g>
<!-- AccessRight -->
<g id="node3" class="node"><title>AccessRight</title>
<path fill="none" stroke="black" d="M215.495,-763.2C215.495,-763.2 324.505,-763.2 324.505,-763.2 330.505,-763.2 336.505,-769.2 336.505,-775.2 336.505,-775.2 336.505,-884.8 336.505,-884.8 336.505,-890.8 330.505,-896.8 324.505,-896.8 324.505,-896.8 215.495,-896.8 215.495,-896.8 209.495,-896.8 203.495,-890.8 203.495,-884.8 203.495,-884.8 203.495,-775.2 203.495,-775.2 203.495,-769.2 209.495,-763.2 215.495,-763.2"/>
<text text-anchor="middle" x="270" y="-878.8" font-family="Times,serif" font-size="14.00">AccessRight</text>
<polyline fill="none" stroke="black" points="203.495,-872 336.505,-872 "/>
<text text-anchor="start" x="211.495" y="-854" font-family="Times,serif" font-size="14.00">id :integer</text>
<text text-anchor="start" x="211.495" y="-837.2" font-family="Times,serif" font-size="14.00">model_name :string</text>
<text text-anchor="start" x="211.495" y="-820.4" font-family="Times,serif" font-size="14.00">created_at :datetime</text>
<text text-anchor="start" x="211.495" y="-803.6" font-family="Times,serif" font-size="14.00">updated_at :datetime</text>
<text text-anchor="start" x="211.495" y="-786.8" font-family="Times,serif" font-size="14.00">role_id :integer</text>
<text text-anchor="start" x="211.495" y="-770" font-family="Times,serif" font-size="14.00">action :string</text>
</g>
<!-- Commune -->
<g id="node4" class="node"><title>Commune</title>
<path fill="none" stroke="black" d="M821.495,-1340.6C821.495,-1340.6 930.505,-1340.6 930.505,-1340.6 936.505,-1340.6 942.505,-1346.6 942.505,-1352.6 942.505,-1352.6 942.505,-1445.4 942.505,-1445.4 942.505,-1451.4 936.505,-1457.4 930.505,-1457.4 930.505,-1457.4 821.495,-1457.4 821.495,-1457.4 815.495,-1457.4 809.495,-1451.4 809.495,-1445.4 809.495,-1445.4 809.495,-1352.6 809.495,-1352.6 809.495,-1346.6 815.495,-1340.6 821.495,-1340.6"/>
<text text-anchor="middle" x="876" y="-1439.4" font-family="Times,serif" font-size="14.00">Commune</text>
<polyline fill="none" stroke="black" points="809.495,-1432.6 942.505,-1432.6 "/>
<text text-anchor="start" x="817.495" y="-1414.6" font-family="Times,serif" font-size="14.00">id :integer</text>
<text text-anchor="start" x="817.495" y="-1397.8" font-family="Times,serif" font-size="14.00">name :string</text>
<text text-anchor="start" x="817.495" y="-1381" font-family="Times,serif" font-size="14.00">region_id :integer</text>
<text text-anchor="start" x="817.495" y="-1364.2" font-family="Times,serif" font-size="14.00">created_at :datetime</text>
<text text-anchor="start" x="817.495" y="-1347.4" font-family="Times,serif" font-size="14.00">updated_at :datetime</text>
</g>
<!-- Producer -->
<g id="node16" class="node"><title>Producer</title>
<path fill="none" stroke="black" d="M993.309,-306.6C993.309,-306.6 1118.69,-306.6 1118.69,-306.6 1124.69,-306.6 1130.69,-312.6 1130.69,-318.6 1130.69,-318.6 1130.69,-579.4 1130.69,-579.4 1130.69,-585.4 1124.69,-591.4 1118.69,-591.4 1118.69,-591.4 993.309,-591.4 993.309,-591.4 987.309,-591.4 981.309,-585.4 981.309,-579.4 981.309,-579.4 981.309,-318.6 981.309,-318.6 981.309,-312.6 987.309,-306.6 993.309,-306.6"/>
<text text-anchor="middle" x="1056" y="-573.4" font-family="Times,serif" font-size="14.00">Producer</text>
<polyline fill="none" stroke="black" points="981.309,-566.6 1130.69,-566.6 "/>
<text text-anchor="start" x="989.309" y="-548.6" font-family="Times,serif" font-size="14.00">id :integer</text>
<text text-anchor="start" x="989.309" y="-531.8" font-family="Times,serif" font-size="14.00">rut :string</text>
<text text-anchor="start" x="989.309" y="-515" font-family="Times,serif" font-size="14.00">name :string</text>
<text text-anchor="start" x="989.309" y="-498.2" font-family="Times,serif" font-size="14.00">line_of_business :string</text>
<text text-anchor="start" x="989.309" y="-481.4" font-family="Times,serif" font-size="14.00">commune_id :integer</text>
<text text-anchor="start" x="989.309" y="-464.6" font-family="Times,serif" font-size="14.00">address :string</text>
<text text-anchor="start" x="989.309" y="-447.8" font-family="Times,serif" font-size="14.00">email :string</text>
<text text-anchor="start" x="989.309" y="-431" font-family="Times,serif" font-size="14.00">phone :string</text>
<text text-anchor="start" x="989.309" y="-414.2" font-family="Times,serif" font-size="14.00">contact :text</text>
<text text-anchor="start" x="989.309" y="-397.4" font-family="Times,serif" font-size="14.00">sag_code :string</text>
<text text-anchor="start" x="989.309" y="-380.6" font-family="Times,serif" font-size="14.00">active :boolean</text>
<text text-anchor="start" x="989.309" y="-363.8" font-family="Times,serif" font-size="14.00">created_at :datetime</text>
<text text-anchor="start" x="989.309" y="-347" font-family="Times,serif" font-size="14.00">updated_at :datetime</text>
<text text-anchor="start" x="989.309" y="-330.2" font-family="Times,serif" font-size="14.00">is_deleted :boolean</text>
<text text-anchor="start" x="989.309" y="-313.4" font-family="Times,serif" font-size="14.00">locality_id :integer</text>
</g>
<!-- Commune&#45;&gt;Producer -->
<g id="edge1" class="edge"><title>Commune&#45;&gt;Producer</title>
<path fill="none" stroke="#40bac3" d="M891.228,-1332.09C907.608,-1259.08 933.398,-1137.7 949,-1032 975.342,-853.543 946.774,-803.616 988,-628 990.054,-619.249 992.439,-610.351 995.06,-601.434"/>
<ellipse fill="none" stroke="#40bac3" cx="890.256" cy="-1336.41" rx="4.00001" ry="4.00001"/>
<polygon fill="#40bac3" stroke="#40bac3" points="995.092,-601.329 1002.3,-593.064 996.542,-596.544 997.992,-591.759 997.992,-591.759 997.992,-591.759 996.542,-596.544 993.686,-590.453 995.092,-601.329 995.092,-601.329"/>
</g>
<!-- Destination -->
<g id="node7" class="node"><title>Destination</title>
<path fill="none" stroke="black" d="M817.322,-712.8C817.322,-712.8 928.678,-712.8 928.678,-712.8 934.678,-712.8 940.678,-718.8 940.678,-724.8 940.678,-724.8 940.678,-935.2 940.678,-935.2 940.678,-941.2 934.678,-947.2 928.678,-947.2 928.678,-947.2 817.322,-947.2 817.322,-947.2 811.322,-947.2 805.322,-941.2 805.322,-935.2 805.322,-935.2 805.322,-724.8 805.322,-724.8 805.322,-718.8 811.322,-712.8 817.322,-712.8"/>
<text text-anchor="middle" x="873" y="-929.2" font-family="Times,serif" font-size="14.00">Destination</text>
<polyline fill="none" stroke="black" points="805.322,-922.4 940.678,-922.4 "/>
<text text-anchor="start" x="813.322" y="-904.4" font-family="Times,serif" font-size="14.00">id :integer</text>
<text text-anchor="start" x="813.322" y="-887.6" font-family="Times,serif" font-size="14.00">rut :string</text>
<text text-anchor="start" x="813.322" y="-870.8" font-family="Times,serif" font-size="14.00">name :string</text>
<text text-anchor="start" x="813.322" y="-854" font-family="Times,serif" font-size="14.00">commune_id :integer</text>
<text text-anchor="start" x="813.322" y="-837.2" font-family="Times,serif" font-size="14.00">address :string</text>
<text text-anchor="start" x="813.322" y="-820.4" font-family="Times,serif" font-size="14.00">email :string</text>
<text text-anchor="start" x="813.322" y="-803.6" font-family="Times,serif" font-size="14.00">phone :string</text>
<text text-anchor="start" x="813.322" y="-786.8" font-family="Times,serif" font-size="14.00">contact :text</text>
<text text-anchor="start" x="813.322" y="-770" font-family="Times,serif" font-size="14.00">active :boolean</text>
<text text-anchor="start" x="813.322" y="-753.2" font-family="Times,serif" font-size="14.00">created_at :datetime</text>
<text text-anchor="start" x="813.322" y="-736.4" font-family="Times,serif" font-size="14.00">updated_at :datetime</text>
<text text-anchor="start" x="813.322" y="-719.6" font-family="Times,serif" font-size="14.00">is_deleted :boolean</text>
</g>
<!-- Commune&#45;&gt;Destination -->
<g id="edge2" class="edge"><title>Commune&#45;&gt;Destination</title>
<path fill="none" stroke="#5615a9" d="M875.653,-1332.5C875.17,-1241.08 874.283,-1073.43 873.668,-957.279"/>
<ellipse fill="none" stroke="#5615a9" cx="875.675" cy="-1336.51" rx="4" ry="4"/>
<polygon fill="#5615a9" stroke="#5615a9" points="873.668,-957.257 878.115,-947.233 873.642,-952.257 873.615,-947.257 873.615,-947.257 873.615,-947.257 873.642,-952.257 869.115,-947.281 873.668,-957.257 873.668,-957.257"/>
</g>
<!-- Company -->
<g id="node5" class="node"><title>Company</title>
<path fill="none" stroke="black" d="M710.309,-1068.8C710.309,-1068.8 835.691,-1068.8 835.691,-1068.8 841.691,-1068.8 847.691,-1074.8 847.691,-1080.8 847.691,-1080.8 847.691,-1291.2 847.691,-1291.2 847.691,-1297.2 841.691,-1303.2 835.691,-1303.2 835.691,-1303.2 710.309,-1303.2 710.309,-1303.2 704.309,-1303.2 698.309,-1297.2 698.309,-1291.2 698.309,-1291.2 698.309,-1080.8 698.309,-1080.8 698.309,-1074.8 704.309,-1068.8 710.309,-1068.8"/>
<text text-anchor="middle" x="773" y="-1285.2" font-family="Times,serif" font-size="14.00">Company</text>
<polyline fill="none" stroke="black" points="698.309,-1278.4 847.691,-1278.4 "/>
<text text-anchor="start" x="706.309" y="-1260.4" font-family="Times,serif" font-size="14.00">id :integer</text>
<text text-anchor="start" x="706.309" y="-1243.6" font-family="Times,serif" font-size="14.00">name :string</text>
<text text-anchor="start" x="706.309" y="-1226.8" font-family="Times,serif" font-size="14.00">rut :integer</text>
<text text-anchor="start" x="706.309" y="-1210" font-family="Times,serif" font-size="14.00">address :string</text>
<text text-anchor="start" x="706.309" y="-1193.2" font-family="Times,serif" font-size="14.00">commune_id :string</text>
<text text-anchor="start" x="706.309" y="-1176.4" font-family="Times,serif" font-size="14.00">line_of_business :string</text>
<text text-anchor="start" x="706.309" y="-1159.6" font-family="Times,serif" font-size="14.00">phone :integer</text>
<text text-anchor="start" x="706.309" y="-1142.8" font-family="Times,serif" font-size="14.00">email :string</text>
<text text-anchor="start" x="706.309" y="-1126" font-family="Times,serif" font-size="14.00">created_at :datetime</text>
<text text-anchor="start" x="706.309" y="-1109.2" font-family="Times,serif" font-size="14.00">updated_at :datetime</text>
<text text-anchor="start" x="706.309" y="-1092.4" font-family="Times,serif" font-size="14.00">active :boolean</text>
<text text-anchor="start" x="706.309" y="-1075.6" font-family="Times,serif" font-size="14.00">region_id :integer</text>
</g>
<!-- Commune&#45;&gt;Company -->
<g id="edge3" class="edge"><title>Commune&#45;&gt;Company</title>
<path fill="none" stroke="#012294" d="M844.214,-1332.88C841.044,-1326.39 837.757,-1319.66 834.411,-1312.8"/>
<ellipse fill="none" stroke="#012294" cx="846.1" cy="-1336.75" rx="4.00002" ry="4.00002"/>
<polygon fill="#012294" stroke="#012294" points="834.206,-1312.38 833.863,-1301.42 832.013,-1307.89 829.819,-1303.4 829.819,-1303.4 829.819,-1303.4 832.013,-1307.89 825.776,-1305.37 834.206,-1312.38 834.206,-1312.38"/>
</g>
<!-- Locality -->
<g id="node11" class="node"><title>Locality</title>
<path fill="none" stroke="black" d="M1056.32,-1127.6C1056.32,-1127.6 1167.68,-1127.6 1167.68,-1127.6 1173.68,-1127.6 1179.68,-1133.6 1179.68,-1139.6 1179.68,-1139.6 1179.68,-1232.4 1179.68,-1232.4 1179.68,-1238.4 1173.68,-1244.4 1167.68,-1244.4 1167.68,-1244.4 1056.32,-1244.4 1056.32,-1244.4 1050.32,-1244.4 1044.32,-1238.4 1044.32,-1232.4 1044.32,-1232.4 1044.32,-1139.6 1044.32,-1139.6 1044.32,-1133.6 1050.32,-1127.6 1056.32,-1127.6"/>
<text text-anchor="middle" x="1112" y="-1226.4" font-family="Times,serif" font-size="14.00">Locality</text>
<polyline fill="none" stroke="black" points="1044.32,-1219.6 1179.68,-1219.6 "/>
<text text-anchor="start" x="1052.32" y="-1201.6" font-family="Times,serif" font-size="14.00">id :integer</text>
<text text-anchor="start" x="1052.32" y="-1184.8" font-family="Times,serif" font-size="14.00">name :string</text>
<text text-anchor="start" x="1052.32" y="-1168" font-family="Times,serif" font-size="14.00">commune_id :integer</text>
<text text-anchor="start" x="1052.32" y="-1151.2" font-family="Times,serif" font-size="14.00">created_at :datetime</text>
<text text-anchor="start" x="1052.32" y="-1134.4" font-family="Times,serif" font-size="14.00">updated_at :datetime</text>
</g>
<!-- Commune&#45;&gt;Locality -->
<g id="edge4" class="edge"><title>Commune&#45;&gt;Locality</title>
<path fill="none" stroke="#396343" d="M947.903,-1335.11C959.66,-1324.75 971.69,-1314.1 983,-1304 1002.02,-1287.02 1022.5,-1268.54 1041.42,-1251.38"/>
<ellipse fill="none" stroke="#396343" cx="944.787" cy="-1337.85" rx="4.00002" ry="4.00002"/>
<polygon fill="#396343" stroke="#396343" points="1041.46,-1251.35 1051.89,-1247.96 1045.16,-1247.99 1048.86,-1244.63 1048.86,-1244.63 1048.86,-1244.63 1045.16,-1247.99 1045.84,-1241.29 1041.46,-1251.35 1041.46,-1251.35"/>
</g>
<!-- User -->
<g id="node23" class="node"><title>User</title>
<path fill="none" stroke="black" d="M366.722,-628.8C366.722,-628.8 547.278,-628.8 547.278,-628.8 553.278,-628.8 559.278,-634.8 559.278,-640.8 559.278,-640.8 559.278,-1019.2 559.278,-1019.2 559.278,-1025.2 553.278,-1031.2 547.278,-1031.2 547.278,-1031.2 366.722,-1031.2 366.722,-1031.2 360.722,-1031.2 354.722,-1025.2 354.722,-1019.2 354.722,-1019.2 354.722,-640.8 354.722,-640.8 354.722,-634.8 360.722,-628.8 366.722,-628.8"/>
<text text-anchor="middle" x="457" y="-1013.2" font-family="Times,serif" font-size="14.00">User</text>
<polyline fill="none" stroke="black" points="354.722,-1006.4 559.278,-1006.4 "/>
<text text-anchor="start" x="362.722" y="-988.4" font-family="Times,serif" font-size="14.00">id :integer</text>
<text text-anchor="start" x="362.722" y="-971.6" font-family="Times,serif" font-size="14.00">email :string</text>
<text text-anchor="start" x="362.722" y="-954.8" font-family="Times,serif" font-size="14.00">encrypted_password :string</text>
<text text-anchor="start" x="362.722" y="-938" font-family="Times,serif" font-size="14.00">reset_password_token :string</text>
<text text-anchor="start" x="362.722" y="-921.2" font-family="Times,serif" font-size="14.00">reset_password_sent_at :datetime</text>
<text text-anchor="start" x="362.722" y="-904.4" font-family="Times,serif" font-size="14.00">remember_created_at :datetime</text>
<text text-anchor="start" x="362.722" y="-887.6" font-family="Times,serif" font-size="14.00">sign_in_count :integer</text>
<text text-anchor="start" x="362.722" y="-870.8" font-family="Times,serif" font-size="14.00">current_sign_in_at :datetime</text>
<text text-anchor="start" x="362.722" y="-854" font-family="Times,serif" font-size="14.00">last_sign_in_at :datetime</text>
<text text-anchor="start" x="362.722" y="-837.2" font-family="Times,serif" font-size="14.00">current_sign_in_ip :string</text>
<text text-anchor="start" x="362.722" y="-820.4" font-family="Times,serif" font-size="14.00">last_sign_in_ip :string</text>
<text text-anchor="start" x="362.722" y="-803.6" font-family="Times,serif" font-size="14.00">created_at :datetime</text>
<text text-anchor="start" x="362.722" y="-786.8" font-family="Times,serif" font-size="14.00">updated_at :datetime</text>
<text text-anchor="start" x="362.722" y="-770" font-family="Times,serif" font-size="14.00">phone :integer</text>
<text text-anchor="start" x="362.722" y="-753.2" font-family="Times,serif" font-size="14.00">active :boolean</text>
<text text-anchor="start" x="362.722" y="-736.4" font-family="Times,serif" font-size="14.00">name :string</text>
<text text-anchor="start" x="362.722" y="-719.6" font-family="Times,serif" font-size="14.00">lastname :string</text>
<text text-anchor="start" x="362.722" y="-702.8" font-family="Times,serif" font-size="14.00">secret_question :string</text>
<text text-anchor="start" x="362.722" y="-686" font-family="Times,serif" font-size="14.00">secret_answer :string</text>
<text text-anchor="start" x="362.722" y="-669.2" font-family="Times,serif" font-size="14.00">super_admin :boolean</text>
<text text-anchor="start" x="362.722" y="-652.4" font-family="Times,serif" font-size="14.00">company_id :integer</text>
<text text-anchor="start" x="362.722" y="-635.6" font-family="Times,serif" font-size="14.00">gender :string</text>
</g>
<!-- Company&#45;&gt;User -->
<g id="edge5" class="edge"><title>Company&#45;&gt;User</title>
<path fill="none" stroke="#7a277c" d="M691.606,-1133.78C652.678,-1106.68 607.222,-1070.97 573,-1032 570.528,-1029.19 568.083,-1026.31 565.666,-1023.38"/>
<ellipse fill="none" stroke="#7a277c" cx="695.001" cy="-1136.13" rx="4.00002" ry="4.00002"/>
<polygon fill="#7a277c" stroke="#7a277c" points="565.604,-1023.31 562.839,-1012.69 562.469,-1019.41 559.334,-1015.52 559.334,-1015.52 559.334,-1015.52 562.469,-1019.41 555.828,-1018.34 565.604,-1023.31 565.604,-1023.31"/>
</g>
<!-- Receipt -->
<g id="node18" class="node"><title>Receipt</title>
<path fill="none" stroke="black" d="M806.563,-357C806.563,-357 947.437,-357 947.437,-357 953.437,-357 959.437,-363 959.437,-369 959.437,-369 959.437,-529 959.437,-529 959.437,-535 953.437,-541 947.437,-541 947.437,-541 806.563,-541 806.563,-541 800.563,-541 794.563,-535 794.563,-529 794.563,-529 794.563,-369 794.563,-369 794.563,-363 800.563,-357 806.563,-357"/>
<text text-anchor="middle" x="877" y="-523" font-family="Times,serif" font-size="14.00">Receipt</text>
<polyline fill="none" stroke="black" points="794.563,-516.2 959.437,-516.2 "/>
<text text-anchor="start" x="802.563" y="-498.2" font-family="Times,serif" font-size="14.00">id :integer</text>
<text text-anchor="start" x="802.563" y="-481.4" font-family="Times,serif" font-size="14.00">code :integer</text>
<text text-anchor="start" x="802.563" y="-464.6" font-family="Times,serif" font-size="14.00">receipt_datetime :datetime</text>
<text text-anchor="start" x="802.563" y="-447.8" font-family="Times,serif" font-size="14.00">producer_id :integer</text>
<text text-anchor="start" x="802.563" y="-431" font-family="Times,serif" font-size="14.00">kind_id :integer</text>
<text text-anchor="start" x="802.563" y="-414.2" font-family="Times,serif" font-size="14.00">user_id :integer</text>
<text text-anchor="start" x="802.563" y="-397.4" font-family="Times,serif" font-size="14.00">company_id :integer</text>
<text text-anchor="start" x="802.563" y="-380.6" font-family="Times,serif" font-size="14.00">created_at :datetime</text>
<text text-anchor="start" x="802.563" y="-363.8" font-family="Times,serif" font-size="14.00">updated_at :datetime</text>
</g>
<!-- Company&#45;&gt;Receipt -->
<g id="edge6" class="edge"><title>Company&#45;&gt;Receipt</title>
<path fill="none" stroke="#c62f3d" d="M764.621,-1060.44C760.11,-946.306 761.296,-773.489 796,-628 802.182,-602.083 812.185,-575.33 823.086,-550.687"/>
<ellipse fill="none" stroke="#c62f3d" cx="764.791" cy="-1064.55" rx="4" ry="4"/>
<polygon fill="#c62f3d" stroke="#c62f3d" points="823.186,-550.466 831.403,-543.204 825.244,-545.909 827.302,-541.352 827.302,-541.352 827.302,-541.352 825.244,-545.909 823.201,-539.5 823.186,-550.466 823.186,-550.466"/>
</g>
<!-- Dispatch -->
<g id="node8" class="node"><title>Dispatch</title>
<path fill="none" stroke="black" d="M11.2773,-365.4C11.2773,-365.4 160.723,-365.4 160.723,-365.4 166.723,-365.4 172.723,-371.4 172.723,-377.4 172.723,-377.4 172.723,-520.6 172.723,-520.6 172.723,-526.6 166.723,-532.6 160.723,-532.6 160.723,-532.6 11.2773,-532.6 11.2773,-532.6 5.27734,-532.6 -0.722656,-526.6 -0.722656,-520.6 -0.722656,-520.6 -0.722656,-377.4 -0.722656,-377.4 -0.722656,-371.4 5.27734,-365.4 11.2773,-365.4"/>
<text text-anchor="middle" x="86" y="-514.6" font-family="Times,serif" font-size="14.00">Dispatch</text>
<polyline fill="none" stroke="black" points="-0.722656,-507.8 172.723,-507.8 "/>
<text text-anchor="start" x="7.27734" y="-489.8" font-family="Times,serif" font-size="14.00">id :integer</text>
<text text-anchor="start" x="7.27734" y="-473" font-family="Times,serif" font-size="14.00">destination_id :integer</text>
<text text-anchor="start" x="7.27734" y="-456.2" font-family="Times,serif" font-size="14.00">kind_id :integer</text>
<text text-anchor="start" x="7.27734" y="-439.4" font-family="Times,serif" font-size="14.00">dispatch_datetime :datetime</text>
<text text-anchor="start" x="7.27734" y="-422.6" font-family="Times,serif" font-size="14.00">company_id :integer</text>
<text text-anchor="start" x="7.27734" y="-405.8" font-family="Times,serif" font-size="14.00">user_id :integer</text>
<text text-anchor="start" x="7.27734" y="-389" font-family="Times,serif" font-size="14.00">created_at :datetime</text>
<text text-anchor="start" x="7.27734" y="-372.2" font-family="Times,serif" font-size="14.00">updated_at :datetime</text>
</g>
<!-- Company&#45;&gt;Dispatch -->
<g id="edge7" class="edge"><title>Company&#45;&gt;Dispatch</title>
<path fill="none" stroke="#7438bb" d="M691.749,-1131.03C659.469,-1105.09 625.45,-1071.11 606,-1032 565.85,-951.258 631.795,-691.73 568,-628 506.895,-566.958 255.216,-636.181 181,-592 160.372,-579.72 143.291,-561.01 129.577,-541.165"/>
<ellipse fill="none" stroke="#7438bb" cx="695.038" cy="-1133.63" rx="4.00002" ry="4.00002"/>
<polygon fill="#7438bb" stroke="#7438bb" points="129.429,-540.942 127.656,-530.12 126.667,-536.774 123.905,-532.606 123.905,-532.606 123.905,-532.606 126.667,-536.774 120.154,-535.091 129.429,-540.942 129.429,-540.942"/>
</g>
<!-- Container -->
<g id="node6" class="node"><title>Container</title>
<path fill="none" stroke="black" d="M1199.49,-771.6C1199.49,-771.6 1308.51,-771.6 1308.51,-771.6 1314.51,-771.6 1320.51,-777.6 1320.51,-783.6 1320.51,-783.6 1320.51,-876.4 1320.51,-876.4 1320.51,-882.4 1314.51,-888.4 1308.51,-888.4 1308.51,-888.4 1199.49,-888.4 1199.49,-888.4 1193.49,-888.4 1187.49,-882.4 1187.49,-876.4 1187.49,-876.4 1187.49,-783.6 1187.49,-783.6 1187.49,-777.6 1193.49,-771.6 1199.49,-771.6"/>
<text text-anchor="middle" x="1254" y="-870.4" font-family="Times,serif" font-size="14.00">Container</text>
<polyline fill="none" stroke="black" points="1187.49,-863.6 1320.51,-863.6 "/>
<text text-anchor="start" x="1195.49" y="-845.6" font-family="Times,serif" font-size="14.00">id :integer</text>
<text text-anchor="start" x="1195.49" y="-828.8" font-family="Times,serif" font-size="14.00">name :string</text>
<text text-anchor="start" x="1195.49" y="-812" font-family="Times,serif" font-size="14.00">tare :float</text>
<text text-anchor="start" x="1195.49" y="-795.2" font-family="Times,serif" font-size="14.00">created_at :datetime</text>
<text text-anchor="start" x="1195.49" y="-778.4" font-family="Times,serif" font-size="14.00">updated_at :datetime</text>
</g>
<!-- Container&#45;&gt;Producer -->
<g id="edge8" class="edge"><title>Container&#45;&gt;Producer</title>
<path fill="none" stroke="#5f9d99" d="M1230.71,-761.734C1216.01,-721.964 1195.57,-671.11 1173,-628 1162.12,-607.216 1149.45,-585.803 1136.54,-565.348"/>
<polygon fill="#5f9d99" stroke="#5f9d99" points="1230.79,-761.945 1230,-772.883 1232.51,-766.64 1234.23,-771.335 1234.23,-771.335 1234.23,-771.335 1232.51,-766.64 1238.45,-769.787 1230.79,-761.945 1230.79,-761.945"/>
<polygon fill="#5f9d99" stroke="#5f9d99" points="1136.37,-565.08 1134.79,-554.228 1133.68,-560.862 1131,-556.645 1131,-556.645 1131,-556.645 1133.68,-560.862 1127.2,-559.062 1136.37,-565.08 1136.37,-565.08"/>
</g>
<!-- Destination&#45;&gt;Dispatch -->
<g id="edge9" class="edge"><title>Destination&#45;&gt;Dispatch</title>
<path fill="none" stroke="#241ef7" d="M826.636,-705.306C809.379,-675.149 786.563,-646.325 757,-628 647.993,-560.431 292.183,-655.924 181,-592 160.075,-579.969 142.854,-561.239 129.097,-541.284"/>
<ellipse fill="none" stroke="#241ef7" cx="828.737" cy="-709.084" rx="4.00002" ry="4.00002"/>
<polygon fill="#241ef7" stroke="#241ef7" points="128.921,-541.018 127.167,-530.194 126.167,-536.846 123.412,-532.673 123.412,-532.673 123.412,-532.673 126.167,-536.846 119.656,-535.152 128.921,-541.018 128.921,-541.018"/>
</g>
<!-- Destination&#45;&gt;Producer -->
<g id="edge10" class="edge"><title>Destination&#45;&gt;Producer</title>
<path fill="none" stroke="#9ab757" d="M920.673,-704.972C931.37,-679.258 943.096,-652.535 955,-628 961.616,-614.364 968.831,-600.33 976.263,-586.41"/>
<ellipse fill="none" stroke="#9ab757" cx="919.065" cy="-708.858" rx="4.00001" ry="4.00001"/>
<polygon fill="#9ab757" stroke="#9ab757" points="976.435,-586.09 985.136,-579.416 978.804,-581.687 981.173,-577.284 981.173,-577.284 981.173,-577.284 978.804,-581.687 977.211,-575.152 976.435,-586.09 976.435,-586.09"/>
</g>
<!-- Destination&#45;&gt;Receipt -->
<g id="edge11" class="edge"><title>Destination&#45;&gt;Receipt</title>
<path fill="none" stroke="#d41de6" d="M874.313,-704.564C874.838,-654.887 875.434,-598.419 875.931,-551.31"/>
<ellipse fill="none" stroke="#d41de6" cx="874.27" cy="-708.712" rx="4" ry="4"/>
<polygon fill="#d41de6" stroke="#d41de6" points="875.933,-551.097 880.538,-541.145 875.986,-546.097 876.039,-541.098 876.039,-541.098 876.039,-541.098 875.986,-546.097 871.539,-541.05 875.933,-551.097 875.933,-551.097"/>
</g>
<!-- Pallet -->
<g id="node15" class="node"><title>Pallet</title>
<path fill="none" stroke="black" d="M356.053,-1C356.053,-1 475.947,-1 475.947,-1 481.947,-1 487.947,-7 487.947,-13 487.947,-13 487.947,-257 487.947,-257 487.947,-263 481.947,-269 475.947,-269 475.947,-269 356.053,-269 356.053,-269 350.053,-269 344.053,-263 344.053,-257 344.053,-257 344.053,-13 344.053,-13 344.053,-7 350.053,-1 356.053,-1"/>
<text text-anchor="middle" x="416" y="-251" font-family="Times,serif" font-size="14.00">Pallet</text>
<polyline fill="none" stroke="black" points="344.053,-244.2 487.947,-244.2 "/>
<text text-anchor="start" x="352.053" y="-226.2" font-family="Times,serif" font-size="14.00">id :integer</text>
<text text-anchor="start" x="352.053" y="-209.4" font-family="Times,serif" font-size="14.00">code :integer</text>
<text text-anchor="start" x="352.053" y="-192.6" font-family="Times,serif" font-size="14.00">quantity :integer</text>
<text text-anchor="start" x="352.053" y="-175.8" font-family="Times,serif" font-size="14.00">price_per_unit :integer</text>
<text text-anchor="start" x="352.053" y="-159" font-family="Times,serif" font-size="14.00">gross_weight :integer</text>
<text text-anchor="start" x="352.053" y="-142.2" font-family="Times,serif" font-size="14.00">tare :integer</text>
<text text-anchor="start" x="352.053" y="-125.4" font-family="Times,serif" font-size="14.00">variety_id :integer</text>
<text text-anchor="start" x="352.053" y="-108.6" font-family="Times,serif" font-size="14.00">quality_id :integer</text>
<text text-anchor="start" x="352.053" y="-91.8" font-family="Times,serif" font-size="14.00">receipt_id :integer</text>
<text text-anchor="start" x="352.053" y="-75" font-family="Times,serif" font-size="14.00">pack_type_id :integer</text>
<text text-anchor="start" x="352.053" y="-58.2" font-family="Times,serif" font-size="14.00">company_id :integer</text>
<text text-anchor="start" x="352.053" y="-41.4" font-family="Times,serif" font-size="14.00">dispatch_id :integer</text>
<text text-anchor="start" x="352.053" y="-24.6" font-family="Times,serif" font-size="14.00">created_at :datetime</text>
<text text-anchor="start" x="352.053" y="-7.8" font-family="Times,serif" font-size="14.00">updated_at :datetime</text>
</g>
<!-- Dispatch&#45;&gt;Pallet -->
<g id="edge12" class="edge"><title>Dispatch&#45;&gt;Pallet</title>
<path fill="none" stroke="#b25d63" d="M131.105,-358.405C144.738,-338.649 161.398,-319.587 181,-306 238.413,-266.203 277.404,-310.951 334,-270 334.642,-269.535 335.28,-269.064 335.915,-268.586"/>
<ellipse fill="none" stroke="#b25d63" cx="128.826" cy="-361.803" rx="4.00002" ry="4.00002"/>
<polygon fill="#b25d63" stroke="#b25d63" points="336.194,-268.357 346.783,-265.507 340.064,-265.191 343.934,-262.024 343.934,-262.024 343.934,-262.024 340.064,-265.191 341.084,-258.542 336.194,-268.357 336.194,-268.357"/>
</g>
<!-- PackGroupDispatch -->
<g id="node12" class="node"><title>PackGroupDispatch</title>
<path fill="none" stroke="black" d="M200.16,-34.6C200.16,-34.6 313.84,-34.6 313.84,-34.6 319.84,-34.6 325.84,-40.6 325.84,-46.6 325.84,-46.6 325.84,-223.4 325.84,-223.4 325.84,-229.4 319.84,-235.4 313.84,-235.4 313.84,-235.4 200.16,-235.4 200.16,-235.4 194.16,-235.4 188.16,-229.4 188.16,-223.4 188.16,-223.4 188.16,-46.6 188.16,-46.6 188.16,-40.6 194.16,-34.6 200.16,-34.6"/>
<text text-anchor="middle" x="257" y="-217.4" font-family="Times,serif" font-size="14.00">PackGroupDispatch</text>
<polyline fill="none" stroke="black" points="188.16,-210.6 325.84,-210.6 "/>
<text text-anchor="start" x="196.16" y="-192.6" font-family="Times,serif" font-size="14.00">id :integer</text>
<text text-anchor="start" x="196.16" y="-175.8" font-family="Times,serif" font-size="14.00">gross_weight :integer</text>
<text text-anchor="start" x="196.16" y="-159" font-family="Times,serif" font-size="14.00">quantity :integer</text>
<text text-anchor="start" x="196.16" y="-142.2" font-family="Times,serif" font-size="14.00">quality_id :integer</text>
<text text-anchor="start" x="196.16" y="-125.4" font-family="Times,serif" font-size="14.00">variety_id :integer</text>
<text text-anchor="start" x="196.16" y="-108.6" font-family="Times,serif" font-size="14.00">dispatch_id :integer</text>
<text text-anchor="start" x="196.16" y="-91.8" font-family="Times,serif" font-size="14.00">pack_type_id :integer</text>
<text text-anchor="start" x="196.16" y="-75" font-family="Times,serif" font-size="14.00">company_id :integer</text>
<text text-anchor="start" x="196.16" y="-58.2" font-family="Times,serif" font-size="14.00">created_at :datetime</text>
<text text-anchor="start" x="196.16" y="-41.4" font-family="Times,serif" font-size="14.00">updated_at :datetime</text>
</g>
<!-- Dispatch&#45;&gt;PackGroupDispatch -->
<g id="edge13" class="edge"><title>Dispatch&#45;&gt;PackGroupDispatch</title>
<path fill="none" stroke="#9fe724" d="M135.256,-358.13C154.707,-322.64 177.229,-281.546 197.574,-244.427"/>
<ellipse fill="none" stroke="#9fe724" cx="133.298" cy="-361.701" rx="4.00002" ry="4.00002"/>
<polygon fill="#9fe724" stroke="#9fe724" points="197.616,-244.35 206.368,-237.744 200.019,-239.965 202.422,-235.581 202.422,-235.581 202.422,-235.581 200.019,-239.965 198.476,-233.418 197.616,-244.35 197.616,-244.35"/>
</g>
<!-- Grouping -->
<g id="node9" class="node"><title>Grouping</title>
<path fill="none" stroke="black" d="M1009.49,-771.6C1009.49,-771.6 1118.51,-771.6 1118.51,-771.6 1124.51,-771.6 1130.51,-777.6 1130.51,-783.6 1130.51,-783.6 1130.51,-876.4 1130.51,-876.4 1130.51,-882.4 1124.51,-888.4 1118.51,-888.4 1118.51,-888.4 1009.49,-888.4 1009.49,-888.4 1003.49,-888.4 997.495,-882.4 997.495,-876.4 997.495,-876.4 997.495,-783.6 997.495,-783.6 997.495,-777.6 1003.49,-771.6 1009.49,-771.6"/>
<text text-anchor="middle" x="1064" y="-870.4" font-family="Times,serif" font-size="14.00">Grouping</text>
<polyline fill="none" stroke="black" points="997.495,-863.6 1130.51,-863.6 "/>
<text text-anchor="start" x="1005.49" y="-845.6" font-family="Times,serif" font-size="14.00">id :integer</text>
<text text-anchor="start" x="1005.49" y="-828.8" font-family="Times,serif" font-size="14.00">name :string</text>
<text text-anchor="start" x="1005.49" y="-812" font-family="Times,serif" font-size="14.00">description :text</text>
<text text-anchor="start" x="1005.49" y="-795.2" font-family="Times,serif" font-size="14.00">created_at :datetime</text>
<text text-anchor="start" x="1005.49" y="-778.4" font-family="Times,serif" font-size="14.00">updated_at :datetime</text>
</g>
<!-- Grouping&#45;&gt;Producer -->
<g id="edge14" class="edge"><title>Grouping&#45;&gt;Producer</title>
<path fill="none" stroke="#c117c9" d="M1062.57,-761.371C1061.64,-717.072 1060.38,-657.341 1059.21,-602.043"/>
<polygon fill="#c117c9" stroke="#c117c9" points="1062.57,-761.44 1058.29,-771.533 1062.68,-766.439 1062.78,-771.438 1062.78,-771.438 1062.78,-771.438 1062.68,-766.439 1067.28,-771.343 1062.57,-761.44 1062.57,-761.44"/>
<polygon fill="#c117c9" stroke="#c117c9" points="1059.2,-601.772 1063.49,-591.679 1059.1,-596.773 1058.99,-591.774 1058.99,-591.774 1058.99,-591.774 1059.1,-596.773 1054.49,-591.869 1059.2,-601.772 1059.2,-601.772"/>
</g>
<!-- Kind -->
<g id="node10" class="node"><title>Kind</title>
<path fill="none" stroke="black" d="M627.495,-780C627.495,-780 736.505,-780 736.505,-780 742.505,-780 748.505,-786 748.505,-792 748.505,-792 748.505,-868 748.505,-868 748.505,-874 742.505,-880 736.505,-880 736.505,-880 627.495,-880 627.495,-880 621.495,-880 615.495,-874 615.495,-868 615.495,-868 615.495,-792 615.495,-792 615.495,-786 621.495,-780 627.495,-780"/>
<text text-anchor="middle" x="682" y="-862" font-family="Times,serif" font-size="14.00">Kind</text>
<polyline fill="none" stroke="black" points="615.495,-855.2 748.505,-855.2 "/>
<text text-anchor="start" x="623.495" y="-837.2" font-family="Times,serif" font-size="14.00">id :integer</text>
<text text-anchor="start" x="623.495" y="-820.4" font-family="Times,serif" font-size="14.00">name :string</text>
<text text-anchor="start" x="623.495" y="-803.6" font-family="Times,serif" font-size="14.00">created_at :datetime</text>
<text text-anchor="start" x="623.495" y="-786.8" font-family="Times,serif" font-size="14.00">updated_at :datetime</text>
</g>
<!-- Kind&#45;&gt;Producer -->
<g id="edge15" class="edge"><title>Kind&#45;&gt;Producer</title>
<path fill="none" stroke="#b5f90a" d="M700.317,-770.098C717.64,-724.308 748.204,-662.892 796,-628 859.08,-581.95 904.037,-636.816 968,-592 969.692,-590.814 971.359,-589.584 972.999,-588.314"/>
<polygon fill="#b5f90a" stroke="#b5f90a" points="700.269,-770.229 692.597,-778.064 698.545,-774.923 696.821,-779.616 696.821,-779.616 696.821,-779.616 698.545,-774.923 701.045,-781.168 700.269,-770.229 700.269,-770.229"/>
<polygon fill="#b5f90a" stroke="#b5f90a" points="973.313,-588.052 983.872,-585.092 977.15,-584.845 980.986,-581.639 980.986,-581.639 980.986,-581.639 977.15,-584.845 978.101,-578.186 973.313,-588.052 973.313,-588.052"/>
</g>
<!-- Variety -->
<g id="node24" class="node"><title>Variety</title>
<path fill="none" stroke="black" d="M655.495,-390.6C655.495,-390.6 764.505,-390.6 764.505,-390.6 770.505,-390.6 776.505,-396.6 776.505,-402.6 776.505,-402.6 776.505,-495.4 776.505,-495.4 776.505,-501.4 770.505,-507.4 764.505,-507.4 764.505,-507.4 655.495,-507.4 655.495,-507.4 649.495,-507.4 643.495,-501.4 643.495,-495.4 643.495,-495.4 643.495,-402.6 643.495,-402.6 643.495,-396.6 649.495,-390.6 655.495,-390.6"/>
<text text-anchor="middle" x="710" y="-489.4" font-family="Times,serif" font-size="14.00">Variety</text>
<polyline fill="none" stroke="black" points="643.495,-482.6 776.505,-482.6 "/>
<text text-anchor="start" x="651.495" y="-464.6" font-family="Times,serif" font-size="14.00">id :integer</text>
<text text-anchor="start" x="651.495" y="-447.8" font-family="Times,serif" font-size="14.00">name :string</text>
<text text-anchor="start" x="651.495" y="-431" font-family="Times,serif" font-size="14.00">kind_id :integer</text>
<text text-anchor="start" x="651.495" y="-414.2" font-family="Times,serif" font-size="14.00">created_at :datetime</text>
<text text-anchor="start" x="651.495" y="-397.4" font-family="Times,serif" font-size="14.00">updated_at :datetime</text>
</g>
<!-- Kind&#45;&gt;Variety -->
<g id="edge16" class="edge"><title>Kind&#45;&gt;Variety</title>
<path fill="none" stroke="#02aa14" d="M686.225,-771.813C691.253,-703.752 699.64,-590.231 704.99,-517.809"/>
<ellipse fill="none" stroke="#02aa14" cx="685.927" cy="-775.852" rx="4" ry="4"/>
<polygon fill="#02aa14" stroke="#02aa14" points="705.02,-517.405 710.245,-507.764 705.389,-512.418 705.757,-507.432 705.757,-507.432 705.757,-507.432 705.389,-512.418 701.269,-507.1 705.02,-517.405 705.02,-517.405"/>
</g>
<!-- Season -->
<g id="node21" class="node"><title>Season</title>
<path fill="none" stroke="black" d="M504.495,-365.4C504.495,-365.4 613.505,-365.4 613.505,-365.4 619.505,-365.4 625.505,-371.4 625.505,-377.4 625.505,-377.4 625.505,-520.6 625.505,-520.6 625.505,-526.6 619.505,-532.6 613.505,-532.6 613.505,-532.6 504.495,-532.6 504.495,-532.6 498.495,-532.6 492.495,-526.6 492.495,-520.6 492.495,-520.6 492.495,-377.4 492.495,-377.4 492.495,-371.4 498.495,-365.4 504.495,-365.4"/>
<text text-anchor="middle" x="559" y="-514.6" font-family="Times,serif" font-size="14.00">Season</text>
<polyline fill="none" stroke="black" points="492.495,-507.8 625.505,-507.8 "/>
<text text-anchor="start" x="500.495" y="-489.8" font-family="Times,serif" font-size="14.00">id :integer</text>
<text text-anchor="start" x="500.495" y="-473" font-family="Times,serif" font-size="14.00">init_date :date</text>
<text text-anchor="start" x="500.495" y="-456.2" font-family="Times,serif" font-size="14.00">end_date :date</text>
<text text-anchor="start" x="500.495" y="-439.4" font-family="Times,serif" font-size="14.00">kind_id :integer</text>
<text text-anchor="start" x="500.495" y="-422.6" font-family="Times,serif" font-size="14.00">is_active :integer</text>
<text text-anchor="start" x="500.495" y="-405.8" font-family="Times,serif" font-size="14.00">is_delete :integer</text>
<text text-anchor="start" x="500.495" y="-389" font-family="Times,serif" font-size="14.00">created_at :datetime</text>
<text text-anchor="start" x="500.495" y="-372.2" font-family="Times,serif" font-size="14.00">updated_at :datetime</text>
</g>
<!-- Kind&#45;&gt;Season -->
<g id="edge17" class="edge"><title>Kind&#45;&gt;Season</title>
<path fill="none" stroke="#944fbb" d="M663.472,-771.91C643.774,-711.215 612.319,-614.291 589.064,-542.637"/>
<ellipse fill="none" stroke="#944fbb" cx="664.811" cy="-776.036" rx="4.00001" ry="4.00001"/>
<polygon fill="#944fbb" stroke="#944fbb" points="588.927,-542.212 590.12,-531.312 587.383,-537.457 585.84,-532.701 585.84,-532.701 585.84,-532.701 587.383,-537.457 581.559,-534.09 588.927,-542.212 588.927,-542.212"/>
</g>
<!-- Kind&#45;&gt;Dispatch -->
<g id="edge18" class="edge"><title>Kind&#45;&gt;Dispatch</title>
<path fill="none" stroke="#fbe490" d="M675.233,-771.694C666.47,-725.047 646.472,-661.617 601,-628 525.674,-572.312 261.665,-639.626 181,-592 160.327,-579.795 143.23,-561.113 129.515,-541.27"/>
<ellipse fill="none" stroke="#fbe490" cx="675.942" cy="-775.675" rx="4.00001" ry="4.00001"/>
<polygon fill="#fbe490" stroke="#fbe490" points="129.366,-541.046 127.594,-530.225 126.605,-536.878 123.843,-532.71 123.843,-532.71 123.843,-532.71 126.605,-536.878 120.092,-535.196 129.366,-541.046 129.366,-541.046"/>
</g>
<!-- Kind&#45;&gt;Receipt -->
<g id="edge19" class="edge"><title>Kind&#45;&gt;Receipt</title>
<path fill="none" stroke="#7f1113" d="M701.651,-772.226C716.599,-731.264 738.689,-675.115 763,-628 765.386,-623.376 788.035,-587.909 812.524,-549.836"/>
<ellipse fill="none" stroke="#7f1113" cx="700.215" cy="-776.19" rx="4.00001" ry="4.00001"/>
<polygon fill="#7f1113" stroke="#7f1113" points="812.693,-549.575 821.889,-543.601 815.399,-545.37 818.104,-541.165 818.104,-541.165 818.104,-541.165 815.399,-545.37 814.32,-538.73 812.693,-549.575 812.693,-549.575"/>
</g>
<!-- Locality&#45;&gt;Producer -->
<g id="edge20" class="edge"><title>Locality&#45;&gt;Producer</title>
<path fill="none" stroke="#af3198" d="M1126.29,-1119.22C1146.67,-1014.04 1177.6,-802.107 1139,-628 1137.05,-619.199 1134.62,-610.318 1131.82,-601.466"/>
<ellipse fill="none" stroke="#af3198" cx="1125.49" cy="-1123.3" rx="4.00001" ry="4.00001"/>
<polygon fill="#af3198" stroke="#af3198" points="1131.79,-601.373 1132.92,-590.466 1130.22,-596.626 1128.65,-591.878 1128.65,-591.878 1128.65,-591.878 1130.22,-596.626 1124.38,-593.291 1131.79,-601.373 1131.79,-601.373"/>
</g>
<!-- PackGroupReceipt -->
<g id="node13" class="node"><title>PackGroupReceipt</title>
<path fill="none" stroke="black" d="M584.053,-26.2C584.053,-26.2 703.947,-26.2 703.947,-26.2 709.947,-26.2 715.947,-32.2 715.947,-38.2 715.947,-38.2 715.947,-231.8 715.947,-231.8 715.947,-237.8 709.947,-243.8 703.947,-243.8 703.947,-243.8 584.053,-243.8 584.053,-243.8 578.053,-243.8 572.053,-237.8 572.053,-231.8 572.053,-231.8 572.053,-38.2 572.053,-38.2 572.053,-32.2 578.053,-26.2 584.053,-26.2"/>
<text text-anchor="middle" x="644" y="-225.8" font-family="Times,serif" font-size="14.00">PackGroupReceipt</text>
<polyline fill="none" stroke="black" points="572.053,-219 715.947,-219 "/>
<text text-anchor="start" x="580.053" y="-201" font-family="Times,serif" font-size="14.00">id :integer</text>
<text text-anchor="start" x="580.053" y="-184.2" font-family="Times,serif" font-size="14.00">price_per_unit :integer</text>
<text text-anchor="start" x="580.053" y="-167.4" font-family="Times,serif" font-size="14.00">quantity :integer</text>
<text text-anchor="start" x="580.053" y="-150.6" font-family="Times,serif" font-size="14.00">gross_weight :integer</text>
<text text-anchor="start" x="580.053" y="-133.8" font-family="Times,serif" font-size="14.00">pack_type_id :integer</text>
<text text-anchor="start" x="580.053" y="-117" font-family="Times,serif" font-size="14.00">variety_id :integer</text>
<text text-anchor="start" x="580.053" y="-100.2" font-family="Times,serif" font-size="14.00">quality_id :integer</text>
<text text-anchor="start" x="580.053" y="-83.4" font-family="Times,serif" font-size="14.00">receipt_id :integer</text>
<text text-anchor="start" x="580.053" y="-66.6" font-family="Times,serif" font-size="14.00">company_id :integer</text>
<text text-anchor="start" x="580.053" y="-49.8" font-family="Times,serif" font-size="14.00">created_at :datetime</text>
<text text-anchor="start" x="580.053" y="-33" font-family="Times,serif" font-size="14.00">updated_at :datetime</text>
</g>
<!-- PackType -->
<g id="node14" class="node"><title>PackType</title>
<path fill="none" stroke="black" d="M202.495,-382.2C202.495,-382.2 311.505,-382.2 311.505,-382.2 317.505,-382.2 323.505,-388.2 323.505,-394.2 323.505,-394.2 323.505,-503.8 323.505,-503.8 323.505,-509.8 317.505,-515.8 311.505,-515.8 311.505,-515.8 202.495,-515.8 202.495,-515.8 196.495,-515.8 190.495,-509.8 190.495,-503.8 190.495,-503.8 190.495,-394.2 190.495,-394.2 190.495,-388.2 196.495,-382.2 202.495,-382.2"/>
<text text-anchor="middle" x="257" y="-497.8" font-family="Times,serif" font-size="14.00">PackType</text>
<polyline fill="none" stroke="black" points="190.495,-491 323.505,-491 "/>
<text text-anchor="start" x="198.495" y="-473" font-family="Times,serif" font-size="14.00">id :integer</text>
<text text-anchor="start" x="198.495" y="-456.2" font-family="Times,serif" font-size="14.00">name :string</text>
<text text-anchor="start" x="198.495" y="-439.4" font-family="Times,serif" font-size="14.00">tare :integer</text>
<text text-anchor="start" x="198.495" y="-422.6" font-family="Times,serif" font-size="14.00">company_id :integer</text>
<text text-anchor="start" x="198.495" y="-405.8" font-family="Times,serif" font-size="14.00">created_at :datetime</text>
<text text-anchor="start" x="198.495" y="-389" font-family="Times,serif" font-size="14.00">updated_at :datetime</text>
</g>
<!-- PackType&#45;&gt;PackGroupReceipt -->
<g id="edge21" class="edge"><title>PackType&#45;&gt;PackGroupReceipt</title>
<path fill="none" stroke="#09e5a7" d="M281.066,-374.65C292.739,-349.462 309.282,-323.287 332,-306 391.386,-260.81 429.669,-304.191 496,-270 520.284,-257.483 543.644,-239.97 564.348,-221.726"/>
<ellipse fill="none" stroke="#09e5a7" cx="279.382" cy="-378.419" rx="4.00002" ry="4.00002"/>
<polygon fill="#09e5a7" stroke="#09e5a7" points="564.415,-221.665 574.86,-218.325 568.134,-218.322 571.852,-214.979 571.852,-214.979 571.852,-214.979 568.134,-218.322 568.843,-211.632 564.415,-221.665 564.415,-221.665"/>
</g>
<!-- PackType&#45;&gt;PackGroupDispatch -->
<g id="edge22" class="edge"><title>PackType&#45;&gt;PackGroupDispatch</title>
<path fill="none" stroke="#5df2b3" d="M257,-373.715C257,-335.453 257,-288.054 257,-245.672"/>
<ellipse fill="none" stroke="#5df2b3" cx="257" cy="-377.833" rx="4" ry="4"/>
<polygon fill="#5df2b3" stroke="#5df2b3" points="257,-245.583 261.5,-235.583 257,-240.583 257,-235.583 257,-235.583 257,-235.583 257,-240.583 252.5,-235.583 257,-245.583 257,-245.583"/>
</g>
<!-- PackType&#45;&gt;Pallet -->
<g id="edge23" class="edge"><title>PackType&#45;&gt;Pallet</title>
<path fill="none" stroke="#f319aa" d="M294.51,-374.395C309.157,-345.655 326.47,-311.681 343.367,-278.525"/>
<ellipse fill="none" stroke="#f319aa" cx="292.536" cy="-378.269" rx="4.00002" ry="4.00002"/>
<polygon fill="#f319aa" stroke="#f319aa" points="343.579,-278.11 352.129,-271.243 345.849,-273.655 348.119,-269.2 348.119,-269.2 348.119,-269.2 345.849,-273.655 344.11,-267.157 343.579,-278.11 343.579,-278.11"/>
</g>
<!-- Quality -->
<g id="node17" class="node"><title>Quality</title>
<path fill="none" stroke="black" d="M353.495,-399C353.495,-399 462.505,-399 462.505,-399 468.505,-399 474.505,-405 474.505,-411 474.505,-411 474.505,-487 474.505,-487 474.505,-493 468.505,-499 462.505,-499 462.505,-499 353.495,-499 353.495,-499 347.495,-499 341.495,-493 341.495,-487 341.495,-487 341.495,-411 341.495,-411 341.495,-405 347.495,-399 353.495,-399"/>
<text text-anchor="middle" x="408" y="-481" font-family="Times,serif" font-size="14.00">Quality</text>
<polyline fill="none" stroke="black" points="341.495,-474.2 474.505,-474.2 "/>
<text text-anchor="start" x="349.495" y="-456.2" font-family="Times,serif" font-size="14.00">id :integer</text>
<text text-anchor="start" x="349.495" y="-439.4" font-family="Times,serif" font-size="14.00">name :string</text>
<text text-anchor="start" x="349.495" y="-422.6" font-family="Times,serif" font-size="14.00">created_at :datetime</text>
<text text-anchor="start" x="349.495" y="-405.8" font-family="Times,serif" font-size="14.00">updated_at :datetime</text>
</g>
<!-- Quality&#45;&gt;PackGroupReceipt -->
<g id="edge24" class="edge"><title>Quality&#45;&gt;PackGroupReceipt</title>
<path fill="none" stroke="#f3cdef" d="M433.51,-391.316C446.692,-364.448 463.992,-332.509 483,-306 506.81,-272.795 536.743,-239.456 564.321,-211.208"/>
<ellipse fill="none" stroke="#f3cdef" cx="431.649" cy="-395.152" rx="4.00002" ry="4.00002"/>
<polygon fill="#f3cdef" stroke="#f3cdef" points="564.637,-210.888 574.859,-206.918 568.144,-207.324 571.652,-203.761 571.652,-203.761 571.652,-203.761 568.144,-207.324 568.445,-200.604 564.637,-210.888 564.637,-210.888"/>
</g>
<!-- Quality&#45;&gt;PackGroupDispatch -->
<g id="edge25" class="edge"><title>Quality&#45;&gt;PackGroupDispatch</title>
<path fill="none" stroke="#2925cd" d="M380.681,-391.553C360.898,-350.676 333.533,-294.134 309.572,-244.625"/>
<ellipse fill="none" stroke="#2925cd" cx="382.498" cy="-395.306" rx="4.00002" ry="4.00002"/>
<polygon fill="#2925cd" stroke="#2925cd" points="309.496,-244.469 309.191,-233.508 307.318,-239.969 305.14,-235.468 305.14,-235.468 305.14,-235.468 307.318,-239.969 301.089,-237.428 309.496,-244.469 309.496,-244.469"/>
</g>
<!-- Quality&#45;&gt;Pallet -->
<g id="edge26" class="edge"><title>Quality&#45;&gt;Pallet</title>
<path fill="none" stroke="#3f066c" d="M409.475,-390.478C410.279,-359.122 411.313,-318.786 412.32,-279.513"/>
<ellipse fill="none" stroke="#3f066c" cx="409.361" cy="-394.908" rx="4" ry="4"/>
<polygon fill="#3f066c" stroke="#3f066c" points="412.326,-279.285 417.081,-269.403 412.454,-274.286 412.582,-269.288 412.582,-269.288 412.582,-269.288 412.454,-274.286 408.084,-269.172 412.326,-279.285 412.326,-279.285"/>
</g>
<!-- Receipt&#45;&gt;Pallet -->
<g id="edge27" class="edge"><title>Receipt&#45;&gt;Pallet</title>
<path fill="none" stroke="#7de265" d="M829.239,-349.978C816.976,-333.033 802.263,-317.269 785,-306 701.3,-251.361 653.006,-313.474 563,-270 539.011,-258.413 516.132,-241.641 495.871,-223.861"/>
<ellipse fill="none" stroke="#7de265" cx="831.702" cy="-353.503" rx="4.00002" ry="4.00002"/>
<polygon fill="#7de265" stroke="#7de265" points="495.677,-223.688 491.244,-213.658 491.957,-220.347 488.237,-217.006 488.237,-217.006 488.237,-217.006 491.957,-220.347 485.23,-220.355 495.677,-223.688 495.677,-223.688"/>
</g>
<!-- Receipt&#45;&gt;PackGroupReceipt -->
<g id="edge28" class="edge"><title>Receipt&#45;&gt;PackGroupReceipt</title>
<path fill="none" stroke="#24a28a" d="M815.622,-349.939C805.669,-335.022 795.256,-319.959 785,-306 765.659,-279.677 743.577,-252.048 722.72,-226.897"/>
<ellipse fill="none" stroke="#24a28a" cx="817.948" cy="-353.445" rx="4.00002" ry="4.00002"/>
<polygon fill="#24a28a" stroke="#24a28a" points="722.689,-226.86 719.749,-216.296 719.49,-223.018 716.291,-219.175 716.291,-219.175 716.291,-219.175 719.49,-223.018 712.833,-222.055 722.689,-226.86 722.689,-226.86"/>
</g>
<!-- Region -->
<g id="node19" class="node"><title>Region</title>
<path fill="none" stroke="black" d="M772.495,-1512C772.495,-1512 881.505,-1512 881.505,-1512 887.505,-1512 893.505,-1518 893.505,-1524 893.505,-1524 893.505,-1600 893.505,-1600 893.505,-1606 887.505,-1612 881.505,-1612 881.505,-1612 772.495,-1612 772.495,-1612 766.495,-1612 760.495,-1606 760.495,-1600 760.495,-1600 760.495,-1524 760.495,-1524 760.495,-1518 766.495,-1512 772.495,-1512"/>
<text text-anchor="middle" x="827" y="-1594" font-family="Times,serif" font-size="14.00">Region</text>
<polyline fill="none" stroke="black" points="760.495,-1587.2 893.505,-1587.2 "/>
<text text-anchor="start" x="768.495" y="-1569.2" font-family="Times,serif" font-size="14.00">id :integer</text>
<text text-anchor="start" x="768.495" y="-1552.4" font-family="Times,serif" font-size="14.00">name :string</text>
<text text-anchor="start" x="768.495" y="-1535.6" font-family="Times,serif" font-size="14.00">created_at :datetime</text>
<text text-anchor="start" x="768.495" y="-1518.8" font-family="Times,serif" font-size="14.00">updated_at :datetime</text>
</g>
<!-- Region&#45;&gt;Company -->
<g id="edge29" class="edge"><title>Region&#45;&gt;Company</title>
<path fill="none" stroke="#9f0704" d="M810.29,-1503.75C806.44,-1488.95 802.69,-1472.97 800,-1458 791.565,-1411.07 785.585,-1359.06 781.436,-1313.25"/>
<ellipse fill="none" stroke="#9f0704" cx="811.408" cy="-1507.98" rx="4.00001" ry="4.00001"/>
<polygon fill="#9f0704" stroke="#9f0704" points="781.435,-1313.23 785.034,-1302.87 780.993,-1308.25 780.552,-1303.27 780.552,-1303.27 780.552,-1303.27 780.993,-1308.25 776.069,-1303.67 781.435,-1313.23 781.435,-1313.23"/>
</g>
<!-- Region&#45;&gt;Commune -->
<g id="edge30" class="edge"><title>Region&#45;&gt;Commune</title>
<path fill="none" stroke="#05c8a3" d="M844.328,-1504.07C847.945,-1492.18 851.79,-1479.55 855.509,-1467.33"/>
<ellipse fill="none" stroke="#05c8a3" cx="843.133" cy="-1507.99" rx="4.00001" ry="4.00001"/>
<polygon fill="#05c8a3" stroke="#05c8a3" points="855.546,-1467.2 862.763,-1458.95 857.002,-1462.42 858.458,-1457.64 858.458,-1457.64 858.458,-1457.64 857.002,-1462.42 854.153,-1456.33 855.546,-1467.2 855.546,-1467.2"/>
</g>
<!-- Role -->
<g id="node20" class="node"><title>Role</title>
<path fill="none" stroke="black" d="M309.495,-1127.6C309.495,-1127.6 418.505,-1127.6 418.505,-1127.6 424.505,-1127.6 430.505,-1133.6 430.505,-1139.6 430.505,-1139.6 430.505,-1232.4 430.505,-1232.4 430.505,-1238.4 424.505,-1244.4 418.505,-1244.4 418.505,-1244.4 309.495,-1244.4 309.495,-1244.4 303.495,-1244.4 297.495,-1238.4 297.495,-1232.4 297.495,-1232.4 297.495,-1139.6 297.495,-1139.6 297.495,-1133.6 303.495,-1127.6 309.495,-1127.6"/>
<text text-anchor="middle" x="364" y="-1226.4" font-family="Times,serif" font-size="14.00">Role</text>
<polyline fill="none" stroke="black" points="297.495,-1219.6 430.505,-1219.6 "/>
<text text-anchor="start" x="305.495" y="-1201.6" font-family="Times,serif" font-size="14.00">id :integer</text>
<text text-anchor="start" x="305.495" y="-1184.8" font-family="Times,serif" font-size="14.00">name :string</text>
<text text-anchor="start" x="305.495" y="-1168" font-family="Times,serif" font-size="14.00">description :string</text>
<text text-anchor="start" x="305.495" y="-1151.2" font-family="Times,serif" font-size="14.00">created_at :datetime</text>
<text text-anchor="start" x="305.495" y="-1134.4" font-family="Times,serif" font-size="14.00">updated_at :datetime</text>
</g>
<!-- Role&#45;&gt;User -->
<g id="edge31" class="edge"><title>Role&#45;&gt;User</title>
<path fill="none" stroke="#844954" d="M381.709,-1117.59C387.618,-1095.1 394.549,-1068.72 401.771,-1041.23"/>
<polygon fill="#844954" stroke="#844954" points="381.69,-1117.66 374.797,-1126.19 380.42,-1122.5 379.149,-1127.34 379.149,-1127.34 379.149,-1127.34 380.42,-1122.5 383.501,-1128.48 381.69,-1117.66 381.69,-1117.66"/>
<polygon fill="#844954" stroke="#844954" points="401.796,-1041.13 408.689,-1032.6 403.066,-1036.3 404.337,-1031.46 404.337,-1031.46 404.337,-1031.46 403.066,-1036.3 399.984,-1030.32 401.796,-1041.13 401.796,-1041.13"/>
</g>
<!-- Role&#45;&gt;AccessRight -->
<g id="edge32" class="edge"><title>Role&#45;&gt;AccessRight</title>
<path fill="none" stroke="#aaa837" d="M346.577,-1119.39C330.608,-1059.25 306.963,-970.201 290.178,-906.99"/>
<ellipse fill="none" stroke="#aaa837" cx="347.661" cy="-1123.47" rx="4.00001" ry="4.00001"/>
<polygon fill="#aaa837" stroke="#aaa837" points="290.112,-906.741 291.895,-895.921 288.829,-901.908 287.545,-897.075 287.545,-897.075 287.545,-897.075 288.829,-901.908 283.196,-898.23 290.112,-906.741 290.112,-906.741"/>
</g>
<!-- Setting -->
<g id="node22" class="node"><title>Setting</title>
<path fill="none" stroke="black" d="M923.495,-1495.2C923.495,-1495.2 1032.51,-1495.2 1032.51,-1495.2 1038.51,-1495.2 1044.51,-1501.2 1044.51,-1507.2 1044.51,-1507.2 1044.51,-1616.8 1044.51,-1616.8 1044.51,-1622.8 1038.51,-1628.8 1032.51,-1628.8 1032.51,-1628.8 923.495,-1628.8 923.495,-1628.8 917.495,-1628.8 911.495,-1622.8 911.495,-1616.8 911.495,-1616.8 911.495,-1507.2 911.495,-1507.2 911.495,-1501.2 917.495,-1495.2 923.495,-1495.2"/>
<text text-anchor="middle" x="978" y="-1610.8" font-family="Times,serif" font-size="14.00">Setting</text>
<polyline fill="none" stroke="black" points="911.495,-1604 1044.51,-1604 "/>
<text text-anchor="start" x="919.495" y="-1586" font-family="Times,serif" font-size="14.00">id :integer</text>
<text text-anchor="start" x="919.495" y="-1569.2" font-family="Times,serif" font-size="14.00">key :string</text>
<text text-anchor="start" x="919.495" y="-1552.4" font-family="Times,serif" font-size="14.00">value :string</text>
<text text-anchor="start" x="919.495" y="-1535.6" font-family="Times,serif" font-size="14.00">company_id :integer</text>
<text text-anchor="start" x="919.495" y="-1518.8" font-family="Times,serif" font-size="14.00">created_at :datetime</text>
<text text-anchor="start" x="919.495" y="-1502" font-family="Times,serif" font-size="14.00">updated_at :datetime</text>
</g>
<!-- User&#45;&gt;Dispatch -->
<g id="edge33" class="edge"><title>User&#45;&gt;Dispatch</title>
<path fill="none" stroke="#affeeb" d="M347.982,-630.269C346.996,-629.501 346.002,-628.745 345,-628 285.111,-583.479 242.648,-634.052 181,-592 161.704,-578.837 145.289,-560.336 131.81,-541.025"/>
<ellipse fill="none" stroke="#affeeb" cx="351.283" cy="-632.967" rx="4.00002" ry="4.00002"/>
<polygon fill="#affeeb" stroke="#affeeb" points="131.798,-541.008 129.946,-530.2 129.006,-536.86 126.213,-532.713 126.213,-532.713 126.213,-532.713 129.006,-536.86 122.48,-535.226 131.798,-541.008 131.798,-541.008"/>
</g>
<!-- User&#45;&gt;Receipt -->
<g id="edge34" class="edge"><title>User&#45;&gt;Receipt</title>
<path fill="none" stroke="#47213f" d="M565.414,-660.572C577.982,-648.316 591.53,-637.187 606,-628 674.508,-584.505 717.897,-637.631 785,-592 801.341,-580.888 815.447,-565.81 827.364,-549.618"/>
<ellipse fill="none" stroke="#47213f" cx="562.536" cy="-663.45" rx="4.00002" ry="4.00002"/>
<polygon fill="#47213f" stroke="#47213f" points="827.633,-549.236 837.074,-543.657 830.515,-545.15 833.396,-541.064 833.396,-541.064 833.396,-541.064 830.515,-545.15 829.719,-538.47 827.633,-549.236 827.633,-549.236"/>
</g>
<!-- Variety&#45;&gt;PackGroupReceipt -->
<g id="edge35" class="edge"><title>Variety&#45;&gt;PackGroupReceipt</title>
<path fill="none" stroke="#53d4f6" d="M696.157,-382.561C688.273,-345.292 678.158,-297.473 668.937,-253.884"/>
<ellipse fill="none" stroke="#53d4f6" cx="696.99" cy="-386.497" rx="4.00001" ry="4.00001"/>
<polygon fill="#53d4f6" stroke="#53d4f6" points="668.931,-253.857 671.264,-243.142 667.896,-248.965 666.862,-244.073 666.862,-244.073 666.862,-244.073 667.896,-248.965 662.459,-245.004 668.931,-253.857 668.931,-253.857"/>
</g>
<!-- Variety&#45;&gt;PackGroupDispatch -->
<g id="edge36" class="edge"><title>Variety&#45;&gt;PackGroupDispatch</title>
<path fill="none" stroke="#4d53e7" d="M690.454,-382.885C678.644,-354.753 660.594,-324.178 634,-306 523.5,-230.467 446.832,-343.547 335,-270 324.157,-262.869 314.632,-253.672 306.313,-243.439"/>
<ellipse fill="none" stroke="#4d53e7" cx="691.974" cy="-386.649" rx="4.00001" ry="4.00001"/>
<polygon fill="#4d53e7" stroke="#4d53e7" points="306.261,-243.371 303.758,-232.695 303.222,-239.4 300.184,-235.429 300.184,-235.429 300.184,-235.429 303.222,-239.4 296.61,-238.164 306.261,-243.371 306.261,-243.371"/>
</g>
<!-- Variety&#45;&gt;Pallet -->
<g id="edge37" class="edge"><title>Variety&#45;&gt;Pallet</title>
<path fill="none" stroke="#b2efd5" d="M685.542,-383.212C673.158,-356.826 656.017,-327.535 634,-306 608.707,-281.261 592.116,-290.1 563,-270 539.967,-254.1 516.785,-234.836 495.856,-215.933"/>
<ellipse fill="none" stroke="#b2efd5" cx="687.244" cy="-386.931" rx="4.00002" ry="4.00002"/>
<polygon fill="#b2efd5" stroke="#b2efd5" points="495.638,-215.734 491.286,-205.668 491.945,-212.363 488.252,-208.992 488.252,-208.992 488.252,-208.992 491.945,-212.363 485.218,-212.316 495.638,-215.734 495.638,-215.734"/>
</g>
</g>
</svg>
